<?xml version="1.0" standalone="no"?>
<!DOCTYPE svg PUBLIC "-//W3C//DTD SVG 20010904//EN"
 "http://www.w3.org/TR/2001/REC-SVG-20010904/DTD/svg10.dtd">
<svg version="1.0" xmlns="http://www.w3.org/2000/svg"
 width="1000.000000pt" height="1000.000000pt" viewBox="0 0 1000.000000 1000.000000"
 preserveAspectRatio="xMidYMid meet">

<g transform="translate(0.000000,1000.000000) scale(0.100000,-0.100000)"
fill="#ffffff" stroke="none">
<path d="M4759 9989 c-660 -30 -1318 -196 -1917 -484 -1285 -620 -2244 -1751
-2641 -3116 -202 -694 -250 -1466 -135 -2178 206 -1282 906 -2437 1948 -3214
433 -323 904 -569 1406 -737 780 -259 1610 -322 2425 -184 451 77 898 220
1313 419 1029 496 1851 1318 2347 2347 654 1358 654 2958 0 4316 -496 1029
-1318 1851 -2347 2347 -500 240 -1043 397 -1598 460 -130 14 -512 36 -595 33
-22 0 -115 -4 -206 -9z m471 -99 c1239 -64 2355 -558 3229 -1429 1129 -1126
1637 -2727 1365 -4301 -329 -1904 -1778 -3454 -3658 -3915 -990 -242 -2019
-172 -2964 201 -1461 578 -2577 1851 -2953 3369 -192 777 -194 1576 -4 2351
213 869 657 1655 1295 2294 860 859 1995 1366 3201 1429 226 12 274 12 489 1z"/>
<path d="M4387 9528 c-31 -40 -76 -119 -100 -173 -52 -117 -146 -393 -187
-549 -16 -59 -30 -110 -32 -111 -2 -2 -39 -13 -83 -25 -1301 -359 -2328 -1402
-2669 -2710 -83 -319 -119 -603 -119 -945 -1 -496 75 -915 244 -1365 65 -172
205 -460 300 -615 391 -642 953 -1151 1629 -1474 666 -318 1423 -434 2160
-330 319 44 554 108 920 248 77 29 358 168 461 228 498 290 943 710 1263 1193
844 1277 844 2923 0 4200 -320 483 -765 903 -1263 1193 -103 60 -384 199 -461
228 -465 178 -785 250 -1235 279 -245 16 -617 -2 -818 -41 -28 -5 -52 -8 -54
-6 -2 2 8 55 23 118 41 181 72 382 85 545 16 202 10 211 -64 112z m23 -102 c0
-31 -22 -187 -55 -391 -8 -49 -29 -148 -45 -220 -17 -71 -181 -794 -364 -1605
-377 -1662 -351 -1506 -251 -1535 83 -25 100 -14 33 19 -47 23 -58 33 -58 53
0 34 648 2915 657 2924 15 15 287 49 481 60 294 17 619 -6 920 -66 724 -145
1384 -499 1911 -1026 1017 -1017 1360 -2503 891 -3862 -287 -833 -907 -1578
-1677 -2016 -919 -522 -1999 -634 -3003 -310 -379 123 -803 341 -1099 567
-143 109 -451 384 -451 402 0 28 486 45 495 18 2 -7 11 -47 20 -89 9 -46 29
-99 49 -132 33 -54 33 -56 12 -60 -15 -3 -12 -5 9 -6 22 -1 43 -14 75 -46 25
-25 62 -51 86 -59 l43 -14 -10 26 c-6 15 -25 42 -42 61 -31 33 -31 34 -7 27
14 -3 176 -9 360 -13 l335 -6 58 -48 c41 -35 68 -49 89 -49 26 0 29 3 23 23
-4 12 -18 34 -31 48 l-25 26 333 6 c183 4 443 13 578 22 676 40 1112 64 1270
70 473 16 1321 98 1414 135 35 14 -26 12 -470 -20 -1132 -79 -1852 -115 -2960
-146 l-240 -7 -38 46 c-47 57 -76 132 -76 195 l0 49 78 16 c113 25 107 16 94
149 -7 62 -23 241 -37 397 -14 157 -30 314 -35 350 -17 109 -44 217 -48 196
-6 -29 7 -457 17 -550 11 -104 -1 -344 -18 -355 -7 -4 -56 -10 -109 -14 -423
-28 -593 -36 -837 -36 -171 0 -334 -6 -420 -15 -77 -8 -152 -15 -167 -15 l-27
0 29 64 c39 86 70 200 70 258 0 26 -17 116 -37 200 -33 141 -36 164 -36 294 1
78 6 151 12 161 14 27 125 58 295 83 77 11 201 34 275 50 75 16 186 37 246 45
129 18 267 53 259 66 -3 5 -31 16 -62 25 l-56 17 69 18 70 18 22 -27 c28 -34
28 -52 3 -102 -11 -22 -20 -50 -20 -63 0 -33 28 -125 41 -133 6 -3 29 14 52
39 57 60 81 67 102 28 22 -44 55 -48 119 -17 l54 26 50 -25 c60 -30 107 -32
147 -5 42 28 81 26 110 -6 l24 -26 138 20 c212 31 225 32 268 22 45 -10 75
-41 75 -76 0 -29 -5 -30 -37 -4 -33 26 -43 17 -15 -13 12 -13 22 -26 22 -30 0
-4 -105 -7 -232 -7 -128 0 -273 -5 -323 -10 l-90 -9 -23 27 -22 27 12 -30 c20
-48 82 -147 159 -252 39 -54 77 -110 85 -125 l15 -28 -83 -2 -83 -1 87 -6 c48
-4 92 -11 96 -16 5 -6 41 -59 79 -120 38 -60 100 -153 137 -205 l67 -95 -53
-7 c-29 -3 -102 -10 -163 -14 -163 -10 -98 -27 91 -22 l151 3 111 -136 c104
-127 160 -188 137 -149 -5 8 -46 73 -92 143 -46 70 -83 129 -83 131 0 2 136 6
303 9 166 4 326 10 355 15 l54 9 134 -159 c75 -87 137 -158 140 -158 15 0
-134 248 -178 296 l-19 21 228 7 c125 3 275 9 333 12 l105 6 103 -141 c99
-135 161 -201 190 -201 16 0 -11 40 -147 215 -76 99 -97 132 -86 138 8 4 157
12 333 18 l319 10 94 -93 c103 -102 233 -215 209 -183 -41 56 -111 138 -172
201 l-70 71 48 7 c26 3 79 6 118 6 39 0 163 7 275 15 l203 15 96 -91 c52 -49
108 -99 124 -111 l30 -20 -29 46 c-16 25 -57 77 -90 115 l-62 68 107 7 c122 8
312 33 321 42 3 4 -102 4 -234 0 l-241 -7 -123 136 c-67 75 -121 138 -119 139
1 2 77 9 168 15 212 14 254 25 293 74 26 32 31 45 31 100 1 66 -13 113 -49
162 -12 17 -24 35 -27 40 -4 7 36 9 114 6 291 -8 441 71 555 294 50 97 66 158
65 245 -1 130 -57 234 -171 320 -72 54 -88 51 -23 -6 101 -88 143 -174 143
-290 0 -86 -14 -146 -47 -196 -30 -47 -47 -50 -31 -5 7 18 12 83 12 147 0 99
-3 121 -22 156 -30 57 -115 137 -182 172 -107 57 -230 80 -249 46 -5 -9 -7
-71 -4 -137 5 -155 -14 -216 -92 -292 -65 -64 -120 -85 -340 -131 -200 -41
-257 -40 -278 4 -12 25 -19 27 -80 30 -65 3 -119 -12 -102 -27 5 -5 86 -34
179 -66 243 -83 385 -156 398 -205 5 -19 2 -21 -24 -15 -21 5 -29 3 -29 -8 0
-18 22 -37 93 -77 67 -37 97 -78 97 -133 0 -31 -5 -41 -32 -58 -30 -19 -44
-20 -151 -15 -115 5 -117 5 -96 -13 14 -11 19 -22 14 -31 -9 -15 -212 -9 -460
15 -298 28 -345 29 -391 6 -60 -30 -119 -41 -158 -30 -28 8 -41 5 -80 -17 -82
-46 -215 -40 -326 14 -44 21 -52 61 -21 103 21 28 21 29 2 29 -26 0 -81 47
-81 69 0 25 31 50 76 63 l38 10 -33 30 c-31 27 -39 30 -87 26 -46 -4 -52 -2
-44 11 11 20 49 56 75 69 32 16 218 5 293 -17 96 -29 229 -48 452 -65 107 -9
247 -25 310 -36 63 -11 135 -20 160 -20 l45 1 -28 15 c-27 15 -28 17 -12 34
16 18 15 19 -22 29 -127 33 -423 107 -506 127 -117 27 -131 36 -123 80 6 29 3
33 -23 42 -17 6 -44 7 -65 2 -33 -7 -37 -6 -43 18 -3 14 -1 38 5 54 l10 28
-53 0 c-39 0 -75 -9 -132 -34 -135 -58 -213 -78 -373 -91 -91 -8 -153 6 -186
42 -22 23 -24 35 -26 151 l-3 126 -46 -79 c-57 -98 -123 -172 -203 -229 -59
-42 -106 -64 -106 -51 0 4 19 32 43 63 94 123 114 176 152 388 32 178 55 243
133 376 85 144 99 191 84 287 -6 42 -27 128 -47 190 -62 199 -59 251 23 426
l47 100 -1 115 c0 82 -7 145 -24 220 -26 117 -31 275 -11 325 7 17 8 26 3 20
-23 -25 -42 -100 -42 -168 0 -39 10 -147 22 -239 26 -194 21 -244 -37 -357
-85 -171 -85 -243 1 -497 58 -170 44 -250 -72 -424 -67 -101 -95 -172 -114
-285 -42 -253 -184 -470 -410 -630 -117 -82 -169 -105 -240 -105 -64 0 -74 13
-18 24 56 10 136 84 207 189 70 103 86 163 101 382 12 162 41 339 72 428 11
34 40 100 63 147 90 181 106 280 76 469 -32 194 6 315 144 471 42 47 88 110
103 140 27 54 27 57 27 260 0 191 2 208 22 245 11 22 32 51 46 63 l25 24 104
-46 c85 -38 106 -52 115 -75 13 -34 8 -43 -34 -65 -69 -35 -60 -96 15 -96 54
0 112 -21 129 -47 21 -32 12 -123 -17 -163 -30 -42 -80 -78 -146 -105 -58 -24
-58 -33 0 -44 31 -7 31 -7 34 -78 3 -84 -8 -115 -78 -223 -84 -128 -89 -230
-25 -486 47 -188 46 -213 -10 -316 -102 -187 -164 -337 -82 -198 24 41 70 112
100 158 98 143 108 231 47 407 -23 68 -31 109 -32 165 -1 91 18 143 90 254 58
88 76 141 92 265 5 46 11 86 13 88 2 2 21 -34 43 -79 39 -82 39 -84 39 -204
l0 -122 -67 -98 c-80 -118 -95 -169 -78 -264 19 -107 26 -111 32 -19 6 85 29
151 73 204 l17 20 -7 -20 c-4 -11 -9 -63 -12 -115 -5 -87 -3 -101 21 -160 36
-89 41 -128 22 -191 -25 -87 -70 -145 -171 -220 -50 -37 -106 -84 -123 -104
-39 -43 -87 -137 -96 -185 l-6 -35 17 25 c115 159 178 220 291 278 86 45 136
93 165 158 l19 41 70 7 c110 10 195 32 453 116 361 118 457 139 627 140 188 0
266 -36 411 -193 69 -73 129 -126 187 -164 47 -31 110 -73 140 -93 30 -20 60
-39 66 -43 5 -3 -87 92 -205 212 -119 120 -236 229 -261 244 -96 55 -193 79
-345 85 -173 6 -255 -8 -485 -83 -91 -29 -176 -57 -189 -60 -50 -15 -333 -63
-349 -59 -9 1 -38 6 -64 9 -41 5 -48 10 -48 28 0 12 -16 67 -35 122 -40 113
-45 197 -20 294 46 182 32 457 -32 598 -12 28 -17 68 -17 149 l-1 111 -37 55
c-21 30 -38 66 -38 81 0 59 106 141 350 271 137 73 160 93 160 138 0 86 -95
147 -177 113 -37 -16 -38 -16 -60 10 -33 37 -31 57 4 44 99 -38 180 95 104
172 -52 52 -146 31 -172 -39 -10 -25 -10 -25 -37 19 -48 76 -47 72 -23 59 32
-16 87 4 106 39 28 55 -13 121 -76 121 -51 0 -82 -27 -83 -73 -1 -21 -1 -37
-1 -37 -1 0 -23 23 -50 50 -49 50 -49 50 -19 44 36 -7 70 18 80 58 7 33 -32
78 -69 78 -36 0 -70 -42 -65 -80 l5 -31 -44 43 -43 42 32 11 c37 11 78 66 78
102 0 28 -28 93 -40 93 -15 0 6 55 22 58 8 2 36 -13 61 -32 43 -33 48 -34 62
-19 23 22 37 62 30 84 -5 16 -17 19 -71 19 -59 0 -64 2 -64 22 0 12 19 44 41
71 42 49 42 49 22 69 -19 19 -90 41 -103 33 -4 -3 -10 -35 -13 -71 -4 -37 -11
-72 -16 -77 -9 -9 -35 3 -104 47 -25 17 -26 17 -40 -11 -8 -15 -17 -42 -20
-60 l-6 -32 67 -3 c65 -3 67 -4 70 -30 3 -23 -2 -30 -25 -38 -53 -20 -75 -34
-89 -62 -19 -36 -18 -88 2 -117 14 -19 14 -25 3 -32 -8 -5 -22 -9 -31 -9 -9 0
-25 -3 -35 -6 -15 -6 -16 -4 -5 7 13 14 16 67 4 85 -23 35 -76 39 -107 8 -20
-20 -19 -78 0 -94 19 -16 10 -26 -32 -35 -32 -6 -32 -6 -21 22 14 38 -6 82
-45 101 -87 42 -165 -73 -93 -135 16 -13 27 -25 25 -26 -8 -5 -80 -37 -83 -37
-1 0 -1 14 2 30 10 66 -39 120 -109 120 -45 0 -99 -56 -99 -103 0 -40 31 -84
69 -98 l26 -10 -25 -19 c-13 -10 -37 -20 -53 -23 -24 -3 -30 1 -41 28 -14 33
-72 65 -119 65 -57 0 -117 -69 -117 -135 0 -15 32 -81 72 -148 81 -137 142
-266 152 -316 4 -25 1 -43 -15 -67 -22 -37 -40 -41 -99 -24 -79 24 -333 7
-377 -25 -14 -11 -19 -34 -25 -112 -4 -54 -10 -115 -14 -136 -5 -31 -2 -45 15
-68 19 -26 21 -38 16 -97 -8 -87 3 -105 44 -74 17 12 38 22 48 22 27 0 61 -27
79 -61 l15 -30 29 30 c35 39 46 39 65 1 15 -29 16 -30 40 -14 41 27 55 13 43
-41 -5 -26 -7 -62 -4 -80 6 -32 8 -34 31 -23 14 6 28 8 31 5 26 -26 54 -242
36 -287 -9 -24 -9 -24 -65 29 -32 30 -57 60 -57 67 0 22 -20 27 -40 9 -25 -23
-55 -6 -64 37 l-7 33 -23 -27 c-13 -15 -27 -24 -30 -21 -3 4 -6 2 -6 -4 0 -6
26 -20 58 -31 69 -26 125 -70 163 -131 41 -65 36 -69 -23 -17 -28 25 -79 60
-112 77 -34 17 -76 43 -93 56 l-33 24 0 -36 c0 -45 11 -67 66 -127 50 -57 62
-89 53 -143 -3 -22 -7 -35 -8 -30 0 6 -37 10 -84 11 -68 0 -100 7 -187 38 -86
30 -127 38 -228 46 -235 18 -330 60 -388 171 -14 27 -13 29 5 29 11 0 42 -12
68 -26 39 -21 58 -25 100 -22 29 3 61 12 70 21 16 13 20 14 37 1 26 -19 55
-18 78 3 39 35 11 103 -43 103 -20 0 -31 7 -41 27 -20 42 -72 68 -116 57 -50
-13 -54 -34 -6 -34 47 0 74 -23 74 -65 0 -65 -74 -81 -119 -27 -19 23 -34 32
-56 32 -42 0 -131 25 -163 46 -15 10 -39 31 -54 47 -25 26 -31 28 -58 18 -53
-18 -143 -24 -188 -12 -73 20 -45 61 43 61 25 0 58 6 73 14 37 19 78 98 87
166 11 89 693 2982 751 3185 67 237 164 420 164 311z m-364 -833 c-3 -10 -157
-619 -341 -1353 -185 -734 -341 -1352 -346 -1373 -20 -77 -69 -96 -129 -52
-49 36 -112 35 -151 -4 -16 -16 -31 -25 -35 -20 -8 13 -48 11 -62 -3 -27 -27
6 -79 42 -65 8 3 18 -9 25 -29 20 -55 116 -92 169 -65 9 4 31 11 47 15 l30 7
-34 -27 c-18 -15 -40 -42 -47 -61 -12 -29 -12 -37 0 -61 8 -16 22 -34 30 -41
22 -18 20 -31 -4 -31 -34 0 -70 -44 -70 -85 0 -39 19 -83 44 -104 14 -12 11
-18 -24 -52 -35 -34 -40 -45 -40 -83 0 -54 33 -99 85 -116 39 -13 41 -17 20
-44 -8 -11 -15 -34 -15 -50 0 -34 33 -96 51 -96 7 0 9 -11 6 -29 -8 -39 19
-73 58 -73 30 0 55 24 55 54 0 9 13 24 29 33 48 24 71 62 71 116 0 26 -4 51
-10 54 -21 13 -9 24 37 33 68 15 95 0 195 -108 l86 -92 14 29 c11 23 20 29 55
31 53 4 166 -52 259 -127 l61 -50 43 15 c47 16 66 13 105 -17 l26 -21 -65 -61
c-53 -51 -67 -72 -80 -116 -9 -30 -16 -74 -16 -98 0 -28 -6 -49 -18 -61 -23
-23 -278 -149 -344 -169 -60 -19 -189 -21 -230 -5 -14 6 -38 31 -53 56 -33 56
-85 89 -149 96 l-49 5 -22 90 c-17 67 -47 139 -122 285 -54 107 -118 247 -141
310 -24 63 -46 121 -51 128 -7 11 -26 9 -102 -12 -52 -14 -97 -26 -100 -26 -4
0 -10 35 -14 78 -6 68 -13 87 -59 167 -107 184 -139 231 -168 248 l-30 17 6
-27 c9 -36 31 -79 95 -182 60 -99 73 -140 75 -240 l1 -74 -340 -63 c-187 -34
-340 -61 -341 -61 0 1 -18 47 -39 102 -67 176 -69 180 -165 242 -30 19 -75 56
-99 82 l-44 46 -9 -25 c-12 -32 -2 -83 20 -102 9 -8 45 -31 78 -51 53 -32 66
-46 97 -105 35 -66 75 -187 65 -197 -2 -3 -76 -21 -164 -40 -185 -41 -214 -51
-214 -75 0 -15 15 -14 158 16 86 19 236 45 332 59 96 14 261 41 365 60 185 34
479 75 533 75 26 0 37 -20 207 -365 l180 -366 -43 -20 c-35 -17 -92 -73 -92
-90 0 -3 17 -3 38 -1 33 3 39 0 55 -28 9 -17 17 -35 17 -40 0 -5 -24 -16 -52
-25 -118 -39 -161 -80 -183 -179 l-11 -51 -220 -57 c-120 -31 -268 -64 -329
-73 -60 -9 -167 -30 -237 -46 l-128 -30 -38 20 c-46 23 -113 94 -141 149 -11
22 -50 125 -85 229 -36 103 -110 292 -165 418 -55 127 -96 233 -93 237 13 12
217 56 337 73 66 9 233 38 370 65 306 60 461 87 542 96 37 4 68 13 75 22 11
13 5 14 -57 8 -123 -13 -327 -44 -445 -70 -122 -26 -182 -35 -400 -61 -108
-13 -483 -95 -497 -109 -2 -2 20 -52 48 -112 87 -185 135 -315 164 -439 81
-357 111 -432 197 -510 27 -24 69 -51 94 -61 43 -16 45 -19 41 -48 -3 -17 -11
-80 -18 -141 -13 -116 -13 -108 36 -430 9 -54 13 -113 10 -130 -15 -80 -48
-205 -54 -204 -19 1 -202 261 -306 434 -643 1067 -706 2404 -165 3522 404 837
1078 1478 1935 1843 110 47 439 159 468 160 13 0 17 -5 13 -17z m1623 -1207
c12 -25 11 -31 -6 -55 -26 -33 -65 -39 -92 -12 -25 25 -27 49 -5 79 24 35 84
28 103 -12z m-426 -97 c16 -26 1 -49 -32 -49 -21 0 -32 6 -36 20 -14 43 44 67
68 29z m-202 -71 c13 -25 3 -55 -22 -63 -28 -9 -66 2 -73 21 -22 57 66 96 95
42z m539 -39 c76 -35 146 -95 208 -181 71 -99 111 -175 114 -219 3 -28 -1 -33
-26 -40 -64 -18 -97 -83 -72 -142 8 -20 24 -41 36 -47 l22 -12 -20 -21 c-14
-14 -35 -20 -64 -21 -38 -1 -45 3 -66 36 -24 36 -24 36 -58 22 -84 -35 -167
-6 -180 64 -6 31 7 45 21 22 11 -17 88 -11 123 10 79 48 64 167 -25 207 -49
22 -49 23 -37 31 20 13 34 50 34 87 0 27 -8 44 -29 66 -67 66 -181 19 -181
-75 0 -23 -3 -24 -35 -19 -45 7 -118 -20 -139 -52 -39 -59 -6 -167 56 -183
l33 -8 -27 -27 c-40 -40 -90 -37 -134 7 -19 19 -34 44 -34 55 0 21 -1 21 -30
6 -46 -24 -102 -20 -130 9 -27 30 -21 56 15 56 15 0 40 14 61 33 45 41 56 99
28 146 -18 30 -18 31 7 57 38 41 190 113 294 140 79 20 182 17 235 -7z m354
-85 c23 -22 20 -43 -9 -56 -19 -8 -28 -8 -40 2 -20 17 -19 47 3 59 23 14 28
14 46 -5z m-1119 -65 c8 -15 15 -35 15 -44 0 -19 4 -19 42 1 78 41 158 -46 97
-107 -17 -17 -30 -20 -64 -16 -40 4 -44 2 -48 -21 -15 -79 73 -172 163 -172
16 0 32 5 35 10 9 15 35 12 35 -3 0 -33 81 -77 141 -77 36 0 87 44 110 95 28
61 25 73 -18 77 -25 2 -42 11 -56 29 -17 24 -18 30 -6 55 17 36 49 42 99 19
31 -14 42 -15 60 -5 20 11 22 17 17 63 -5 39 -3 55 10 69 31 35 93 13 93 -34
0 -11 -13 -33 -30 -48 -18 -17 -30 -38 -30 -53 0 -21 8 -28 48 -43 81 -30 98
-56 66 -102 -19 -28 -56 -28 -100 -1 l-33 20 -21 -40 c-11 -22 -20 -59 -20
-82 0 -79 98 -141 190 -120 39 9 45 7 87 -25 72 -55 149 -42 218 39 l34 40
-42 21 c-32 16 -43 28 -45 49 -8 71 84 93 143 34 l33 -33 26 23 c15 13 36 23
46 23 20 0 60 -44 60 -65 0 -7 -57 -48 -127 -91 -175 -106 -293 -187 -322
-218 -14 -14 -29 -26 -34 -26 -5 0 -89 33 -186 74 -163 69 -287 113 -516 183
l-89 28 -33 95 c-19 52 -55 131 -80 175 -97 166 -99 170 -84 199 15 27 55 46
84 38 10 -2 24 -17 32 -33z m1257 -116 c35 -31 12 -83 -37 -83 -28 0 -56 35
-48 59 14 40 55 52 85 24z m-930 -479 c46 -15 106 -35 135 -46 l52 -19 -25
-48 c-34 -65 -42 -138 -36 -317 5 -145 4 -153 -20 -205 -14 -30 -64 -103 -112
-164 -47 -60 -98 -134 -113 -163 -33 -68 -41 -166 -29 -372 11 -190 5 -224
-71 -403 -85 -201 -127 -365 -172 -675 -12 -76 -44 -166 -85 -237 -29 -49
-115 -101 -124 -75 -9 26 -77 88 -104 95 -19 5 -38 -1 -69 -21 -73 -46 -162
-84 -198 -84 -32 0 -33 1 -29 38 3 20 8 45 12 54 6 13 -28 4 -149 -38 -160
-55 -217 -64 -250 -40 -16 12 -26 11 -72 -5 -97 -33 -136 -34 -189 -5 -26 14
-52 26 -58 26 -7 0 -27 -16 -46 -35 -40 -41 -46 -43 -54 -12 -12 49 12 96 75
145 63 48 63 59 0 61 -32 1 -71 38 -71 68 0 27 5 27 -76 7 -36 -9 -68 -14 -71
-10 -4 3 2 18 13 33 14 18 43 34 88 49 37 12 77 31 90 43 12 11 33 21 46 21
23 0 22 2 -13 31 -53 43 -63 66 -41 90 9 10 28 19 41 19 30 0 107 -39 166 -84
136 -104 200 -102 450 11 73 32 120 47 164 51 l61 5 25 -39 c14 -22 55 -68 92
-104 l67 -65 -17 40 c-9 22 -36 74 -60 115 -69 118 -80 198 -41 282 9 19 54
76 101 127 46 50 90 108 97 127 6 18 15 34 19 34 3 0 14 -27 23 -59 12 -43 16
-96 15 -195 -1 -114 3 -146 21 -201 12 -36 22 -65 23 -65 1 0 2 48 3 107 1 60
4 154 9 210 l8 101 -43 126 c-38 113 -42 133 -38 194 5 73 28 130 92 230 19
29 37 73 41 98 5 34 10 43 18 35 8 -8 4 -40 -16 -124 -16 -62 -31 -138 -34
-169 -6 -61 11 -171 36 -231 16 -37 16 -36 13 77 -5 143 9 201 87 361 67 138
69 141 87 215 18 74 17 175 -2 268 -35 172 -66 202 -292 288 -130 49 -172 81
-172 128 1 48 20 66 73 66 50 0 114 20 85 27 -42 10 -21 56 27 56 28 0 31 7
13 25 -23 23 -78 14 -115 -18 -18 -16 -42 -30 -53 -30 -45 0 -78 92 -47 134
34 46 279 47 398 1 24 -9 39 -50 39 -106 l0 -50 23 26 c15 18 36 28 65 32 45
6 51 1 27 -24 -20 -19 -15 -35 13 -48 12 -5 22 -13 22 -17 0 -14 -68 -8 -84 7
-18 18 -30 4 -21 -25 9 -28 38 -33 114 -20 37 7 84 11 104 8 20 -2 37 -2 37 2
-1 11 -59 81 -84 101 -15 12 -25 23 -23 25 2 2 45 -6 95 -20 51 -13 92 -20 92
-15 0 16 -45 51 -90 72 -25 11 -75 22 -112 25 -55 4 -69 8 -74 24 -10 34 32
66 88 67 15 1 64 -11 110 -25z m-715 -410 c3 -10 -4 -26 -21 -42 l-26 -27 0
23 c0 48 33 81 47 46z m122 -55 c34 -12 37 -19 19 -37 -18 -18 -26 -15 -43 18
-18 34 -18 34 24 19z m259 -131 c2 -11 -8 -23 -27 -32 -39 -21 -52 -20 -44 2
17 47 64 67 71 30z m-1627 -68 c37 -20 17 -70 -28 -70 -32 0 -46 31 -27 58 17
25 27 27 55 12z m236 -163 c15 -13 37 -29 48 -35 20 -11 20 -11 -1 -12 -12 0
-49 -14 -83 -32 -52 -27 -64 -30 -86 -20 -34 16 -36 82 -2 105 34 24 91 21
124 -6z m178 -91 c13 -13 27 -40 30 -60 10 -49 41 -76 150 -132 93 -47 97 -48
220 -56 135 -8 246 -30 394 -79 66 -22 104 -30 132 -26 l39 5 -38 -43 c-46
-53 -72 -126 -72 -206 l0 -59 -47 0 c-27 0 -75 7 -108 15 -89 21 -112 19 -132
-11 -16 -26 -17 -26 -33 -8 -40 47 -76 69 -216 130 -253 110 -321 157 -408
283 -23 32 -31 57 -34 101 -4 53 -7 60 -32 70 -15 6 -39 8 -53 4 -16 -4 -27
-2 -27 4 0 17 51 52 74 52 11 0 35 9 51 20 40 27 81 25 110 -4z m-260 -117
c39 -10 51 -21 116 -101 l30 -37 -54 6 c-50 5 -55 3 -75 -22 -28 -35 -19 -53
55 -102 l57 -38 -43 -7 c-49 -8 -72 -23 -65 -43 7 -17 -26 -35 -66 -35 -41 0
-80 39 -80 81 0 36 31 85 60 94 27 9 25 22 -10 62 -40 45 -42 102 -4 132 31
24 27 24 79 10z m88 -466 c22 -38 16 -67 -18 -89 -21 -13 -28 -14 -52 -2 -40
19 -44 68 -8 104 32 32 54 28 78 -13z m4480 -697 c46 -19 113 -98 134 -159 24
-70 24 -196 0 -259 -22 -56 -93 -126 -167 -163 -111 -56 -273 -80 -376 -54
l-45 12 83 77 c170 158 206 228 215 425 4 70 10 123 17 127 18 13 105 9 139
-6z m-1850 -546 c61 -12 138 -44 202 -84 50 -32 41 -32 -63 -1 -46 13 -138 29
-206 35 -254 23 -448 -25 -636 -158 -62 -44 -67 -46 -125 -43 -136 8 -179 0
-241 -46 -34 -25 -93 -127 -81 -139 4 -4 35 20 69 53 100 95 193 117 247 59
49 -52 -8 -96 -121 -96 -35 0 -80 -5 -101 -11 -46 -13 -127 -87 -127 -117 0
-17 -6 -22 -25 -22 -19 0 -42 23 -106 103 -46 56 -119 139 -163 185 l-80 82
140 0 c77 0 194 7 259 16 81 11 161 14 247 11 123 -4 128 -4 160 20 38 29 163
92 229 117 25 10 79 23 120 31 90 16 324 19 402 5z m-1459 -375 c81 -96 149
-181 151 -188 4 -9 -71 -12 -342 -12 l-347 0 -128 174 c-71 96 -126 176 -124
179 3 2 128 8 278 12 150 3 294 7 320 8 l46 2 146 -175z m991 45 c-21 -41 -19
-96 7 -141 12 -22 24 -39 27 -39 4 0 12 14 19 30 16 36 45 54 72 45 19 -6 19
-7 0 -43 -25 -47 -25 -85 1 -142 l21 -45 14 33 c8 18 21 35 28 38 8 3 42 -7
77 -22 71 -29 184 -37 249 -16 47 15 264 36 294 28 14 -3 28 -15 31 -26 8 -25
25 -25 138 -1 71 15 104 17 175 10 48 -5 123 -8 167 -7 l80 1 122 -134 122
-134 -167 -7 c-92 -3 -236 -12 -320 -19 l-154 -12 -151 149 c-137 136 -159
149 -88 54 14 -19 61 -71 103 -116 43 -45 78 -84 78 -87 0 -7 -101 -16 -395
-32 l-260 -15 -20 28 c-11 15 -88 109 -172 209 -134 160 -150 182 -130 186 17
3 16 5 -7 6 -18 1 -49 18 -85 48 -94 78 -98 81 -68 43 15 -19 36 -47 47 -61
l19 -26 -237 -6 c-131 -4 -260 -10 -286 -13 -61 -9 -56 6 14 41 31 16 81 28
141 36 131 16 170 35 213 102 57 89 53 87 182 87 l115 0 -16 -30z m36 -412
c79 -94 156 -186 172 -204 l27 -33 -42 -5 c-24 -3 -169 -13 -322 -23 l-280
-16 -34 39 c-28 32 -228 292 -281 365 -13 18 -9 19 145 20 124 0 362 15 460
28 7 0 77 -76 155 -171z m-815 110 c74 -79 289 -376 279 -386 -6 -6 -691 -20
-710 -15 -6 2 -22 23 -38 47 -15 24 -79 118 -141 209 l-114 166 72 4 c39 1
195 4 347 5 l275 2 30 -32z m-1091 -474 c-11 -8 -45 -23 -75 -32 -46 -14 -89
-17 -265 -14 -115 2 -277 -2 -360 -8 -82 -5 -253 -12 -380 -14 -126 -2 -267
-10 -313 -16 -81 -12 -84 -12 -108 11 -13 12 -24 26 -24 29 0 17 236 32 644
40 242 6 442 12 444 15 3 3 107 5 231 5 204 -1 224 -2 206 -16z m-173 -110
c19 -6 20 -7 43 -117 12 -57 26 -89 51 -123 20 -25 34 -47 32 -49 -2 -1 -154
-7 -338 -12 l-335 -10 -33 36 c-52 58 -72 109 -72 183 l0 65 113 17 c61 9 128
18 147 20 43 5 369 -4 392 -10z"/>
<path d="M5010 8460 c21 -26 60 -115 112 -253 45 -117 84 -216 88 -220 4 -5
63 79 131 185 68 106 143 214 166 239 l43 46 -61 7 c-34 3 -73 6 -87 6 l-25 0
20 -22 c11 -13 23 -28 27 -35 8 -15 -154 -267 -165 -256 -15 16 -89 218 -89
245 0 17 10 35 30 51 l30 26 -53 5 c-28 3 -85 8 -125 11 l-74 5 32 -40z"/>
<path d="M4470 8460 c-58 -10 -107 -19 -109 -19 -2 -1 13 -16 34 -34 l38 -33
18 -165 c10 -90 18 -172 18 -181 1 -9 -15 -33 -34 -53 l-34 -37 32 5 c18 3 64
9 102 12 39 3 83 9 98 12 l29 5 -30 19 c-45 26 -60 56 -64 124 l-3 60 34 3
c31 3 42 -4 120 -82 47 -47 99 -90 114 -95 32 -12 167 -15 167 -3 0 4 -21 19
-48 34 -26 15 -82 63 -126 106 l-79 80 29 15 c47 24 67 53 72 105 4 44 1 52
-28 85 -18 21 -47 41 -68 47 -53 14 -161 10 -282 -10z m200 -26 c99 -40 94
-187 -8 -213 -103 -26 -99 -27 -105 26 -20 161 -20 191 -1 196 38 10 75 7 114
-9z"/>
<path d="M5699 8412 c20 -37 12 -86 -35 -212 -61 -168 -71 -187 -112 -215
l-34 -23 69 -21 c39 -12 72 -21 75 -21 3 0 -1 20 -10 45 -14 45 -14 45 38 190
29 80 56 145 60 145 4 0 20 -96 36 -212 19 -141 33 -213 41 -213 6 0 73 72
149 160 136 159 161 184 150 149 -3 -11 -19 -80 -37 -154 -34 -149 -47 -176
-90 -194 -28 -12 -27 -13 68 -40 54 -16 104 -31 110 -33 10 -4 9 4 -2 31 -8
19 -15 46 -15 59 0 28 68 326 79 345 4 7 20 22 36 32 l28 18 -70 21 c-39 12
-74 21 -80 21 -7 0 -182 -195 -230 -258 -7 -8 -16 -13 -19 -9 -3 3 -17 86 -31
185 l-26 180 -61 17 c-34 10 -69 20 -80 23 -16 4 -17 2 -7 -16z"/>
<path d="M6537 8079 c-96 -23 -160 -81 -192 -174 -44 -131 42 -278 198 -337
l62 -24 27 -109 c26 -105 29 -111 79 -159 29 -29 48 -42 44 -31 -21 53 -54
177 -62 232 l-10 63 54 15 c65 19 132 77 163 139 28 58 27 151 -1 211 -56 119
-235 205 -362 174z m156 -40 c50 -14 103 -61 118 -106 15 -47 6 -138 -19 -195
-22 -50 -87 -128 -107 -128 -7 0 -15 19 -19 43 -10 63 -44 159 -67 187 -17 21
-20 22 -15 5 2 -11 7 -76 11 -143 l7 -124 -24 7 c-71 22 -123 73 -134 131 -24
128 59 293 163 324 38 11 43 11 86 -1z"/>
<path d="M7090 7762 c0 -33 -22 -120 -71 -272 -38 -122 -68 -224 -66 -226 2
-3 109 32 238 76 166 57 248 80 282 80 l48 0 -62 58 c-76 70 -82 73 -74 31 3
-19 2 -39 -2 -45 -9 -13 -283 -117 -290 -110 -2 2 14 63 37 135 43 139 52 151
111 151 39 0 37 3 -72 101 l-79 71 0 -50z"/>
<path d="M7570 7339 c0 -17 -4 -39 -10 -49 -5 -10 -72 -67 -147 -125 -130
-101 -140 -106 -174 -101 -21 3 -46 9 -56 13 -17 6 -17 5 -2 -13 9 -10 71 -91
139 -179 68 -88 127 -164 131 -169 4 -4 29 7 56 25 45 32 46 34 23 37 -64 8
-92 25 -146 90 -30 36 -54 73 -54 82 0 9 31 40 70 69 l70 53 20 -23 c47 -57
71 -99 78 -137 l7 -41 48 36 c48 36 59 53 32 53 -31 0 -66 26 -110 80 l-45 58
75 58 c42 31 77 55 79 53 2 -2 29 -38 61 -79 53 -69 57 -78 52 -117 l-5 -43
40 31 c26 21 36 35 30 43 -5 6 -64 82 -131 169 -68 86 -125 157 -127 157 -2 0
-4 -14 -4 -31z"/>
<path d="M8041 6529 c-21 -20 -22 -29 -4 -76 4 -9 -5 -13 -25 -13 -39 0 -82
-35 -82 -66 0 -28 41 -74 65 -74 8 0 15 -6 15 -14 0 -24 -28 -39 -60 -32 -17
3 -30 2 -30 -3 0 -17 -33 -21 -68 -10 l-35 12 29 14 c38 20 54 41 54 72 -1 48
-53 86 -99 74 -19 -5 -20 -3 -12 19 30 80 -95 123 -135 47 -15 -30 -15 -33 5
-60 l22 -29 -26 0 c-35 0 -75 -42 -75 -78 0 -34 36 -72 68 -72 26 0 28 -12 7
-30 -13 -10 -23 -10 -55 3 -22 8 -40 11 -40 6 0 -14 -47 -32 -65 -25 -15 5
-14 9 4 32 53 67 -8 163 -85 134 -34 -13 -33 -14 -32 20 2 67 -60 81 -117 28
l-34 -33 61 -75 c33 -41 94 -122 135 -180 87 -123 96 -128 248 -129 154 -1
301 28 366 72 30 21 34 30 65 172 29 130 49 197 78 266 5 13 -3 20 -34 33 -54
21 -82 20 -109 -5z m86 -30 c9 -9 9 -18 -1 -38 -18 -34 -34 -92 -61 -221 -21
-99 -23 -105 -46 -102 -13 1 -73 2 -134 3 -135 1 -251 -21 -357 -65 -13 -6
-37 20 -109 116 -50 68 -103 135 -117 150 -21 23 -23 30 -12 43 7 9 23 15 34
13 17 -2 22 -11 24 -45 3 -46 15 -53 65 -34 52 20 89 -40 47 -76 -27 -24 -25
-39 9 -74 35 -34 63 -37 90 -8 16 18 22 19 42 9 28 -16 94 2 109 30 13 24 13
56 0 81 -9 15 -14 17 -29 7 -21 -13 -49 -5 -57 17 -8 19 13 45 35 45 9 0 27 7
39 16 21 15 22 16 6 44 -21 35 -12 60 21 60 25 0 26 -2 23 -47 l-3 -48 44 0
c75 0 94 -65 20 -69 -29 -1 -34 -6 -37 -28 -9 -76 85 -118 160 -72 7 4 29 7
49 5 45 -3 69 25 69 81 0 31 -4 38 -19 38 -19 0 -51 24 -51 38 1 20 20 33 53
35 48 4 52 10 37 47 -10 24 -10 33 0 45 15 18 42 19 57 4z m-204 -408 c13 -13
-29 -38 -88 -51 -65 -15 -234 -17 -259 -3 -18 10 -18 11 5 26 21 14 72 25 184
41 43 6 148 -3 158 -13z"/>
<path d="M7019 6379 c-19 -19 -19 -29 -2 -76 3 -8 -4 -13 -20 -13 -40 0 -77
-21 -84 -47 -8 -35 13 -73 47 -86 17 -6 30 -17 30 -24 0 -19 -36 -34 -64 -27
-13 3 -27 1 -30 -5 -8 -12 -55 -15 -80 -5 -22 9 -20 24 3 24 25 0 61 46 61 77
0 13 -12 35 -26 50 -20 20 -32 24 -57 20 -32 -5 -32 -5 -29 33 3 30 -1 41 -19
54 -70 49 -159 -23 -108 -87 l20 -27 -29 0 c-37 0 -72 -37 -72 -76 0 -36 36
-74 68 -74 26 0 29 -15 6 -28 -18 -10 -51 -5 -72 11 -9 7 -19 4 -35 -12 -42
-38 -85 -20 -48 21 22 23 27 68 11 97 -15 29 -64 45 -99 33 -30 -11 -30 -10
-33 31 -3 35 -7 42 -30 48 -31 8 -74 -11 -99 -43 -16 -20 -14 -25 60 -118 42
-53 101 -133 131 -178 50 -75 59 -83 104 -97 92 -28 287 -15 433 30 85 26 89
32 129 205 20 85 46 183 59 217 l22 62 -39 15 c-52 21 -84 20 -109 -5z m86
-29 c4 -6 -3 -38 -14 -73 -11 -34 -32 -113 -45 -175 -13 -63 -26 -115 -28
-117 -1 -1 -34 2 -73 8 -113 16 -338 -15 -417 -58 -14 -8 -29 -15 -32 -15 -3
0 -47 55 -97 123 -51 67 -103 134 -116 148 -30 33 -22 61 16 57 23 -3 26 -8
29 -45 3 -35 7 -43 23 -43 11 0 29 5 39 10 12 7 28 7 44 0 32 -12 35 -49 6
-75 -26 -23 -25 -33 3 -69 26 -33 67 -38 96 -12 13 12 24 14 42 8 53 -20 119
21 119 73 0 34 -23 64 -35 45 -9 -15 -41 -12 -55 5 -14 17 -4 55 15 55 45 0
85 47 55 65 -15 10 -12 52 5 59 33 12 47 -5 40 -50 -5 -37 -3 -43 14 -49 12
-3 26 -3 31 0 6 4 22 4 36 1 19 -5 24 -13 24 -36 0 -26 -3 -29 -37 -32 -35 -3
-38 -6 -41 -35 -5 -48 33 -83 91 -83 26 0 49 6 56 14 8 9 24 12 50 9 32 -4 41
-1 59 22 27 34 30 95 5 95 -20 0 -53 28 -53 46 0 18 32 34 69 34 33 0 37 9 20
41 -15 29 -2 59 26 59 13 0 27 -5 30 -10z m-219 -400 c25 -10 26 -12 12 -26
-39 -39 -300 -62 -344 -30 -18 14 -18 15 11 26 87 33 268 50 321 30z"/>
<path d="M5576 5992 c-3 -6 7 -21 22 -34 43 -36 45 -45 21 -84 l-22 -36 21 11
c40 21 65 95 44 129 -11 16 -77 27 -86 14z"/>
<path d="M4070 5880 c0 -10 15 -46 33 -81 23 -45 46 -73 81 -98 66 -47 120
-51 246 -17 129 35 169 34 258 -9 l73 -35 -33 46 c-83 115 -126 135 -327 145
-161 8 -231 20 -293 49 -37 18 -38 18 -38 0z m133 -91 c27 -7 91 -8 187 -4
137 7 149 6 198 -15 75 -32 86 -51 20 -33 -43 11 -69 12 -133 2 -44 -6 -101
-13 -126 -16 -68 -8 -139 19 -196 74 -27 24 -35 35 -19 24 16 -12 47 -26 69
-32z"/>
<path d="M7615 5830 c-17 -18 -17 -32 0 -72 6 -15 2 -18 -27 -18 -47 0 -78
-24 -78 -61 0 -32 38 -79 65 -79 22 0 19 -27 -5 -40 -11 -6 -30 -8 -44 -4 -13
3 -27 1 -30 -5 -8 -12 -55 -15 -80 -5 -22 9 -20 24 3 24 11 0 29 12 41 27 41
53 0 129 -66 121 -31 -4 -31 -3 -27 33 5 32 2 39 -21 54 -39 26 -76 22 -103
-9 -29 -34 -29 -53 -1 -83 l21 -23 -31 0 c-69 0 -99 -87 -46 -129 15 -12 35
-21 45 -21 11 0 19 -4 19 -9 0 -21 -68 -29 -87 -10 -9 9 -19 6 -39 -10 -48
-38 -80 -20 -45 25 12 15 21 40 21 55 0 53 -66 93 -116 70 -23 -10 -24 -9 -24
22 0 39 -8 52 -37 61 -26 8 -75 -15 -96 -45 -14 -20 -10 -28 73 -135 49 -63
108 -144 132 -179 38 -59 48 -67 92 -80 120 -36 427 5 508 68 11 7 31 76 57
185 22 95 49 192 59 216 l20 43 -34 17 c-47 22 -97 21 -119 -4z m90 -29 c3 -6
-4 -37 -15 -71 -11 -34 -32 -114 -46 -178 -14 -64 -26 -117 -27 -118 -1 -1
-30 3 -65 9 -109 19 -353 -16 -439 -61 -21 -12 -29 -4 -130 129 -59 78 -112
148 -118 156 -15 21 21 46 46 32 14 -7 19 -21 19 -51 0 -44 -7 -42 73 -22 26
6 57 -17 57 -42 0 -8 -9 -23 -20 -34 -25 -25 -25 -41 1 -74 23 -29 78 -36 98
-12 8 9 26 12 60 8 43 -4 53 -1 75 21 28 28 33 56 16 87 -9 16 -14 18 -35 8
-19 -8 -28 -8 -40 2 -28 23 -14 52 33 68 45 15 52 32 27 65 -23 31 4 64 40 50
13 -4 14 -15 9 -49 -7 -47 -9 -45 55 -48 60 -2 72 -66 12 -66 -37 0 -52 -23
-39 -61 18 -53 98 -78 143 -45 11 8 33 12 54 9 45 -6 70 19 78 76 5 36 3 41
-14 41 -11 0 -28 9 -39 21 -26 29 -8 53 45 57 44 3 47 8 30 46 -7 14 -9 32 -6
40 7 17 52 22 62 7z m-227 -397 c34 -10 23 -35 -23 -52 -60 -21 -274 -28 -299
-9 -19 14 -19 15 4 27 52 28 258 50 318 34z"/>
<path d="M5185 5074 c-1 -203 -7 -226 -125 -444 -105 -194 -130 -271 -129
-392 l1 -93 13 65 c27 133 98 295 182 418 57 84 76 128 93 215 15 81 8 217
-18 327 l-17 73 0 -169z"/>
<path d="M6865 4684 c-337 -49 -506 -136 -634 -329 -221 -331 -241 -496 -50
-414 27 12 46 25 43 30 -3 5 -30 9 -60 9 -30 0 -54 4 -54 9 0 5 20 27 44 49
39 36 95 62 135 62 11 0 10 5 -4 20 -17 19 -18 26 -7 68 20 79 107 243 153
290 96 96 314 166 524 166 l121 1 114 -57 c63 -31 131 -66 150 -78 33 -20 32
-19 -10 20 -61 58 -136 107 -201 131 -53 21 -196 33 -264 23z"/>
<path d="M5102 4302 c-16 -52 -73 -162 -144 -278 -66 -106 -123 -267 -83 -234
24 20 141 182 162 225 37 73 91 286 81 316 -2 6 -9 -6 -16 -29z"/>
<path d="M3047 3612 c-23 -25 -21 -70 3 -127 l20 -47 -21 -35 c-26 -42 -22
-97 10 -142 l22 -30 -21 -40 c-25 -49 -25 -65 -1 -118 17 -36 17 -44 5 -60
-20 -26 -17 -83 6 -128 25 -48 25 -52 0 -97 -21 -40 -13 -56 19 -38 53 28 64
85 30 151 -16 32 -19 50 -13 82 10 52 8 62 -18 113 l-21 41 23 55 c22 54 22
57 6 100 -17 45 -17 45 8 83 34 50 33 83 -5 144 -23 36 -30 58 -27 81 5 34 -2
38 -25 12z"/>
<path d="M2756 3568 c-20 -29 -20 -51 1 -95 14 -30 15 -40 3 -67 -24 -58 -24
-93 1 -132 22 -36 22 -37 4 -70 -22 -41 -22 -90 -1 -113 20 -22 20 -55 1 -71
-21 -17 -19 -63 5 -110 l20 -39 -25 -29 c-32 -39 -42 -84 -21 -101 19 -16 36
-6 36 20 0 11 11 35 25 53 28 37 32 83 10 112 -19 25 -19 45 0 80 20 39 19 58
-7 104 -21 35 -21 42 -10 88 8 30 10 69 6 100 -5 37 -2 62 10 93 18 45 15 65
-20 116 -18 27 -21 40 -14 59 12 31 -3 32 -24 2z"/>
<path d="M2467 3563 c-12 -11 -8 -63 8 -92 13 -26 13 -30 -5 -46 -28 -25 -25
-64 7 -98 l28 -28 -23 -39 c-26 -47 -28 -72 -5 -111 16 -27 16 -31 0 -64 -21
-44 -22 -94 -2 -101 21 -8 19 -33 -5 -69 -25 -38 -25 -60 0 -92 27 -35 25 -50
-11 -84 -29 -27 -34 -59 -11 -59 19 0 65 45 78 76 14 34 10 57 -18 96 -10 14
-9 23 5 47 21 36 22 73 2 111 -14 27 -14 33 0 60 19 37 19 81 0 106 -19 25
-19 48 1 85 13 26 13 36 2 77 -10 33 -11 55 -4 74 8 22 5 37 -13 73 -13 27
-20 53 -16 65 6 19 -5 27 -18 13z"/>
<path d="M3379 3513 c-8 -21 -8 -36 1 -58 21 -53 22 -73 6 -97 -22 -30 -20
-78 4 -108 25 -32 25 -46 0 -77 -25 -32 -25 -74 -1 -114 20 -32 20 -33 0 -60
-26 -37 -24 -72 7 -119 31 -46 28 -89 -8 -127 -27 -29 -14 -30 28 -1 60 41 70
98 27 155 -25 32 -26 37 -14 66 24 59 24 75 0 108 l-22 32 26 47 c32 57 33 75
8 115 -18 29 -18 31 2 59 29 41 27 86 -6 125 -15 18 -27 43 -27 57 0 32 -18
30 -31 -3z"/>
<path d="M4078 1965 c-54 -16 -98 -33 -98 -37 0 -4 6 -6 13 -4 6 3 27 7 45 10
l32 6 0 -175 0 -175 -32 -20 -33 -20 120 0 120 0 -32 20 -33 19 -2 203 -3 203
-97 -30z"/>
<path d="M4720 1986 c-167 -37 -272 -170 -246 -310 34 -183 366 -177 366 7 0
96 -88 154 -190 127 -49 -13 -53 -11 -45 23 12 45 75 108 139 138 66 31 61 34
-24 15z m-11 -222 c16 -21 21 -41 21 -89 0 -74 -24 -115 -69 -115 -49 0 -73
39 -79 125 l-5 75 34 15 c50 21 75 18 98 -11z"/>
<path d="M5330 1986 c-108 -24 -184 -78 -224 -158 -50 -99 -27 -211 54 -261
52 -32 170 -32 223 1 44 28 67 67 67 116 0 100 -88 150 -213 122 l-37 -8 17
39 c32 71 79 115 158 146 47 19 31 20 -45 3z m-19 -215 c21 -17 24 -27 24 -94
0 -83 -18 -117 -62 -117 -58 0 -83 42 -83 140 0 59 8 74 45 83 38 9 53 7 76
-12z"/>
<path d="M5942 1989 c-200 -34 -326 -245 -225 -377 51 -67 165 -91 248 -53 71
32 99 87 84 161 -15 69 -103 111 -187 90 -24 -6 -47 -9 -49 -6 -9 9 35 92 64
119 17 15 57 39 89 52 63 26 60 28 -24 14z m-23 -225 c30 -38 30 -155 1 -184
-48 -48 -113 -10 -126 76 -10 68 2 111 34 122 46 17 69 13 91 -14z"/>
<path d="M3380 8104 c-124 -58 -226 -107 -226 -107 -1 -1 8 -27 19 -57 l21
-54 7 33 c10 49 39 82 97 114 l52 28 71 -148 c39 -81 79 -169 91 -195 l20 -46
-20 -45 -20 -45 116 54 c64 30 118 56 119 58 2 2 -14 6 -35 9 -21 4 -47 17
-59 29 -20 22 -187 368 -181 374 2 1 25 12 52 23 57 25 84 26 133 6 19 -8 37
-15 40 -15 2 0 -10 20 -27 45 -17 25 -34 45 -38 45 -4 0 -108 -48 -232 -106z"/>
<path d="M2996 7868 l-66 -53 40 -9 c22 -5 42 -16 44 -25 4 -13 46 -275 46
-288 0 -7 -239 117 -245 127 -4 6 -7 31 -7 55 l0 44 -97 -77 -98 -77 46 -7
c29 -4 127 -48 264 -118 193 -99 217 -109 212 -88 -22 93 -76 473 -73 516 2
28 3 52 2 52 0 0 -31 -24 -68 -52z"/>
<path d="M2316 7183 c-65 -19 -150 -105 -237 -238 -100 -152 -97 -143 -39
-137 48 4 50 4 195 -98 138 -97 146 -104 156 -146 l11 -44 56 77 c138 194 172
262 172 351 0 115 -82 217 -193 242 -59 12 -60 12 -121 -7z m118 -114 c82 -41
136 -119 136 -196 -1 -67 -65 -183 -101 -183 -17 0 -181 109 -327 217 l-32 24
29 42 c86 124 179 154 295 96z"/>
<path d="M2291 6404 c-23 -10 -113 -19 -293 -29 -143 -7 -261 -15 -263 -17 -3
-2 75 -87 172 -188 121 -127 183 -199 197 -231 l21 -47 36 88 37 88 -32 -19
c-43 -26 -57 -24 -96 16 -38 39 -38 40 16 163 l23 52 50 0 c40 0 53 -4 65 -22
9 -12 16 -31 16 -42 0 -12 3 -16 9 -10 7 7 52 109 88 202 6 15 -3 14 -46 -4z
m-221 -139 c0 -3 -12 -34 -26 -71 l-27 -66 -64 64 -64 63 38 6 c49 8 143 11
143 4z"/>
<path d="M2851 4882 c-14 -26 -2 -70 26 -92 20 -16 24 -25 18 -49 -9 -44 1
-66 41 -87 34 -19 35 -20 29 -67 -7 -45 -5 -49 28 -80 32 -29 35 -36 30 -77
-4 -41 -2 -48 31 -79 33 -32 34 -36 29 -83 -5 -45 -3 -52 24 -81 17 -18 36
-42 42 -55 16 -30 31 -19 31 24 0 28 -7 42 -34 66 -33 29 -34 33 -29 79 6 47
4 50 -32 83 -36 33 -37 37 -32 83 5 45 3 49 -35 84 -39 35 -41 39 -34 79 6 39
4 44 -28 73 -27 25 -33 38 -29 58 4 20 -3 34 -25 57 -22 22 -28 37 -25 56 6
30 -11 35 -26 8z"/>
<path d="M2550 4841 c-17 -32 -12 -58 15 -75 22 -14 24 -22 19 -55 -6 -39 1
-50 60 -86 14 -9 14 -15 4 -49 -12 -38 -12 -39 26 -71 33 -28 37 -35 27 -53
-15 -28 -5 -51 37 -89 33 -29 35 -35 33 -83 -2 -56 13 -84 56 -101 20 -7 21
-12 12 -36 -14 -38 -4 -68 30 -93 25 -17 29 -25 24 -54 -7 -44 10 -73 54 -91
20 -8 38 -14 40 -11 2 2 -8 17 -22 35 -17 19 -26 41 -25 58 4 57 -1 74 -26 95
-21 19 -24 28 -19 60 9 51 0 74 -35 88 -29 12 -30 15 -30 72 0 51 -4 62 -26
83 -15 14 -32 25 -39 25 -9 0 -11 13 -7 45 4 40 2 47 -28 75 -26 24 -31 35
-26 56 10 40 -2 63 -45 84 -33 18 -38 24 -33 45 9 36 -3 61 -36 75 -31 13 -39
37 -18 58 9 9 9 12 0 12 -6 0 -16 -9 -22 -19z"/>
<path d="M2230 4781 c-16 -32 -12 -49 20 -73 26 -19 29 -26 24 -55 -7 -38 13
-68 55 -84 16 -7 21 -14 16 -27 -20 -53 -17 -69 19 -99 32 -26 35 -33 28 -54
-12 -33 -6 -48 39 -90 34 -32 38 -40 32 -72 -9 -57 3 -86 42 -103 32 -13 34
-16 24 -41 -14 -38 -4 -69 31 -95 23 -16 28 -27 24 -45 -13 -51 13 -90 75
-108 l24 -7 -26 34 c-21 27 -26 45 -25 83 0 41 -4 52 -26 71 -23 20 -25 28
-20 68 7 50 -4 72 -43 87 -20 8 -23 15 -23 68 0 54 -3 62 -31 85 -17 14 -34
26 -39 26 -4 0 -5 20 -2 45 4 40 2 47 -28 75 -26 24 -31 35 -26 56 10 39 -2
62 -43 83 -34 18 -37 23 -33 54 4 34 -8 49 -63 82 -15 9 -16 15 -6 33 7 13 8
22 2 22 -6 0 -15 -9 -21 -19z"/>
<path d="M1966 4734 c-14 -35 -5 -67 26 -96 29 -27 31 -32 20 -60 -14 -39 0
-71 44 -98 32 -18 33 -21 28 -64 -6 -41 -4 -47 29 -80 33 -32 35 -38 26 -65
-12 -35 0 -65 39 -98 22 -19 25 -29 23 -73 -2 -45 2 -55 33 -92 20 -23 36 -47
36 -54 0 -7 11 -26 25 -42 19 -23 23 -36 18 -65 -5 -32 -2 -40 27 -67 33 -31
70 -40 70 -17 0 7 -13 26 -29 41 -20 19 -27 34 -24 50 7 32 -13 64 -42 72 -22
5 -24 10 -18 49 5 40 3 44 -31 71 -34 27 -36 32 -30 70 7 47 -5 75 -44 109
-22 19 -25 29 -23 78 1 51 -1 58 -26 74 -39 25 -43 32 -43 89 0 44 -4 53 -30
72 -24 18 -30 30 -30 62 0 27 -8 48 -26 69 -19 23 -24 38 -20 56 7 28 -17 36
-28 9z"/>
<path d="M5292 6538 c-29 -29 -2 -72 40 -66 42 6 32 78 -11 78 -9 0 -22 -5
-29 -12z"/>
<path d="M4590 6167 c0 -3 24 -13 54 -21 30 -9 76 -32 101 -52 l47 -35 -22 39
c-12 22 -34 45 -49 52 -28 13 -131 26 -131 17z"/>
<path d="M4551 6106 c2 -1 30 -15 61 -29 41 -18 55 -21 51 -11 -7 20 -56 44
-89 44 -15 0 -25 -2 -23 -4z"/>
<path d="M4856 5089 c-20 -73 -24 -103 -36 -259 -10 -120 -21 -194 -45 -295
-11 -43 8 -20 28 35 32 90 38 128 47 295 6 94 14 193 19 220 13 68 6 69 -13 4z"/>
<path d="M4455 4450 c-46 -88 -36 -197 31 -342 24 -54 53 -134 64 -179 10 -45
22 -84 25 -87 3 -3 5 35 5 84 -1 92 -3 99 -64 247 -44 104 -59 183 -47 255 4
28 7 52 5 52 -2 0 -10 -14 -19 -30z"/>
<path d="M4920 9569 c-19 -6 -39 -14 -44 -19 -5 -5 6 -38 28 -80 20 -38 33
-70 29 -70 -4 1 -37 18 -72 40 -36 21 -69 36 -74 33 -18 -11 -37 -74 -37 -124
l0 -52 53 7 c28 4 68 9 87 12 l35 5 -68 -63 -68 -63 28 -26 c31 -30 74 -53
115 -63 26 -6 26 -5 38 67 20 119 22 120 60 28 19 -44 36 -81 39 -81 32 0 131
95 131 125 0 6 -35 28 -77 50 l-78 40 88 9 87 9 0 31 c0 35 -39 115 -64 131
-12 8 -28 -2 -76 -50 -33 -33 -60 -54 -60 -47 0 7 7 42 16 78 9 36 14 67 11
71 -11 11 -92 12 -127 2z"/>
<path d="M5875 9510 c-78 -12 -115 -53 -115 -128 0 -47 28 -86 122 -171 76
-70 92 -102 73 -149 -10 -23 -24 -34 -53 -42 -53 -16 -89 3 -149 80 -25 33
-48 60 -50 60 -1 0 -3 -32 -3 -71 0 -64 2 -70 18 -65 11 4 44 -5 75 -19 82
-38 142 -42 197 -13 76 39 103 123 64 200 -9 18 -57 71 -105 118 -94 91 -108
120 -71 153 44 40 117 10 178 -72 21 -28 39 -49 40 -48 1 1 3 29 5 62 1 39 -2
59 -9 58 -6 -2 -30 6 -54 17 -61 27 -116 37 -163 30z"/>
<path d="M3423 9318 l-232 -80 20 -28 c20 -26 21 -39 17 -241 -3 -194 -5 -218
-25 -261 l-21 -47 79 30 c44 16 83 29 87 29 4 0 -8 9 -25 20 -39 23 -47 49
-36 114 l8 49 99 29 99 30 26 -34 c14 -18 40 -48 57 -67 l31 -34 204 78 c112
42 208 81 214 86 6 6 -5 23 -28 47 -36 36 -37 36 -37 12 0 -14 -4 -30 -8 -37
-7 -11 -230 -103 -250 -103 -10 0 -132 133 -132 143 0 3 37 19 83 37 64 25 94
31 138 28 l57 -3 -51 58 -50 58 -12 -28 c-7 -15 -19 -34 -27 -40 -15 -13 -154
-73 -168 -73 -7 0 -140 155 -140 164 0 2 50 21 111 41 90 30 121 36 165 33
l55 -5 -38 39 c-20 21 -37 38 -38 37 0 0 -104 -36 -232 -81z m-38 -233 c43
-53 76 -97 74 -99 -10 -8 -135 -46 -152 -46 -13 0 -17 5 -13 16 3 9 6 63 6
120 0 57 2 104 4 104 2 0 39 -43 81 -95z"/>
<path d="M6395 9362 c31 -73 31 -66 -19 -220 -63 -192 -72 -209 -115 -232 -26
-13 -32 -20 -21 -24 8 -3 61 -21 117 -40 l102 -34 -20 31 c-10 18 -19 43 -19
57 0 14 23 95 51 180 39 120 57 161 80 183 16 15 36 27 44 27 40 0 5 19 -96
52 -91 30 -109 34 -104 20z"/>
<path d="M6871 9129 c-135 -41 -216 -190 -176 -324 35 -123 168 -213 350 -239
l41 -6 32 66 c26 53 39 68 70 81 l37 15 -105 53 c-58 29 -106 52 -107 51 -1
-1 7 -21 18 -43 l20 -41 -31 -61 c-34 -69 -47 -73 -116 -42 -88 40 -131 148
-100 253 51 177 222 247 345 141 42 -35 61 -80 61 -140 0 -53 18 -47 50 16 34
69 36 81 14 81 -9 0 -41 20 -72 44 -110 86 -239 123 -331 95z"/>
<path d="M2787 9036 l-68 -43 43 -11 c25 -6 51 -19 59 -29 22 -25 142 -224
137 -227 -1 -2 -109 25 -238 60 l-235 63 -70 -42 -70 -42 38 -5 c36 -5 40 -10
139 -170 99 -163 110 -189 95 -242 -7 -26 -6 -26 69 20 l75 46 -45 13 c-28 8
-52 24 -64 41 -35 50 -164 264 -160 266 1 2 127 -30 278 -70 212 -57 280 -72
297 -64 21 9 18 16 -99 206 -120 195 -121 198 -111 236 6 21 7 38 4 38 -3 0
-37 -20 -74 -44z"/>
<path d="M7546 8782 c6 -47 5 -48 -98 -197 -99 -143 -106 -151 -152 -166 l-48
-16 48 -33 c27 -18 71 -49 98 -68 l48 -35 -6 49 -7 49 106 153 c103 147 108
152 152 164 l46 11 -29 21 c-15 12 -59 42 -96 68 l-67 48 5 -48z"/>
<path d="M2061 8545 c-51 -41 -87 -75 -80 -75 8 0 31 -5 51 -10 31 -9 55 -34
154 -157 l116 -147 -6 -44 c-5 -35 -3 -42 7 -35 6 5 47 38 91 74 l79 64 -34 8
c-55 14 -59 18 -177 163 l-114 139 5 48 c2 26 4 47 3 47 -1 0 -43 -34 -95 -75z"/>
<path d="M7978 8460 c2 -21 0 -45 -5 -53 -4 -8 -62 -74 -127 -146 l-119 -130
-52 -3 -52 -3 159 -146 159 -147 60 27 60 26 -33 7 c-18 4 -51 10 -72 13 -29
5 -54 21 -98 62 -32 31 -58 62 -58 69 0 7 59 76 131 154 l130 140 51 0 51 0
-83 78 c-107 99 -106 99 -102 52z"/>
<path d="M1626 8134 c-89 -95 -89 -95 -54 -89 52 10 78 -8 217 -149 l123 -125
-4 -45 c-2 -26 -3 -46 -2 -46 1 0 69 71 152 158 l150 157 -27 64 -26 64 -8
-49 c-13 -84 -16 -92 -67 -154 -35 -41 -58 -60 -73 -60 -14 1 -70 47 -161 135
l-139 134 5 50 c3 28 5 51 4 51 -1 -1 -41 -44 -90 -96z"/>
<path d="M8442 8000 c-1 -23 -7 -48 -14 -57 -7 -9 -73 -65 -148 -125 l-135
-110 -52 5 -51 5 130 -161 c72 -89 133 -165 137 -169 7 -8 111 19 126 33 5 5
0 9 -13 9 -39 0 -125 39 -149 67 -44 52 -75 102 -69 111 3 5 71 63 151 127
l145 118 50 -5 c28 -3 50 -3 50 0 0 4 -114 145 -146 180 -9 11 -12 6 -12 -28z"/>
<path d="M1395 7797 c-59 -24 -92 -46 -128 -86 -118 -131 -129 -314 -26 -421
54 -56 109 -80 184 -80 114 0 215 72 278 199 71 145 19 310 -121 377 -45 22
-146 28 -187 11z m113 -112 c115 -53 176 -128 176 -216 0 -39 -6 -56 -31 -86
-45 -57 -85 -76 -154 -76 -100 1 -217 71 -261 156 -42 82 -7 190 74 230 50 25
133 21 196 -8z"/>
<path d="M8795 7584 c-22 -71 -58 -133 -184 -313 l-142 -204 38 6 c21 3 140
13 266 23 168 13 240 15 277 8 28 -6 50 -9 50 -7 0 9 -83 144 -91 149 -5 3 -9
-8 -9 -24 0 -58 -22 -70 -157 -81 -67 -6 -138 -11 -157 -11 l-36 0 81 123 c45
67 87 126 93 130 6 4 32 6 58 4 41 -3 46 -2 38 12 -4 9 -33 58 -64 110 -43 72
-57 90 -61 75z"/>
<path d="M953 7130 c-47 -28 -98 -112 -158 -259 l-53 -129 36 15 c54 22 91 13
255 -66 123 -58 149 -75 157 -98 25 -68 23 -69 77 49 28 62 50 114 48 116 -2
2 -17 -4 -34 -12 -16 -9 -38 -16 -48 -16 -21 0 -143 50 -143 59 0 3 9 20 19
38 17 28 29 33 98 48 127 27 170 44 198 77 23 27 75 119 75 132 0 2 -25 -10
-56 -26 -31 -17 -105 -43 -165 -57 l-109 -27 0 39 c0 111 -105 173 -197 117z
m80 -101 c50 -26 67 -51 67 -98 0 -25 -9 -65 -20 -88 l-19 -42 -56 24 c-57 26
-157 75 -164 81 -7 7 50 93 75 113 29 23 83 27 117 10z"/>
<path d="M9148 6886 c-23 -28 -46 -38 -187 -79 -173 -51 -187 -53 -242 -33
l-37 13 24 -66 c14 -36 27 -73 30 -81 3 -9 13 -1 30 27 17 30 36 46 67 57 76
29 277 84 277 76 0 -5 -73 -78 -162 -163 -90 -86 -160 -159 -156 -162 4 -4
108 -14 232 -23 124 -9 226 -19 226 -22 0 -4 -70 -37 -156 -74 -164 -71 -186
-75 -228 -38 -18 16 -18 16 -11 -8 4 -14 22 -65 39 -113 l32 -89 26 39 c28 43
31 45 222 127 131 57 170 65 208 45 18 -10 20 -9 14 7 -4 11 -17 46 -29 80
l-21 61 -150 12 c-83 6 -168 11 -188 11 -21 0 -38 3 -38 8 0 4 60 67 133 140
l133 133 -25 75 c-14 40 -28 74 -31 73 -3 0 -17 -15 -32 -33z"/>
<path d="M1125 6425 c-36 -16 -122 -33 -300 -60 -137 -21 -253 -41 -257 -44
-4 -3 84 -84 196 -178 154 -130 209 -182 222 -212 11 -22 22 -41 25 -41 4 0
12 19 18 43 6 23 17 63 25 89 l15 46 -36 -24 c-20 -13 -40 -24 -44 -24 -5 0
-25 14 -46 32 -21 18 -40 33 -41 34 -5 3 48 178 56 185 4 4 31 10 60 14 l52 7
19 -43 19 -42 32 104 c41 136 42 139 38 138 -2 0 -25 -11 -53 -24z m-225 -234
c-11 -39 -23 -71 -26 -71 -3 0 -37 26 -76 58 -49 39 -66 58 -55 60 49 10 172
28 175 26 2 -1 -6 -34 -18 -73z"/>
<path d="M9210 5967 c-73 -37 -49 -146 33 -147 35 0 77 40 77 74 0 38 -10 55
-41 71 -34 18 -37 18 -69 2z"/>
<path d="M493 5846 c4 -9 -8 -46 -26 -83 -28 -60 -32 -78 -31 -153 0 -104 26
-171 88 -228 109 -101 259 -93 360 19 57 63 78 118 86 233 4 56 9 107 11 114
3 12 -91 71 -113 72 -4 0 9 -35 29 -77 48 -99 50 -155 7 -215 -19 -28 -49 -53
-84 -71 -49 -25 -63 -28 -126 -24 -125 7 -208 77 -220 184 -9 68 27 129 120
201 16 12 27 24 25 26 -2 2 -33 6 -68 10 -55 6 -63 5 -58 -8z"/>
<path d="M9531 5734 c-3 -30 -87 -91 -275 -198 -114 -65 -204 -122 -199 -126
4 -4 108 -51 231 -105 122 -53 240 -110 262 -126 l40 -29 0 28 c0 16 -3 57 -6
91 l-7 61 -31 -35 -31 -36 -135 62 c-74 33 -138 64 -142 68 -10 9 218 141 242
141 10 0 33 -12 50 -27 l32 -27 -7 101 c-6 89 -21 187 -24 157z"/>
<path d="M615 5078 c-38 -34 -39 -82 -1 -115 35 -30 71 -29 101 2 70 69 -25
177 -100 113z"/>
<path d="M9070 4954 l0 -86 35 31 36 31 117 -1 c64 -1 142 -4 172 -7 l55 -7
-215 -189 c-232 -204 -256 -236 -183 -236 21 -1 124 -5 228 -10 l190 -9 27
-30 c14 -16 29 -27 32 -24 3 4 6 43 6 89 l0 82 -34 -34 c-33 -33 -35 -34 -117
-33 -46 1 -111 4 -144 8 l-60 6 180 159 c118 104 182 168 186 185 4 14 7 53 8
86 l1 60 -25 -31 c-22 -28 -28 -30 -77 -28 -29 2 -120 7 -202 10 -148 6 -150
7 -179 35 -16 16 -30 29 -33 29 -2 0 -4 -39 -4 -86z"/>
<path d="M877 4764 c-28 -38 -60 -49 -243 -84 l-171 -34 -34 20 -34 21 10 -81
10 -81 145 -43 c80 -23 162 -47 183 -53 21 -5 35 -14 32 -19 -3 -5 -75 -53
-161 -106 l-156 -98 6 -46 c4 -25 9 -62 12 -83 l6 -37 33 29 c40 35 98 43 297
45 114 1 129 -1 155 -20 l29 -21 -9 76 c-5 42 -11 78 -13 80 -2 3 -17 -7 -32
-22 -39 -37 -63 -44 -197 -51 -66 -4 -133 -9 -150 -12 -26 -5 -28 -4 -15 8 8
8 89 61 180 118 187 117 201 127 183 138 -7 5 -104 34 -215 66 -112 33 -207
62 -211 66 -8 7 290 70 332 70 14 0 38 -12 53 -27 18 -17 28 -22 28 -12 -1 23
-29 211 -32 214 -2 2 -11 -8 -21 -21z"/>
<path d="M9016 4289 c-3 -8 -12 -52 -21 -99 -9 -47 -19 -93 -21 -103 -5 -14 1
-13 32 8 20 14 44 25 54 25 41 0 351 -69 366 -81 10 -8 25 -26 34 -42 l17 -28
22 108 c26 135 27 141 3 120 -42 -38 -64 -38 -244 -2 -169 34 -174 35 -205 71
-23 26 -34 33 -37 23z"/>
<path d="M510 3872 c0 -4 13 -45 28 -91 l28 -84 16 42 c14 35 21 41 45 41 30
0 283 -47 290 -54 6 -6 -196 -191 -213 -194 -8 -2 -32 5 -53 17 l-39 20 40
-120 c22 -65 43 -119 48 -119 4 0 13 14 21 31 11 28 172 192 334 341 48 45 49
47 25 52 -14 3 -130 24 -259 46 -141 25 -249 49 -272 61 -22 11 -39 16 -39 11z"/>
<path d="M9389 3782 c-36 -18 -99 -30 -285 -54 -131 -17 -241 -33 -243 -34 -2
-2 76 -85 173 -186 98 -100 189 -202 204 -227 l26 -44 28 89 c15 49 28 90 28
91 0 1 -16 -7 -35 -18 -19 -11 -41 -19 -48 -17 -8 2 -61 52 -118 113 l-104
109 32 7 c17 3 82 12 144 20 l112 13 23 -30 c13 -16 24 -36 24 -44 0 -33 20
11 53 120 20 63 35 115 34 115 -1 0 -23 -10 -48 -23z"/>
<path d="M1166 3434 c-5 -48 -74 -231 -96 -257 -4 -5 -24 3 -45 17 -46 31 -97
34 -142 6 -42 -25 -56 -54 -56 -115 0 -62 26 -124 112 -273 l66 -113 12 41 c7
23 17 48 24 56 19 23 312 174 337 174 13 0 36 -7 52 -15 17 -9 30 -13 30 -11
0 11 -112 216 -121 222 -5 3 -9 -7 -9 -21 0 -48 -25 -79 -90 -110 -52 -25 -63
-27 -71 -15 -23 37 -20 61 22 152 52 113 58 163 30 240 -32 85 -47 90 -55 22z
m-112 -314 c25 -9 95 -95 96 -117 0 -19 -203 -123 -217 -111 -21 17 -45 107
-39 142 13 67 94 111 160 86z"/>
<path d="M8658 3200 c-47 -91 -97 -189 -112 -217 l-26 -53 47 -29 c26 -17 48
-29 49 -28 1 1 -3 28 -9 59 -10 57 -9 59 29 134 21 41 44 80 50 85 9 7 38 -3
93 -31 45 -22 81 -43 81 -45 0 -3 -13 -31 -29 -63 -31 -60 -49 -81 -94 -104
l-27 -14 66 -32 65 -32 -6 42 c-5 36 0 55 29 116 l35 72 86 -42 c47 -23 85
-47 85 -53 0 -5 -20 -46 -43 -90 -41 -75 -58 -93 -112 -111 -17 -5 -13 -9 23
-25 24 -10 48 -16 53 -13 5 3 53 91 105 196 68 135 90 189 77 183 -60 -23 -78
-19 -235 60 -84 42 -159 83 -166 90 -7 6 -16 34 -20 61 l-7 49 -87 -165z"/>
<path d="M8354 2689 c-42 -55 -74 -102 -72 -104 2 -2 23 1 46 7 41 10 45 9 99
-28 30 -21 57 -44 60 -51 3 -8 -4 -25 -17 -38 -20 -21 -31 -23 -143 -27 -89
-3 -130 -8 -153 -20 -31 -17 -121 -115 -112 -123 2 -2 26 3 53 11 28 9 102 18
166 21 l116 6 -4 -54 c-6 -68 8 -104 49 -129 37 -22 82 -26 125 -9 55 20 158
140 268 312 l18 28 -27 -11 c-60 -22 -80 -14 -223 93 -76 57 -144 111 -151
120 -8 9 -15 35 -15 57 -1 22 -3 40 -4 40 -1 0 -37 -45 -79 -101z m274 -278
c45 -34 82 -66 82 -71 0 -22 -75 -91 -110 -101 -31 -9 -43 -8 -75 7 -42 19
-75 66 -75 104 0 48 64 147 84 132 6 -5 48 -37 94 -71z"/>
<path d="M1388 2730 c-21 -5 -55 -21 -76 -34 -152 -96 -162 -292 -23 -439 89
-94 202 -128 308 -93 191 64 232 296 81 462 -84 91 -190 129 -290 104z m222
-85 c81 -42 113 -152 69 -242 -27 -56 -95 -125 -153 -156 -52 -27 -141 -29
-179 -5 -46 31 -80 85 -85 138 -15 160 214 335 348 265z"/>
<path d="M1948 2228 c2 -18 0 -42 -5 -54 -4 -12 -63 -79 -131 -150 -115 -121
-125 -128 -167 -134 l-46 -5 86 -85 85 -85 0 54 c0 50 3 55 53 107 l52 54 104
-98 103 -97 -60 -57 c-54 -52 -65 -58 -104 -58 l-43 -1 85 -81 85 -82 5 46 c5
41 15 56 107 154 150 162 151 162 205 166 l47 3 -89 83 -90 83 0 -48 c-1 -44
-5 -53 -60 -112 l-59 -65 -98 95 c-54 51 -99 96 -100 99 -2 3 24 33 56 68 56
60 60 62 107 62 l49 0 -85 85 c-47 47 -87 85 -90 85 -3 0 -4 -15 -2 -32z"/>
<path d="M7990 2217 c0 -8 -28 -33 -63 -56 -80 -55 -109 -96 -115 -166 -10
-126 92 -183 248 -140 135 37 156 40 184 22 57 -38 12 -118 -77 -136 -29 -6
-67 -12 -86 -14 l-34 -2 49 -38 c27 -21 50 -33 52 -28 2 6 28 27 58 47 126 83
156 198 73 269 -38 32 -109 34 -200 6 -108 -33 -161 -32 -185 4 -29 45 -16
106 28 134 12 7 58 19 102 25 l80 11 -51 38 c-56 41 -63 43 -63 24z"/>
<path d="M7520 1798 l-93 -73 43 -7 c23 -4 49 -13 58 -20 8 -7 62 -73 119
-147 103 -132 105 -136 101 -182 -2 -29 1 -45 7 -41 6 3 48 35 94 71 l83 64
-46 12 c-26 7 -51 16 -55 21 -20 22 -189 242 -205 267 -13 20 -17 39 -13 67 3
22 4 40 3 40 -2 0 -44 -33 -96 -72z"/>
<path d="M2608 1684 c5 -11 12 -34 15 -52 6 -29 -5 -49 -110 -205 -63 -94
-119 -175 -122 -179 -4 -4 -30 8 -58 27 -42 28 -54 43 -64 77 -6 24 -13 50
-16 58 -2 9 -13 -1 -30 -29 -21 -36 -23 -45 -12 -56 8 -7 106 -76 218 -153
l203 -141 34 41 c19 22 33 42 32 43 -2 2 -23 -1 -48 -5 -47 -9 -94 6 -149 49
l-24 18 108 159 c59 88 116 168 126 179 12 12 38 21 70 25 l51 5 -103 71
c-135 92 -133 91 -121 68z"/>
<path d="M7078 1497 c-59 -34 -108 -65 -108 -69 0 -5 15 -8 34 -8 22 0 44 -8
60 -22 14 -13 70 -99 124 -193 l100 -170 -45 -28 c-58 -36 -88 -41 -145 -24
l-48 15 37 -44 c24 -30 41 -43 52 -39 28 11 431 247 436 256 3 4 -5 29 -18 55
l-24 47 -12 -47 c-13 -54 -40 -85 -98 -115 l-40 -20 -107 181 c-58 99 -106
189 -106 200 0 10 7 34 14 53 8 19 12 35 8 35 -4 0 -55 -29 -114 -63z"/>
<path d="M3062 1331 c-18 -5 -50 -20 -71 -34 -153 -102 -163 -314 -20 -427
105 -83 253 -108 351 -61 172 83 207 293 71 427 -78 76 -231 120 -331 95z
m208 -53 c82 -42 114 -137 86 -249 -48 -186 -197 -263 -316 -163 -67 57 -78
187 -25 296 61 125 154 167 255 116z"/>
<path d="M6706 1302 c-54 -22 -82 -38 -70 -40 72 -11 93 -42 77 -108 -8 -35
-12 -38 -93 -69 l-85 -32 -37 31 c-41 35 -48 68 -21 106 16 22 16 23 -3 17
-82 -29 -214 -83 -214 -87 1 -3 22 -15 48 -28 29 -14 118 -89 237 -201 147
-138 192 -175 197 -162 4 9 7 66 8 126 1 61 5 175 9 255 6 120 11 152 29 188
13 23 19 42 15 41 -5 0 -48 -17 -97 -37z m4 -301 c0 -50 -4 -92 -8 -95 -9 -5
-139 121 -131 128 5 5 121 54 132 55 4 1 7 -39 7 -88z"/>
<path d="M3718 1084 c-11 -4 -25 -30 -38 -75 -17 -56 -27 -74 -51 -88 -17 -11
-27 -21 -22 -24 4 -2 44 -14 88 -26 44 -12 88 -24 98 -27 15 -5 15 -1 -4 31
l-22 36 20 67 c18 65 20 67 53 70 88 9 179 -63 198 -156 25 -117 -39 -258
-135 -298 -42 -18 -107 -18 -142 0 -33 17 -87 76 -120 130 l-25 39 -12 -34
c-6 -19 -15 -49 -19 -67 -6 -28 -4 -32 14 -32 12 0 45 -13 74 -29 237 -133
471 -39 484 193 4 63 1 77 -24 126 -52 101 -163 160 -313 166 -47 1 -93 1
-102 -2z"/>
<path d="M5946 1037 c-129 -32 -129 -32 -94 -45 19 -7 43 -21 53 -32 18 -20
118 -407 106 -414 -3 -2 -31 -9 -62 -15 -61 -13 -89 -7 -140 30 l-29 21 21
-54 c11 -29 22 -54 23 -55 1 -1 55 11 121 26 66 16 182 43 257 61 l137 32 -5
31 c-14 84 -12 83 -47 30 -29 -43 -38 -49 -95 -65 -76 -20 -63 -43 -122 210
l-43 183 31 45 c18 24 28 44 24 43 -4 0 -65 -15 -136 -32z"/>
<path d="M5470 944 c-63 -7 -117 -13 -119 -13 -2 -1 12 -16 33 -33 l36 -33 19
-175 c19 -185 17 -206 -22 -249 l-22 -24 50 6 c28 3 83 9 123 13 l72 7 -36 31
-36 31 -19 179 c-11 99 -17 188 -13 198 3 10 17 32 31 48 13 17 23 29 21 29
-1 -1 -55 -7 -118 -15z"/>
<path d="M4834 921 c-74 -34 -110 -114 -80 -185 20 -48 63 -87 158 -142 43
-24 85 -56 95 -70 15 -24 15 -29 2 -52 -8 -15 -29 -30 -47 -36 -42 -12 -84 7
-149 66 l-46 43 6 -49 c4 -27 7 -54 7 -60 0 -7 36 -17 90 -25 107 -16 162 -5
207 41 24 25 28 38 28 83 0 46 -4 58 -30 85 -16 18 -61 50 -100 73 -95 55
-125 87 -125 130 0 39 22 63 70 77 42 12 77 -4 148 -66 51 -45 52 -45 47 -17
-2 15 -7 45 -10 66 -5 32 -10 38 -26 34 -10 -3 -40 1 -66 9 -63 19 -130 17
-179 -5z"/>
<path d="M4413 790 c-49 -20 -59 -96 -17 -129 54 -43 124 -10 124 58 0 57 -54
93 -107 71z"/>
</g>
</svg>
