<?xml version="1.0" standalone="no"?>
<!DOCTYPE svg PUBLIC "-//W3C//DTD SVG 20010904//EN"
 "http://www.w3.org/TR/2001/REC-SVG-20010904/DTD/svg10.dtd">
<svg version="1.0" xmlns="http://www.w3.org/2000/svg"
 width="3456.000000pt" height="3456.000000pt" viewBox="0 0 3456.000000 3456.000000"
 preserveAspectRatio="xMidYMid meet">

<g transform="translate(0.000000,3456.000000) scale(0.100000,-0.100000)"
fill="#ffffff" stroke="none">
<path d="M17183 34413 c64 -2 170 -2 235 0 64 1 11 3 -118 3 -129 0 -182 -2
-117 -3z"/>
<path d="M16703 34403 c15 -2 37 -2 50 0 12 2 0 4 -28 4 -27 0 -38 -2 -22 -4z"/>
<path d="M17898 34403 c7 -3 16 -2 19 1 4 3 -2 6 -13 5 -11 0 -14 -3 -6 -6z"/>
<path d="M16415 34393 c-22 -1 -119 -7 -215 -13 -161 -10 -435 -32 -555 -45
-27 -3 -70 -8 -95 -10 -77 -8 -244 -26 -270 -30 -14 -2 -115 -16 -225 -30
-1923 -250 -3783 -833 -5570 -1744 -981 -500 -1871 -1074 -2800 -1805 -141
-111 -168 -132 -375 -306 -613 -512 -1349 -1236 -1911 -1880 -1167 -1336
-2134 -2875 -2831 -4505 -102 -238 -256 -624 -318 -795 -23 -63 -51 -140 -62
-170 -89 -242 -263 -790 -362 -1135 -157 -552 -322 -1301 -415 -1885 -54 -333
-112 -788 -136 -1055 -3 -38 -8 -83 -10 -100 -2 -16 -7 -70 -10 -120 -3 -49
-10 -146 -15 -215 -12 -151 -30 -469 -30 -518 l0 -35 50 49 c57 56 54 40 70
324 39 694 145 1518 289 2245 582 2937 1929 5662 3915 7920 255 289 385 426
770 810 790 789 1505 1383 2421 2012 2179 1496 4746 2475 7375 2812 442 57
903 100 1259 117 156 8 156 7 225 92 l19 22 -74 -2 c-41 -1 -92 -3 -114 -5z"/>
<path d="M17969 34384 c-7 -9 -13 -27 -14 -40 0 -13 -3 -24 -7 -24 -5 0 -13 0
-20 0 -6 0 -4 6 7 13 10 8 14 17 8 20 -5 3 -19 -6 -30 -22 l-21 -28 100 0 c56
-1 96 2 89 6 -6 4 -9 15 -5 24 7 19 -3 22 -26 7 -13 -9 -13 -10 0 -10 13 0 13
-2 0 -9 -17 -12 -33 -4 -24 11 4 7 2 8 -5 4 -6 -4 -9 -11 -7 -15 3 -4 -5 -7
-18 -7 -18 0 -22 5 -22 30 1 16 7 31 15 34 8 3 11 0 8 -6 -4 -5 0 -15 7 -21 9
-8 16 -8 20 -2 4 5 2 13 -4 16 -7 5 -8 11 -1 19 7 8 3 12 -13 14 -13 1 -30 -6
-37 -14z"/>
<path d="M18046 34388 c3 -5 9 -6 14 -3 5 3 11 1 14 -4 4 -6 -7 -8 -26 -6 -21
3 -28 1 -19 -4 8 -5 10 -14 6 -21 -6 -9 -4 -11 6 -4 8 4 42 7 77 6 42 -2 62 0
62 8 0 7 -7 10 -15 6 -14 -5 -20 5 -16 27 1 5 -3 6 -9 2 -17 -10 -62 -16 -56
-7 2 4 -6 8 -19 8 -13 0 -21 -4 -19 -8z m64 -18 c0 -5 -8 -10 -17 -10 -15 0
-16 2 -3 10 19 12 20 12 20 0z m30 0 c0 -5 -2 -10 -4 -10 -3 0 -8 5 -11 10 -3
6 -1 10 4 10 6 0 11 -4 11 -10z"/>
<path d="M18168 34383 c7 -3 16 -2 19 1 4 3 -2 6 -13 5 -11 0 -14 -3 -6 -6z"/>
<path d="M18192 34365 c-10 -21 -18 -25 -56 -25 -25 0 -48 -5 -52 -11 -4 -7
13 -10 57 -7 47 2 63 0 67 -11 3 -10 0 -12 -12 -8 -9 4 -16 2 -16 -3 0 -5 11
-9 24 -8 14 1 22 7 18 13 -3 5 2 4 11 -4 9 -7 23 -11 32 -8 8 4 17 2 20 -2 2
-5 46 -10 97 -11 177 -5 203 -6 227 -14 18 -6 22 -5 16 5 -6 11 -5 12 6 2 16
-16 33 -17 23 -2 -5 8 -1 8 14 0 15 -8 23 -8 28 0 5 8 10 7 16 -5 11 -19 58
-18 51 1 -4 10 -9 11 -19 2 -8 -7 -17 -9 -21 -5 -3 3 -1 6 5 6 6 0 9 9 7 20
-2 11 0 18 5 15 5 -3 14 5 21 17 11 21 11 22 -4 9 -17 -13 -18 -13 -21 12 -1
13 -92 23 -208 22 -40 0 -68 4 -68 10 0 5 -5 3 -10 -5 -6 -10 -10 -11 -10 -2
0 6 -5 12 -11 12 -5 0 -8 -4 -5 -8 3 -5 -1 -9 -9 -9 -8 0 -12 4 -9 9 3 4 -2 8
-11 8 -9 0 -14 -4 -11 -8 3 -5 -1 -9 -9 -9 -8 0 -15 4 -15 8 0 13 -29 18 -36
7 -4 -6 -3 -8 4 -4 6 3 13 2 16 -3 7 -11 -14 -9 -34 4 -19 12 -79 14 -77 2 1
-5 -6 -11 -16 -12 -15 -3 -16 -1 -6 11 6 8 7 14 2 14 -5 0 -15 -11 -21 -25z
m88 4 c0 6 5 11 11 11 8 0 9 -4 0 -13 -11 -14 -5 -27 11 -27 5 0 6 4 3 10 -4
6 1 7 11 3 15 -5 15 -7 0 -15 -9 -5 -21 -6 -26 -3 -16 10 -12 -7 8 -29 15 -19
15 -19 0 -7 -9 7 -22 10 -27 6 -6 -3 -8 0 -5 9 4 11 -1 13 -24 10 -17 -3 -33
0 -37 6 -3 6 -12 7 -18 4 -7 -4 -6 -1 2 7 10 11 15 11 18 2 3 -7 10 -13 16
-13 5 0 8 3 4 6 -3 3 2 14 11 24 12 14 19 17 29 8 9 -7 13 -7 13 1z m47 -54
c0 -8 -4 -12 -9 -9 -5 3 -6 10 -3 15 9 13 12 11 12 -6z"/>
<path d="M18245 34340 c3 -5 12 -7 20 -3 21 7 19 13 -6 13 -11 0 -18 -4 -14
-10z"/>
<path d="M18781 34341 c-1 -8 -11 -25 -22 -37 l-21 -23 22 6 c15 4 21 2 17 -4
-9 -14 13 -32 38 -32 11 0 36 -2 57 -4 33 -3 37 -1 40 25 5 35 0 42 -21 26 -9
-7 -13 -8 -9 -4 4 5 3 15 -4 23 -6 7 -8 16 -4 20 3 3 6 1 6 -6 0 -7 5 -9 12
-5 7 5 8 3 3 -6 -6 -9 -4 -11 4 -5 20 12 -2 27 -43 30 -22 1 -41 -4 -48 -12
-10 -13 -13 -12 -19 4 -5 11 -8 13 -8 4z m59 -11 c0 9 6 7 16 -8 9 -13 13 -26
10 -29 -3 -4 -6 -1 -6 6 0 9 -4 9 -14 -1 -15 -14 -11 -32 5 -23 5 4 9 -1 9
-10 0 -13 -4 -14 -20 -5 -22 12 -26 25 -10 35 12 7 4 25 -11 25 -6 0 -8 -4 -4
-9 8 -15 -13 -23 -31 -13 -11 6 -13 11 -5 16 6 4 11 2 11 -3 0 -6 5 -11 12
-11 6 0 8 3 5 7 -4 3 -2 12 5 20 9 11 13 11 19 1 7 -10 9 -10 9 2z m-35 -68
c-3 -3 -11 0 -18 7 -9 10 -8 11 6 5 10 -3 15 -9 12 -12z"/>
<path d="M17985 34330 c3 -5 8 -10 11 -10 2 0 4 5 4 10 0 6 -5 10 -11 10 -5 0
-7 -4 -4 -10z"/>
<path d="M18920 34318 c0 -12 3 -18 7 -14 11 10 12 36 2 36 -5 0 -9 -10 -9
-22z"/>
<path d="M18945 34330 c-7 -12 20 -25 34 -15 7 4 8 -1 5 -12 -6 -16 -4 -15 10
2 17 20 17 20 7 -2 -7 -14 -8 -24 -1 -28 5 -3 10 -3 11 2 0 4 2 18 5 30 3 19
0 22 -19 19 -12 -2 -27 1 -34 6 -7 5 -14 5 -18 -2z"/>
<path d="M19030 34320 c0 -5 1 -11 2 -12 1 -2 -5 -14 -12 -28 -21 -37 -20 -50
1 -50 10 0 19 5 19 11 0 5 -4 7 -10 4 -5 -3 -10 1 -10 10 0 10 5 13 12 9 6 -4
8 -3 5 3 -4 6 1 17 10 24 12 10 14 10 9 2 -4 -8 -2 -13 6 -13 10 0 10 -2 1 -8
-21 -14 -11 -47 14 -47 13 0 23 4 23 10 0 5 5 4 12 -3 16 -16 31 -15 26 1 -3
6 -18 13 -34 13 -47 3 -50 4 -31 15 14 8 15 14 7 24 -13 16 3 30 23 19 9 -5 9
-4 0 6 -6 7 -17 9 -24 4 -8 -4 -22 -9 -33 -9 -18 -2 -18 -1 -1 12 17 12 17 13
2 13 -9 0 -17 -4 -17 -10z"/>
<path d="M19122 34304 c-9 -6 -23 -9 -31 -6 -12 4 -11 1 2 -18 9 -13 29 -26
44 -28 34 -4 49 -17 32 -27 -8 -5 -10 -4 -5 3 4 7 2 12 -3 12 -6 0 -11 -6 -11
-13 0 -10 42 -18 153 -31 1242 -141 2527 -441 3719 -867 2286 -816 4354 -2101
6085 -3779 246 -239 593 -592 593 -604 0 -3 -29 -6 -65 -6 -36 0 -65 -3 -65
-6 0 -3 69 -83 153 -177 531 -595 1042 -1261 1473 -1922 152 -232 400 -632
445 -715 13 -25 32 -56 41 -69 10 -13 15 -27 12 -32 -3 -5 -1 -9 3 -9 5 0 16
-13 25 -28 14 -23 15 -31 5 -41 -9 -10 -9 -11 3 -6 23 8 103 -134 87 -154 -9
-12 -9 -13 1 -7 7 4 12 2 12 -4 0 -6 4 -9 9 -6 5 3 14 -8 21 -24 10 -24 10
-33 -1 -48 -13 -16 -13 -16 5 -2 18 14 19 13 12 -5 -4 -11 -4 -16 0 -12 11 11
46 -36 41 -55 -3 -9 -2 -16 2 -15 3 1 7 -1 8 -6 2 -4 12 -17 23 -29 15 -17 17
-25 8 -35 -9 -11 -7 -15 9 -19 22 -6 62 -79 57 -107 -1 -9 1 -15 6 -12 9 6 43
-43 43 -62 0 -7 4 -13 8 -13 4 0 12 -14 18 -32 10 -28 9 -34 -15 -59 -15 -16
-32 -26 -37 -22 -6 3 -7 2 -4 -4 8 -13 -67 -86 -78 -76 -4 5 -5 3 -2 -3 8 -14
-66 -87 -78 -77 -4 5 -5 3 -2 -3 8 -14 -66 -87 -78 -77 -4 5 -5 3 -2 -3 8 -14
-66 -87 -78 -77 -4 5 -5 3 -2 -3 4 -6 -4 -21 -17 -33 -21 -20 -24 -20 -30 -6
-3 9 -3 22 1 27 3 6 2 8 -4 5 -9 -6 -32 29 -29 44 0 4 -6 15 -15 25 -20 23
-64 106 -61 117 1 4 -2 7 -6 7 -17 0 -31 47 -19 59 9 9 8 11 -3 6 -11 -4 -23
7 -39 36 -15 26 -19 39 -10 35 8 -5 8 -2 -2 6 -8 7 -24 27 -33 43 l-18 30 26
-28 c14 -15 26 -24 26 -20 0 5 -16 25 -35 43 -38 37 -68 87 -60 101 3 4 0 11
-6 15 -8 5 -9 3 -4 -7 5 -9 5 -11 -2 -4 -16 16 -65 106 -56 103 4 -2 9 2 10 7
1 6 -4 9 -12 7 -14 -3 -56 61 -58 89 -1 10 -4 16 -8 13 -4 -2 -16 12 -28 32
-23 38 -25 45 -13 41 4 -1 8 2 9 8 2 5 -4 10 -13 10 -10 0 -67 81 -148 210
-556 885 -1229 1753 -1945 2512 -87 93 -286 294 -442 448 -1492 1472 -3259
2640 -5205 3440 -1501 618 -3124 1011 -4749 1150 -876 75 -1931 79 -2685 9
-124 -11 -130 -12 -40 -8 58 3 161 9 230 14 469 33 1504 38 1945 10 1449 -91
2674 -314 3975 -722 2602 -815 5019 -2331 6910 -4334 81 -86 148 -159 280
-305 220 -243 525 -608 754 -903 1949 -2505 3116 -5530 3350 -8686 31 -408 37
-563 43 -1035 16 -1285 -106 -2481 -378 -3710 -969 -4378 -3753 -8191 -7640
-10463 -459 -268 -1128 -612 -1589 -816 -1739 -770 -3548 -1219 -5440 -1351
-701 -48 -1559 -48 -2260 0 -3287 230 -6397 1444 -8970 3502 -190 152 -493
405 -589 493 -15 14 -55 50 -90 80 -35 30 -78 69 -96 85 -17 17 -79 73 -136
125 -180 163 -797 787 -980 990 -583 649 -1046 1242 -1496 1915 -2037 3053
-2962 6643 -2663 10335 250 3075 1393 6035 3278 8485 464 602 864 1058 1401
1596 376 376 576 562 887 829 98 84 183 157 188 161 6 5 -7 9 -30 9 -37 0 -53
-11 -225 -158 -780 -670 -1465 -1377 -2094 -2162 -991 -1237 -1794 -2610
-2383 -4075 -79 -198 -209 -539 -252 -665 -12 -36 -47 -137 -77 -225 -310
-906 -553 -1941 -693 -2955 -32 -232 -65 -378 -126 -560 -69 -202 -132 -305
-318 -517 -213 -243 -296 -397 -362 -668 -58 -240 -66 -340 -59 -705 3 -184 8
-345 11 -357 2 -13 0 -23 -6 -23 -6 0 -8 6 -5 13 4 6 -1 3 -9 -7 -9 -11 -16
-38 -16 -62 0 -26 -6 -47 -17 -55 -9 -8 -18 -13 -20 -11 -11 8 -21 0 -19 -15
2 -14 12 -18 39 -17 21 0 37 -4 37 -8 0 -5 5 -6 10 -3 6 3 10 -1 10 -10 0 -10
-5 -13 -12 -9 -9 5 -9 2 1 -9 7 -9 10 -17 5 -17 -13 1 -41 24 -42 35 0 5 -6
11 -14 13 -9 2 -9 1 -2 -5 6 -4 10 -28 8 -53 -1 -25 2 -50 7 -56 6 -7 4 -16
-6 -24 -18 -15 -20 -35 -3 -24 7 5 8 3 2 -7 -18 -29 -12 -41 10 -20 31 29 53
19 53 -24 0 -19 -5 -35 -10 -35 -5 0 -6 7 -3 16 3 8 2 12 -4 9 -6 -3 -10 -1
-10 4 0 6 6 11 13 11 6 0 4 5 -6 11 -24 14 -31 6 -18 -20 8 -14 8 -22 -1 -27
-7 -4 -8 -3 -4 4 4 7 -3 14 -17 18 -22 5 -25 11 -24 49 0 26 4 42 10 38 6 -3
7 -1 3 5 -18 29 -25 6 -22 -69 2 -56 7 -83 17 -90 8 -5 10 -9 4 -9 -11 0 -12
-56 -2 -67 12 -11 8 -25 -5 -17 -7 5 -8 3 -3 -6 5 -8 10 -70 12 -139 2 -69 8
-130 13 -135 14 -14 12 -28 -2 -20 -10 6 -10 4 -2 -7 6 -8 10 -38 9 -66 -2
-43 1 -53 14 -54 11 0 12 -2 3 -6 -10 -4 -10 -8 -1 -19 14 -17 30 -9 22 11 -8
23 15 18 27 -5 6 -11 7 -20 3 -19 -21 3 -34 -2 -31 -13 2 -7 -2 -13 -7 -13 -5
0 -9 5 -7 12 1 6 -2 14 -7 17 -5 3 -8 -10 -8 -28 1 -19 5 -32 9 -30 5 3 6 -9
3 -26 -5 -29 -4 -31 10 -16 9 9 21 16 27 16 6 0 6 6 -2 15 -11 13 -10 14 2 10
17 -7 41 57 27 74 -6 8 -5 8 3 1 17 -15 19 -90 2 -83 -8 3 -12 -3 -11 -16 1
-23 8 -26 23 -11 7 7 11 6 11 -3 0 -16 -26 -19 -44 -5 -7 6 -14 4 -19 -3 -4
-8 -3 -9 4 -5 7 4 12 2 12 -3 0 -6 -4 -12 -10 -12 -5 -1 -16 -2 -22 -3 -15 -1
-18 -28 -4 -38 12 -8 26 -1 26 13 0 6 -4 8 -9 4 -5 -3 -12 -2 -15 3 -2 4 4 8
14 9 10 1 21 -5 24 -13 3 -8 0 -14 -7 -15 -7 0 -3 -4 8 -9 27 -11 37 -12 31
-1 -3 5 2 15 12 22 15 12 16 12 5 -2 -10 -12 -10 -18 0 -28 9 -10 7 -16 -10
-30 -12 -10 -19 -21 -16 -25 3 -3 13 0 21 7 9 6 5 -3 -8 -20 -13 -18 -24 -33
-24 -33 -1 0 -2 12 -2 26 -2 34 -10 40 -31 23 -11 -9 -14 -10 -9 -1 4 6 3 12
-3 12 -5 0 -9 -9 -8 -20 1 -15 6 -19 22 -14 14 4 16 3 6 -4 -10 -7 -10 -11 -1
-17 8 -5 7 -11 -4 -24 -9 -9 -14 -28 -11 -41 2 -14 11 -86 20 -160 9 -74 23
-182 31 -240 8 -58 17 -121 20 -140 2 -19 22 -145 44 -280 599 -3678 2397
-7066 5120 -9649 1662 -1575 3618 -2799 5775 -3611 1434 -540 2941 -877 4550
-1019 154 -14 233 -20 360 -27 61 -3 126 -7 145 -10 213 -23 1733 -23 1880 0
14 3 86 7 160 11 74 4 149 8 165 10 17 2 68 7 115 10 159 11 574 55 810 85
1697 218 3297 673 4890 1391 243 109 864 419 1110 554 3075 1684 5568 4270
7133 7400 148 296 190 385 367 780 37 82 150 356 220 530 114 289 125 316 213
560 205 562 423 1315 572 1968 131 577 264 1357 310 1822 3 33 8 71 10 85 2
14 7 54 10 90 3 36 8 81 10 100 2 19 9 91 15 160 5 69 12 148 15 175 11 113
30 432 42 695 16 376 4 1362 -22 1740 -12 163 -15 210 -25 330 -50 613 -128
1190 -247 1820 -349 1853 -1016 3646 -1981 5325 -572 995 -1253 1934 -2085
2875 -242 273 -1076 1107 -1337 1336 -695 611 -1253 1044 -1905 1478 -873 581
-1711 1040 -2655 1453 -557 244 -1362 540 -1935 711 -165 49 -381 112 -401
117 -11 2 -46 12 -79 21 -33 9 -67 18 -75 19 -8 2 -94 24 -190 48 -96 24 -186
47 -200 50 -14 3 -54 12 -90 20 -91 21 -291 65 -375 82 -38 8 -81 17 -95 20
-14 3 -41 8 -60 11 -19 3 -55 10 -80 15 -49 11 -289 56 -346 65 -20 3 -46 7
-57 10 -12 2 -37 6 -57 9 -20 3 -47 7 -60 10 -13 3 -42 7 -65 10 -22 3 -62 10
-90 15 -27 5 -74 12 -104 15 -30 4 -62 8 -71 10 -9 2 -41 6 -71 10 -30 4 -63
8 -74 10 -11 1 -47 6 -80 10 -33 4 -68 9 -78 11 -10 2 -48 6 -85 10 -36 3 -74
7 -83 9 -9 2 -29 -10 -44 -25 -20 -21 -33 -27 -44 -21 -9 5 -26 7 -38 6 -18
-1 -20 1 -12 16 10 19 39 16 39 -5 0 -14 20 15 20 29 0 14 -38 13 -58 -1z
m-18843 -17732 c-16 -26 -49 -36 -49 -15 0 8 4 12 10 8 5 -3 17 3 27 13 23 23
28 20 12 -6z m29 -114 c3 2 8 -2 10 -10 2 -9 0 -8 -7 2 -9 12 -11 11 -11 -7 0
-13 6 -23 13 -23 9 0 9 -2 0 -8 -8 -5 -9 -13 -3 -22 21 -32 8 -32 -20 1 -27
29 -29 35 -15 45 16 12 20 25 6 22 -9 -3 -11 2 -11 25 0 6 7 3 16 -8 8 -11 18
-19 22 -17z m-53 -168 c3 -6 -1 -7 -9 -4 -18 7 -21 14 -7 14 6 0 13 -4 16 -10z
m91 -340 c0 -12 -4 -16 -9 -11 -5 5 -6 14 -3 20 10 15 12 14 12 -9z m3 -67
c-1 -5 0 -10 1 -13 9 -24 7 -41 -5 -36 -8 3 -17 1 -20 -4 -3 -5 -12 -7 -19 -4
-7 3 -16 -2 -19 -10 -7 -18 8 -31 18 -16 9 14 22 12 28 -4 4 -9 -2 -13 -15
-12 -14 1 -24 -8 -29 -24 -8 -23 -8 -24 5 -6 16 20 36 14 36 -12 0 -14 2 -15
9 -2 6 8 7 18 5 22 -3 4 0 8 6 8 7 0 9 -7 6 -16 -4 -9 -1 -24 6 -32 11 -13 11
-14 -2 -7 -8 5 -21 10 -30 11 -56 9 -55 8 -55 70 0 32 -4 66 -9 74 -7 12 -6
12 4 3 9 -8 20 -8 44 3 37 16 36 16 35 7z m1 -74 c0 -6 -4 -7 -10 -4 -5 3 -10
11 -10 16 0 6 5 7 10 4 6 -3 10 -11 10 -16z m19 -266 c-6 -7 -15 -10 -20 -7
-13 8 -3 21 15 21 12 0 13 -4 5 -14z m298 -1785 c-3 -8 -6 -5 -6 6 -1 11 2 17
5 13 3 -3 4 -12 1 -19z m179 -658 c393 -1363 966 -2711 1601 -3763 942 -1562
2367 -3161 3933 -4413 875 -700 1826 -1319 2767 -1801 61 -32 109 -62 106 -67
-3 -5 -2 -6 4 -3 6 4 48 -12 94 -35 46 -23 87 -42 91 -42 14 -2 193 -91 196
-99 2 -4 8 -5 13 -1 5 3 9 0 9 -6 0 -6 4 -9 8 -6 4 2 14 1 22 -4 12 -7 10 -13
-9 -34 -13 -14 -29 -23 -35 -19 -6 3 -8 2 -3 -2 10 -12 -63 -86 -77 -78 -6 3
-8 2 -3 -2 10 -12 -63 -86 -77 -78 -6 3 -8 2 -3 -2 10 -12 -63 -86 -77 -78 -6
3 -8 2 -3 -2 10 -12 -63 -86 -77 -78 -6 3 -8 2 -3 -2 10 -12 -63 -86 -77 -78
-6 3 -8 2 -3 -2 9 -10 -31 -55 -50 -55 -7 0 -13 5 -13 11 0 5 5 7 12 3 7 -4 8
-3 4 5 -6 9 -11 9 -21 1 -9 -8 -17 -6 -29 6 -14 13 -14 19 -4 33 12 14 11 15
-4 2 -10 -7 -15 -18 -12 -25 3 -6 -1 -3 -9 6 -8 10 -17 15 -20 11 -4 -3 -7 -2
-7 4 0 5 -6 10 -12 10 -25 0 -148 75 -141 85 3 7 1 8 -5 4 -11 -7 -116 46
-157 79 -11 9 -14 14 -8 10 9 -4 11 -1 6 10 -4 12 -8 13 -13 5 -5 -9 -21 -4
-56 15 -115 64 -174 101 -174 108 0 5 5 5 12 1 6 -4 8 -3 5 4 -4 5 -16 8 -26
5 -11 -3 -28 4 -40 16 -12 12 -24 22 -28 24 -5 1 -7 6 -5 10 1 5 -2 6 -8 2
-14 -8 -70 26 -63 38 3 6 1 7 -5 3 -15 -9 -354 208 -787 504 -524 360 -1117
830 -1650 1310 -847 762 -1588 1574 -2264 2481 -299 401 -317 426 -526 739
-201 301 -209 314 -431 682 -847 1403 -1496 2960 -1897 4553 -71 279 -147 610
-146 628 0 7 25 -82 55 -198 30 -115 84 -311 120 -435z"/>
<path d="M277 16419 c7 -7 15 -10 18 -7 3 3 -2 9 -12 12 -14 6 -15 5 -6 -5z"/>
<path d="M296 15854 c-20 -20 -20 -22 2 -20 9 0 21 7 25 14 5 7 13 9 19 6 7
-4 8 -2 4 4 -10 17 -32 15 -50 -4z"/>
<path d="M8895 3210 c-3 -6 1 -7 9 -4 18 7 21 14 7 14 -6 0 -13 -4 -16 -10z"/>
<path d="M8960 3186 c0 -2 8 -10 18 -17 15 -13 16 -12 3 4 -13 16 -21 21 -21
13z"/>
<path d="M9213 3055 c0 -8 4 -12 9 -9 5 3 6 10 3 15 -9 13 -12 11 -12 -6z"/>
<path d="M9535 2890 c-3 -6 1 -7 9 -4 18 7 21 14 7 14 -6 0 -13 -4 -16 -10z"/>
<path d="M8598 2717 c7 -8 10 -16 7 -19 -3 -2 1 -5 9 -5 18 0 10 24 -11 31
-12 5 -13 4 -5 -7z"/>
<path d="M8866 2561 c-4 -5 -2 -12 3 -15 5 -4 12 -2 15 3 4 5 2 12 -3 15 -5 4
-12 2 -15 -3z"/>
<path d="M17828 34303 c7 -3 16 -2 19 1 4 3 -2 6 -13 5 -11 0 -14 -3 -6 -6z"/>
<path d="M18933 34294 c-21 -21 -15 -44 14 -55 31 -11 52 -6 49 13 -5 37 -44
63 -63 42z m31 -16 c-3 -4 2 -8 10 -8 10 0 13 -6 9 -16 -5 -15 -7 -15 -15 0
-5 9 -14 16 -19 16 -6 0 -7 -4 -4 -10 3 -5 1 -10 -4 -10 -11 0 -15 23 -6 32 8
8 34 5 29 -4z"/>
<path d="M19192 34298 c-7 -7 -12 -19 -11 -27 0 -10 4 -7 10 7 5 13 13 20 19
17 5 -3 10 -1 10 4 0 14 -13 14 -28 -1z"/>
<path d="M15730 33440 c-54 -7 -54 -7 -10 -7 25 0 74 3 110 7 l65 7 -55 0
c-30 0 -80 -3 -110 -7z"/>
<path d="M15603 33423 c15 -2 37 -2 50 0 12 2 0 4 -28 4 -27 0 -38 -2 -22 -4z"/>
<path d="M15508 33413 c12 -2 32 -2 45 0 12 2 2 4 -23 4 -25 0 -35 -2 -22 -4z"/>
<path d="M15418 33403 c12 -2 32 -2 45 0 12 2 2 4 -23 4 -25 0 -35 -2 -22 -4z"/>
<path d="M15338 33393 c12 -2 30 -2 40 0 9 3 -1 5 -23 4 -22 0 -30 -2 -17 -4z"/>
<path d="M15258 33383 c12 -2 30 -2 40 0 9 3 -1 5 -23 4 -22 0 -30 -2 -17 -4z"/>
<path d="M15178 33373 c12 -2 30 -2 40 0 9 3 -1 5 -23 4 -22 0 -30 -2 -17 -4z"/>
<path d="M15103 33363 c9 -2 25 -2 35 0 9 3 1 5 -18 5 -19 0 -27 -2 -17 -5z"/>
<path d="M15033 33353 c9 -2 25 -2 35 0 9 3 1 5 -18 5 -19 0 -27 -2 -17 -5z"/>
<path d="M14963 33343 c9 -2 23 -2 30 0 6 3 -1 5 -18 5 -16 0 -22 -2 -12 -5z"/>
<path d="M14893 33333 c9 -2 23 -2 30 0 6 3 -1 5 -18 5 -16 0 -22 -2 -12 -5z"/>
<path d="M14823 33323 c9 -2 25 -2 35 0 9 3 1 5 -18 5 -19 0 -27 -2 -17 -5z"/>
<path d="M14763 33313 c9 -2 23 -2 30 0 6 3 -1 5 -18 5 -16 0 -22 -2 -12 -5z"/>
<path d="M14703 33303 c9 -2 23 -2 30 0 6 3 -1 5 -18 5 -16 0 -22 -2 -12 -5z"/>
<path d="M14638 33293 c6 -2 18 -2 25 0 6 3 1 5 -13 5 -14 0 -19 -2 -12 -5z"/>
<path d="M16825 33290 c-2679 -82 -5265 -821 -7565 -2163 -3189 -1861 -5642
-4766 -6936 -8214 -809 -2158 -1140 -4483 -969 -6813 245 -3327 1524 -6483
3671 -9056 79 -94 157 -185 174 -204 17 -18 40 -45 52 -59 11 -14 52 -62 91
-105 40 -44 92 -102 117 -130 25 -28 61 -67 80 -87 19 -20 100 -105 180 -189
1565 -1646 3484 -2947 5597 -3796 1666 -670 3402 -1047 5213 -1134 695 -33
1549 -15 2145 45 163 16 66 12 -235 -10 -670 -49 -1556 -49 -2260 0 -3245 228
-6327 1439 -8870 3486 -756 608 -1476 1306 -2115 2049 -619 720 -1239 1594
-1689 2380 -20 36 -41 72 -46 80 -9 14 -92 160 -163 290 -133 240 -378 732
-511 1025 l-96 210 122 122 c68 68 125 123 128 123 3 0 36 -78 74 -173 362
-902 885 -1875 1444 -2687 581 -843 1157 -1536 1867 -2245 679 -679 1370
-1258 2170 -1818 169 -119 180 -124 193 -106 16 24 34 25 25 2 -7 -19 -5 -18
17 11 10 13 10 17 2 12 -22 -13 -12 4 23 39 35 35 52 45 39 23 -5 -9 -2 -9 9
1 18 15 23 26 7 16 -21 -13 -9 7 25 40 35 35 52 45 39 23 -5 -9 -2 -9 9 1 18
15 23 26 7 16 -21 -13 -9 7 25 40 33 34 53 46 40 25 -10 -16 1 -11 16 7 10 11
10 14 1 9 -22 -13 -12 4 23 39 33 34 53 46 40 25 -10 -16 1 -11 16 7 10 11 10
14 1 9 -23 -14 -12 5 24 41 35 34 38 35 50 18 7 -10 11 -22 7 -28 -3 -6 -1 -7
6 -3 6 4 8 12 5 18 -9 15 26 -6 53 -31 12 -12 27 -21 33 -21 6 0 8 -5 5 -11
-4 -6 0 -9 10 -7 10 2 19 -3 21 -10 1 -7 0 -8 -3 -2 -3 6 -11 6 -25 -1 -13 -7
-18 -7 -14 -1 3 6 3 13 -2 16 -4 2 -8 -4 -9 -14 -1 -11 3 -22 8 -26 7 -4 7
-10 0 -18 -7 -9 0 -12 29 -12 31 -1 38 3 37 17 -1 10 -5 15 -9 13 -5 -3 -6 -9
-4 -13 3 -3 -4 -7 -15 -7 -19 0 -18 1 3 18 28 22 33 22 52 3 8 -9 17 -15 18
-15 9 3 46 -16 61 -32 10 -10 22 -16 27 -13 6 3 7 -1 4 -10 -4 -9 -3 -15 2
-13 5 1 20 -4 34 -12 14 -7 25 -12 25 -11 0 1 13 -2 28 -8 16 -6 25 -16 22
-21 -4 -6 -3 -10 2 -9 22 4 41 -3 67 -26 16 -14 33 -25 38 -25 5 0 71 -35 146
-79 672 -384 1455 -751 2207 -1033 178 -67 233 -86 520 -182 2848 -944 5962
-1024 8850 -225 2070 573 4023 1599 5675 2983 908 760 1728 1628 2430 2571
231 310 577 812 674 980 16 27 29 33 125 57 58 14 154 45 212 68 124 49 284
132 284 149 0 13 -13249 7560 -13286 7568 -16 3 -30 -1 -38 -11 -17 -20 -18
-46 -37 -601 -20 -565 -41 -1159 -43 -1162 0 -2 -26 -3 -56 -3 l-55 0 0 98
c-1 90 -12 440 -41 1292 -6 184 -15 345 -20 358 -13 33 -36 37 -83 15 -22 -11
-3017 -1716 -6655 -3787 -5949 -3388 -6616 -3765 -6630 -3751 -13 13 -13 17
-1 30 8 8 2461 1446 5450 3195 2989 1750 5439 3185 5443 3189 5 5 7 22 5 39
l-3 31 -200 -118 c-472 -278 -8618 -5086 -9607 -5669 -598 -353 -1090 -642
-1093 -642 -10 0 -4 166 9 270 23 169 76 350 102 350 9 0 12 5 9 10 -4 6 7 34
24 64 36 62 38 72 13 78 -33 9 -129 191 -337 639 -609 1309 -1027 2716 -1235
4159 -108 746 -140 1206 -145 2045 -5 869 17 1287 105 1993 292 2324 1108
4522 2401 6462 247 371 475 685 728 1005 89 113 301 369 350 425 13 14 41 47
64 75 23 27 49 56 57 65 8 9 30 34 49 55 37 44 159 179 261 290 137 150 773
778 920 909 85 76 171 153 190 170 90 81 320 275 466 392 88 71 174 140 190
152 76 62 506 380 639 474 1838 1289 3943 2149 6160 2517 580 97 1208 165
1633 178 187 6 204 5 216 -12 12 -16 14 -15 35 19 13 20 26 34 31 31 4 -3 11
15 14 39 6 39 18 56 95 133 92 94 229 202 344 272 l67 41 0 -111 c0 -109 -96
-10972 -102 -11590 -3 -273 -2 -316 11 -311 10 4 12 1 6 -9 -5 -8 -1 -7 10 3
18 17 20 248 55 6018 28 4663 38 6002 48 6012 40 40 37 327 84 -7652 34 -5767
48 -7641 57 -7658 8 -14 21 -22 38 -22 27 0 1104 552 1513 775 293 160 493
264 578 301 l74 32 86 -68 c48 -38 609 -468 1247 -956 1119 -856 3538 -2710
7722 -5917 1096 -840 1996 -1527 2001 -1527 11 0 286 544 391 775 836 1830
1286 3704 1372 5720 15 338 5 1386 -15 1625 l-6 65 45 -135 c84 -250 161 -383
321 -550 146 -153 215 -268 273 -456 78 -250 100 -469 83 -827 -169 -3563
-1517 -6923 -3851 -9597 -497 -570 -1078 -1145 -1641 -1625 -58 -50 -109 -95
-115 -101 -38 -40 -386 -318 -624 -497 -106 -81 -190 -147 -185 -147 10 0 269
195 464 350 257 203 625 515 820 694 1035 951 1837 1882 2571 2981 560 841
1067 1787 1455 2716 673 1615 1079 3345 1194 5094 32 484 41 1301 20 1760
-150 3255 -1236 6294 -3174 8885 -483 645 -1096 1341 -1647 1870 -106 102
-212 203 -234 225 -23 22 -78 74 -124 115 -45 41 -95 86 -110 100 -350 320
-871 739 -1326 1067 -2855 2057 -6300 3110 -9830 3003z m1755 -980 c1705 -149
3288 -554 4830 -1236 478 -211 1140 -554 1605 -831 758 -452 1578 -1048 2200
-1597 357 -316 886 -832 1166 -1136 1106 -1205 1979 -2521 2654 -4001 544
-1192 937 -2490 1145 -3789 83 -519 121 -854 166 -1460 21 -288 30 -1262 15
-1626 -79 -1859 -512 -3716 -1266 -5424 -154 -350 -414 -867 -441 -877 -7 -3
-104 66 -216 153 -258 201 -1251 976 -1643 1283 -1790 1402 -2885 2261 -3005
2356 -36 29 -276 218 -535 420 -928 728 -1401 1099 -1465 1150 -36 29 -245
193 -465 365 -220 172 -429 337 -465 365 -358 284 -2047 1603 -2100 1640 -81
56 -164 121 -179 139 -8 9 -33 25 -57 36 -24 10 -44 24 -44 29 0 6 -5 11 -11
11 -6 0 -25 13 -42 30 -18 16 -72 57 -122 91 -49 34 -92 65 -95 69 -9 11 -130
100 -136 100 -4 0 -55 38 -115 85 -59 47 -113 85 -120 85 -8 0 -4 6 7 14 26
18 25 47 -10 256 -34 208 -69 453 -951 6630 -989 6928 -953 6668 -927 6695 11
12 359 -2 622 -25z m5650 -1035 c554 -303 1136 -668 1637 -1027 95 -68 182
-130 194 -138 63 -44 345 -260 492 -377 1528 -1223 2820 -2725 3787 -4404 686
-1190 1198 -2436 1555 -3779 52 -195 145 -586 144 -603 0 -7 -29 94 -63 223
-263 974 -575 1821 -990 2686 -1343 2801 -3535 5139 -6248 6667 -504 284
-1021 539 -1513 747 -55 23 -102 44 -105 46 -2 3 74 83 170 179 l173 174 286
-144 c157 -79 374 -192 481 -250z m7817 -10367 c-3 -8 -6 -5 -6 6 -1 11 2 17
5 13 3 -3 4 -12 1 -19z m10 -50 c-3 -7 -5 -2 -5 12 0 14 2 19 5 13 2 -7 2 -19
0 -25z m10 -40 c-3 -8 -6 -5 -6 6 -1 11 2 17 5 13 3 -3 4 -12 1 -19z m-14737
-6454 c0 -9 -7 -14 -17 -12 -25 5 -28 28 -4 28 12 0 21 -6 21 -16z m191 -117
c96 -36 291 -111 434 -167 143 -56 265 -103 270 -104 6 -1 20 -8 33 -14 12 -7
22 -10 22 -7 0 3 11 -2 25 -11 14 -9 25 -13 25 -9 0 4 6 2 13 -4 8 -6 17 -8
20 -4 4 3 7 1 7 -6 0 -7 4 -10 9 -6 5 3 12 1 16 -5 4 -6 11 -8 16 -5 5 4 9 1
9 -6 0 -7 3 -9 6 -6 4 3 16 1 28 -5 11 -7 30 -13 41 -15 10 -2 22 -7 25 -11 3
-4 14 -9 25 -10 11 -2 22 -7 25 -10 3 -4 14 -9 25 -10 11 -2 22 -7 25 -10 3
-4 14 -9 25 -10 11 -2 22 -7 25 -10 3 -4 14 -9 25 -10 11 -2 22 -7 25 -10 3
-4 14 -8 25 -10 29 -5 75 -26 75 -34 0 -4 6 -5 14 -2 7 3 20 -1 27 -8 8 -7 23
-15 34 -16 11 -2 22 -7 25 -10 3 -4 14 -9 25 -10 11 -2 22 -7 25 -10 3 -4 14
-9 25 -10 11 -2 21 -8 23 -12 2 -5 9 -7 16 -4 8 3 20 -1 27 -9 8 -7 19 -12 25
-10 7 2 18 -2 25 -9 8 -7 23 -15 34 -16 11 -2 22 -8 23 -13 2 -5 8 -7 13 -3 5
3 9 1 9 -5 0 -6 7 -8 15 -5 8 4 15 1 15 -5 0 -6 7 -8 17 -4 12 5 14 3 8 -7 -5
-9 -4 -11 4 -6 16 10 53 -3 45 -16 -4 -7 -2 -8 5 -4 16 10 53 -3 45 -16 -4 -7
-2 -8 5 -4 16 10 53 -3 45 -16 -4 -7 -2 -8 5 -4 16 10 53 -3 45 -16 -4 -7 -2
-8 5 -4 16 10 53 -3 45 -16 -4 -7 -2 -8 5 -4 16 10 53 -3 45 -16 -4 -7 -2 -8
5 -4 14 9 53 -2 46 -14 -3 -4 5 -6 17 -2 16 4 19 2 13 -8 -6 -9 -4 -11 4 -5 8
4 33 -2 60 -13 25 -12 105 -44 177 -71 169 -65 185 -72 177 -84 -4 -6 -1 -7 6
-2 17 10 103 -24 95 -37 -4 -7 -2 -8 5 -4 16 10 53 -3 45 -16 -4 -7 -2 -8 5
-4 15 9 53 -3 46 -15 -3 -5 0 -6 8 -3 8 3 90 -25 183 -61 317 -125 949 -376
1119 -445 94 -38 296 -119 450 -180 154 -61 321 -129 370 -150 50 -21 180 -75
290 -120 269 -109 275 -111 268 -123 -3 -6 -1 -7 6 -3 15 9 53 -3 46 -15 -3
-5 2 -6 11 -2 13 5 15 3 9 -7 -5 -9 -4 -11 4 -6 16 10 53 -3 45 -16 -4 -7 -2
-8 5 -4 16 10 53 -3 45 -16 -4 -7 -2 -8 5 -4 15 9 53 -3 46 -15 -3 -5 1 -6 9
-3 9 3 16 1 16 -5 0 -6 7 -8 17 -4 10 4 14 2 10 -4 -4 -6 -1 -11 6 -10 31 1
48 -4 43 -12 -3 -5 0 -9 7 -8 31 1 48 -4 43 -12 -3 -5 0 -9 7 -8 31 1 48 -4
43 -12 -3 -5 0 -9 7 -8 32 1 48 -4 42 -13 -3 -5 0 -7 8 -4 8 3 21 -1 28 -9 8
-7 19 -12 25 -10 7 2 18 -2 25 -10 8 -7 20 -12 28 -9 8 3 11 0 7 -7 -5 -7 -1
-9 8 -5 9 3 16 1 16 -5 0 -6 7 -8 17 -4 11 4 14 3 9 -5 -5 -8 -2 -10 8 -6 9 3
16 1 16 -5 0 -6 7 -8 17 -4 11 4 14 3 9 -5 -5 -8 -2 -10 8 -6 9 3 16 1 16 -5
0 -6 7 -8 17 -4 11 4 14 3 9 -5 -5 -8 -2 -10 8 -6 9 3 16 1 16 -6 0 -6 5 -8
10 -5 6 3 10 2 10 -4 0 -6 7 -8 15 -5 8 4 15 1 15 -6 0 -6 5 -8 10 -5 6 3 10
2 10 -4 0 -6 7 -8 15 -5 8 4 15 1 15 -6 0 -6 5 -8 10 -5 6 3 10 2 10 -4 0 -6
7 -8 15 -5 8 4 15 1 15 -6 0 -6 5 -8 10 -5 6 3 10 1 10 -5 0 -6 4 -9 9 -5 5 3
12 1 16 -5 4 -6 11 -8 16 -5 5 4 9 1 9 -4 0 -6 3 -10 8 -9 4 1 18 -4 32 -12
14 -7 25 -12 25 -11 0 1 18 -5 40 -15 22 -9 45 -17 50 -18 6 -1 20 -8 33 -14
12 -7 22 -10 22 -6 0 3 6 2 13 -4 13 -11 126 -57 2767 -1117 2278 -915 3072
-1236 3088 -1248 6 -5 12 -15 12 -23 0 -33 -450 -684 -708 -1024 -673 -886
-1534 -1784 -2382 -2484 -1706 -1410 -3638 -2406 -5749 -2966 -1268 -336
-2484 -494 -3831 -500 -1225 -5 -2478 146 -3665 442 -1066 266 -2041 623
-3020 1108 -631 312 -1070 564 -1645 945 -861 569 -1601 1175 -2345 1920 -626
625 -1128 1218 -1635 1930 -171 240 -420 614 -420 630 0 24 -150 -39 1600 665
619 249 1391 560 1715 690 325 131 2329 936 4455 1790 2126 854 4092 1644
4370 1757 458 185 509 203 551 199 26 -3 125 -34 220 -69z"/>
<path d="M19920 18736 c0 -2 8 -10 18 -17 15 -13 16 -12 3 4 -13 16 -21 21
-21 13z"/>
<path d="M14578 33283 c6 -2 18 -2 25 0 6 3 1 5 -13 5 -14 0 -19 -2 -12 -5z"/>
<path d="M14518 33273 c6 -2 18 -2 25 0 6 3 1 5 -13 5 -14 0 -19 -2 -12 -5z"/>
<path d="M14458 33263 c6 -2 18 -2 25 0 6 3 1 5 -13 5 -14 0 -19 -2 -12 -5z"/>
<path d="M14408 33253 c6 -2 18 -2 25 0 6 3 1 5 -13 5 -14 0 -19 -2 -12 -5z"/>
<path d="M14348 33243 c6 -2 18 -2 25 0 6 3 1 5 -13 5 -14 0 -19 -2 -12 -5z"/>
<path d="M14298 33233 c6 -2 18 -2 25 0 6 3 1 5 -13 5 -14 0 -19 -2 -12 -5z"/>
<path d="M14248 33223 c7 -3 16 -2 19 1 4 3 -2 6 -13 5 -11 0 -14 -3 -6 -6z"/>
<path d="M14198 33213 c7 -3 16 -2 19 1 4 3 -2 6 -13 5 -11 0 -14 -3 -6 -6z"/>
<path d="M14138 33203 c6 -2 18 -2 25 0 6 3 1 5 -13 5 -14 0 -19 -2 -12 -5z"/>
<path d="M14088 33193 c6 -2 18 -2 25 0 6 3 1 5 -13 5 -14 0 -19 -2 -12 -5z"/>
<path d="M14048 33183 c7 -3 16 -2 19 1 4 3 -2 6 -13 5 -11 0 -14 -3 -6 -6z"/>
<path d="M13998 33173 c7 -3 16 -2 19 1 4 3 -2 6 -13 5 -11 0 -14 -3 -6 -6z"/>
<path d="M13948 33163 c7 -3 16 -2 19 1 4 3 -2 6 -13 5 -11 0 -14 -3 -6 -6z"/>
<path d="M13898 33153 c7 -3 16 -2 19 1 4 3 -2 6 -13 5 -11 0 -14 -3 -6 -6z"/>
<path d="M13808 33133 c7 -3 16 -2 19 1 4 3 -2 6 -13 5 -11 0 -14 -3 -6 -6z"/>
<path d="M13718 33113 c7 -3 16 -2 19 1 4 3 -2 6 -13 5 -11 0 -14 -3 -6 -6z"/>
<path d="M13628 33093 c7 -3 16 -2 19 1 4 3 -2 6 -13 5 -11 0 -14 -3 -6 -6z"/>
<path d="M13378 33033 c7 -3 16 -2 19 1 4 3 -2 6 -13 5 -11 0 -14 -3 -6 -6z"/>
<path d="M13338 33023 c7 -3 16 -2 19 1 4 3 -2 6 -13 5 -11 0 -14 -3 -6 -6z"/>
<path d="M31646 26052 c-3 -5 1 -9 9 -9 8 0 12 4 9 9 -3 4 -7 8 -9 8 -2 0 -6
-4 -9 -8z"/>
<path d="M31985 25460 c10 -11 20 -20 23 -20 3 0 -3 9 -13 20 -10 11 -20 20
-23 20 -3 0 3 -9 13 -20z"/>
<path d="M31960 25456 c0 -2 8 -10 18 -17 15 -13 16 -12 3 4 -13 16 -21 21
-21 13z"/>
<path d="M31506 25232 c-3 -5 1 -9 9 -9 8 0 12 4 9 9 -3 4 -7 8 -9 8 -2 0 -6
-4 -9 -8z"/>
<path d="M31545 25110 c3 -5 8 -10 11 -10 2 0 4 5 4 10 0 6 -5 10 -11 10 -5 0
-7 -4 -4 -10z"/>
<path d="M31576 25112 c-3 -5 1 -9 9 -9 8 0 12 4 9 9 -3 4 -7 8 -9 8 -2 0 -6
-4 -9 -8z"/>
<path d="M31580 25081 c0 -6 4 -13 10 -16 6 -3 7 1 4 9 -7 18 -14 21 -14 7z"/>
<path d="M17185 20810 c-8 -13 3 -30 18 -30 8 0 7 3 -2 9 -7 5 -10 14 -7 20 4
6 5 11 2 11 -3 0 -8 -4 -11 -10z"/>
<path d="M15363 18553 l-33 -62 73 -39 c312 -170 455 -247 680 -366 214 -113
262 -134 278 -126 13 7 19 7 19 0 0 -5 -6 -10 -12 -10 -18 0 23 -26 52 -33 24
-6 24 -6 5 9 -11 8 -19 17 -17 19 6 12 0 21 -25 39 -14 11 -23 15 -20 9 9 -15
-16 -23 -34 -12 -8 5 -10 9 -5 9 5 0 1 10 -10 22 -13 14 -14 19 -4 14 13 -6
13 -6 0 4 -8 6 -170 109 -360 228 -190 120 -392 249 -450 287 l-105 70 -32
-62z m1041 -614 c-3 -5 -10 -7 -15 -3 -5 3 -7 10 -3 15 3 5 10 7 15 3 5 -3 7
-10 3 -15z"/>
<path d="M236 16657 c-33 -44 -35 -78 -3 -73 19 2 23 11 27 54 3 29 5 52 3 52
-1 0 -13 -15 -27 -33z m4 -32 c-10 -12 -10 -15 0 -15 8 0 11 -3 7 -6 -3 -3
-11 -3 -17 1 -8 5 -8 11 1 21 6 8 14 14 16 14 3 0 0 -7 -7 -15z"/>
<path d="M220 16470 c0 -27 5 -50 10 -50 6 0 10 23 10 50 0 28 -4 50 -10 50
-5 0 -10 -22 -10 -50z"/>
<path d="M19902 15953 l3 -36 5165 -3024 c2841 -1664 5181 -3031 5200 -3040
19 -8 38 -20 42 -27 5 -7 8 -6 8 4 -1 8 -24 29 -53 47 -52 31 -3382 1995
-3531 2082 -43 25 -93 54 -110 65 -17 10 -85 50 -151 89 -66 38 -154 90 -195
115 -41 25 -95 56 -120 70 -25 13 -52 30 -60 37 -8 7 -58 36 -110 65 -52 29
-106 60 -120 70 -14 9 -45 28 -70 42 -25 14 -157 92 -295 173 -137 81 -263
155 -278 164 -16 9 -36 21 -45 26 -9 6 -57 34 -107 63 -49 29 -97 57 -105 62
-14 9 -200 118 -324 191 -32 19 -70 41 -85 50 -14 9 -71 42 -126 74 -109 64
-172 101 -195 115 -48 30 -208 125 -288 171 -51 30 -108 63 -126 74 -18 11
-75 44 -127 74 -52 30 -129 76 -172 102 -43 27 -80 49 -83 49 -2 0 -79 45
-170 100 -91 55 -168 100 -170 100 -1 0 -78 45 -170 100 -92 55 -169 100 -171
100 -3 0 -24 14 -48 30 -24 17 -46 30 -49 30 -2 0 -26 13 -53 29 -26 16 -615
363 -1308 771 -693 408 -1293 762 -1333 786 l-72 44 2 -37z"/>
<path d="M290 15493 c0 -18 6 -20 42 -19 23 0 43 6 45 11 4 14 -40 14 -50 1
-5 -7 -13 -4 -22 8 -15 19 -15 19 -15 -1z"/>
<path d="M300 15394 c0 -8 5 -12 10 -9 6 4 8 11 5 16 -9 14 -15 11 -15 -7z"/>
<path d="M30338 9824 c5 -10 17 -19 26 -20 20 -3 11 12 -16 27 -17 9 -19 9
-10 -7z"/>
<path d="M30396 9793 c-5 -6 52 -46 64 -45 3 0 12 -5 20 -11 13 -10 13 -10 1
6 -7 9 -19 17 -25 17 -7 0 -22 9 -33 19 -12 11 -24 17 -27 14z"/>
<path d="M30516 9722 c-3 -6 -1 -14 5 -17 14 -9 20 -2 10 14 -6 8 -11 9 -15 3z"/>
<path d="M9087 4469 c6 -22 33 -26 33 -5 0 7 -8 16 -19 19 -14 3 -17 0 -14
-14z"/>
<path d="M9007 4389 c6 -22 33 -26 33 -5 0 7 -8 16 -19 19 -14 3 -17 0 -14
-14z"/>
<path d="M8927 4309 c6 -22 33 -26 33 -5 0 7 -8 16 -19 19 -14 3 -17 0 -14
-14z"/>
<path d="M8847 4229 c6 -22 33 -26 33 -5 0 7 -8 16 -19 19 -14 3 -17 0 -14
-14z"/>
<path d="M9530 4210 c0 -6 7 -10 15 -10 8 0 15 2 15 4 0 2 -7 6 -15 10 -8 3
-15 1 -15 -4z"/>
<path d="M8767 4149 c6 -22 33 -26 33 -5 0 7 -8 16 -19 19 -14 3 -17 0 -14
-14z"/>
<path d="M8753 4105 c4 -8 1 -17 -5 -21 -6 -4 -8 -3 -4 4 3 6 2 13 -3 16 -5 4
-8 -2 -6 -11 1 -10 9 -17 17 -17 9 1 15 -6 14 -15 0 -9 5 -15 12 -13 6 1 12
-2 12 -8 0 -5 -5 -10 -12 -10 -6 0 -3 -7 8 -15 10 -8 26 -14 34 -14 9 0 8 3
-5 8 -11 4 -20 17 -20 27 0 10 -6 18 -13 16 -8 -1 -11 2 -7 7 3 6 12 8 20 4
20 -7 19 21 -1 41 -20 20 -48 21 -41 1z m38 -12 c13 -16 12 -17 -3 -4 -10 7
-18 15 -18 17 0 8 8 3 21 -13z"/>
<path d="M9530 4104 c0 -14 3 -14 15 -4 8 7 15 14 15 16 0 2 -7 4 -15 4 -8 0
-15 -7 -15 -16z"/>
<path d="M8735 4050 c3 -5 8 -10 11 -10 2 0 4 5 4 10 0 6 -5 10 -11 10 -5 0
-7 -4 -4 -10z"/>
<path d="M9450 4024 c0 -14 3 -14 15 -4 8 7 15 14 15 16 0 2 -7 4 -15 4 -8 0
-15 -7 -15 -16z"/>
<path d="M8864 4009 c-4 -7 -3 -9 4 -5 5 3 13 0 15 -6 4 -9 6 -10 6 -1 1 17
-16 25 -25 12z"/>
<path d="M8860 3970 c0 -5 5 -10 11 -10 5 0 7 5 4 10 -3 6 -8 10 -11 10 -2 0
-4 -4 -4 -10z"/>
<path d="M9024 3952 c-6 -4 -3 -14 8 -24 17 -17 18 -17 18 1 0 23 -11 33 -26
23z"/>
<path d="M9370 3944 c0 -14 3 -14 15 -4 8 7 15 14 15 16 0 2 -7 4 -15 4 -8 0
-15 -7 -15 -16z"/>
<path d="M9002 3914 c-7 -8 -19 -11 -25 -8 -7 4 -3 -3 8 -15 19 -22 20 -22 24
-5 2 11 8 22 13 25 6 4 6 9 2 12 -5 3 -15 -1 -22 -9z"/>
<path d="M9290 3864 c0 -14 3 -14 15 -4 8 7 15 14 15 16 0 2 -7 4 -15 4 -8 0
-15 -7 -15 -16z"/>
<path d="M9026 3858 c3 -5 10 -6 15 -3 13 9 11 12 -6 12 -8 0 -12 -4 -9 -9z"/>
<path d="M9070 3851 c-7 -14 -6 -19 3 -17 21 3 38 17 32 27 -10 15 -23 11 -35
-10z"/>
<path d="M9106 3825 c-11 -8 -15 -15 -9 -15 6 0 16 7 23 15 16 19 11 19 -14 0z"/>
<path d="M9186 3771 c-4 -5 -2 -12 3 -15 5 -4 12 -2 15 3 4 5 2 12 -3 15 -5 4
-12 2 -15 -3z"/>
<path d="M21478 1883 c7 -3 16 -2 19 1 4 3 -2 6 -13 5 -11 0 -14 -3 -6 -6z"/>
<path d="M20968 1753 c7 -3 16 -2 19 1 4 3 -2 6 -13 5 -11 0 -14 -3 -6 -6z"/>
<path d="M20838 1723 c7 -3 16 -2 19 1 4 3 -2 6 -13 5 -11 0 -14 -3 -6 -6z"/>
<path d="M20748 1703 c7 -3 16 -2 19 1 4 3 -2 6 -13 5 -11 0 -14 -3 -6 -6z"/>
<path d="M20658 1683 c7 -3 16 -2 19 1 4 3 -2 6 -13 5 -11 0 -14 -3 -6 -6z"/>
<path d="M20608 1673 c7 -3 16 -2 19 1 4 3 -2 6 -13 5 -11 0 -14 -3 -6 -6z"/>
<path d="M20518 1653 c7 -3 16 -2 19 1 4 3 -2 6 -13 5 -11 0 -14 -3 -6 -6z"/>
<path d="M20468 1643 c7 -3 16 -2 19 1 4 3 -2 6 -13 5 -11 0 -14 -3 -6 -6z"/>
<path d="M20418 1633 c7 -3 16 -2 19 1 4 3 -2 6 -13 5 -11 0 -14 -3 -6 -6z"/>
<path d="M20358 1623 c6 -2 18 -2 25 0 6 3 1 5 -13 5 -14 0 -19 -2 -12 -5z"/>
<path d="M20308 1613 c6 -2 18 -2 25 0 6 3 1 5 -13 5 -14 0 -19 -2 -12 -5z"/>
<path d="M20258 1603 c7 -3 16 -2 19 1 4 3 -2 6 -13 5 -11 0 -14 -3 -6 -6z"/>
<path d="M20208 1593 c7 -3 16 -2 19 1 4 3 -2 6 -13 5 -11 0 -14 -3 -6 -6z"/>
<path d="M20148 1583 c6 -2 18 -2 25 0 6 3 1 5 -13 5 -14 0 -19 -2 -12 -5z"/>
<path d="M20088 1573 c6 -2 18 -2 25 0 6 3 1 5 -13 5 -14 0 -19 -2 -12 -5z"/>
<path d="M20038 1563 c6 -2 18 -2 25 0 6 3 1 5 -13 5 -14 0 -19 -2 -12 -5z"/>
<path d="M19978 1553 c6 -2 18 -2 25 0 6 3 1 5 -13 5 -14 0 -19 -2 -12 -5z"/>
<path d="M19918 1543 c6 -2 18 -2 25 0 6 3 1 5 -13 5 -14 0 -19 -2 -12 -5z"/>
<path d="M19853 1533 c9 -2 23 -2 30 0 6 3 -1 5 -18 5 -16 0 -22 -2 -12 -5z"/>
<path d="M19793 1523 c9 -2 23 -2 30 0 6 3 -1 5 -18 5 -16 0 -22 -2 -12 -5z"/>
<path d="M19728 1513 c6 -2 18 -2 25 0 6 3 1 5 -13 5 -14 0 -19 -2 -12 -5z"/>
<path d="M19663 1503 c9 -2 23 -2 30 0 6 3 -1 5 -18 5 -16 0 -22 -2 -12 -5z"/>
<path d="M19583 1493 c9 -2 25 -2 35 0 9 3 1 5 -18 5 -19 0 -27 -2 -17 -5z"/>
<path d="M19523 1483 c9 -2 23 -2 30 0 6 3 -1 5 -18 5 -16 0 -22 -2 -12 -5z"/>
<path d="M19443 1473 c9 -2 25 -2 35 0 9 3 1 5 -18 5 -19 0 -27 -2 -17 -5z"/>
<path d="M19373 1463 c9 -2 25 -2 35 0 9 3 1 5 -18 5 -19 0 -27 -2 -17 -5z"/>
<path d="M19293 1453 c9 -2 25 -2 35 0 9 3 1 5 -18 5 -19 0 -27 -2 -17 -5z"/>
<path d="M19208 1443 c12 -2 30 -2 40 0 9 3 -1 5 -23 4 -22 0 -30 -2 -17 -4z"/>
<path d="M19128 1433 c12 -2 30 -2 40 0 9 3 -1 5 -23 4 -22 0 -30 -2 -17 -4z"/>
<path d="M19038 1423 c12 -2 32 -2 45 0 12 2 2 4 -23 4 -25 0 -35 -2 -22 -4z"/>
<path d="M18943 1413 c15 -2 37 -2 50 0 12 2 0 4 -28 4 -27 0 -38 -2 -22 -4z"/>
<path d="M18843 1403 c15 -2 37 -2 50 0 12 2 0 4 -28 4 -27 0 -38 -2 -22 -4z"/>
</g>
</svg>
