<?xml version="1.0" standalone="no"?>
<!DOCTYPE svg PUBLIC "-//W3C//DTD SVG 20010904//EN"
 "http://www.w3.org/TR/2001/REC-SVG-20010904/DTD/svg10.dtd">
<svg version="1.0" xmlns="http://www.w3.org/2000/svg"
 width="1061.000000pt" height="446.000000pt" viewBox="0 0 1061.000000 446.000000"
 preserveAspectRatio="xMidYMid meet">

<g transform="translate(0.000000,446.000000) scale(0.100000,-0.100000)"
fill="#ffffff" stroke="none">
<path d="M0 3905 l0 -555 425 0 425 0 0 555 0 555 -425 0 -425 0 0 -555z"/>
<path d="M1330 3905 l0 -555 1060 0 1060 0 0 555 0 555 -1060 0 -1060 0 0
-555z"/>
<path d="M3930 3905 l0 -555 3340 0 3340 0 -4 33 c-3 17 -5 267 -5 555 l-1
522 -3335 0 -3335 0 0 -555z"/>
<path d="M6628 2475 c-115 -22 -255 -70 -328 -112 -94 -55 -189 -153 -233
-240 -53 -108 -71 -201 -65 -347 9 -202 65 -334 194 -455 119 -111 257 -172
630 -281 115 -34 241 -76 280 -95 125 -60 183 -149 170 -259 -12 -103 -86
-176 -221 -219 -64 -20 -90 -22 -290 -21 -238 0 -295 6 -539 60 -87 19 -161
32 -165 29 -3 -4 -6 -99 -6 -213 l0 -206 45 -13 c216 -63 441 -87 770 -81 223
5 254 7 342 31 302 80 483 244 549 496 30 112 29 310 -1 406 -41 132 -113 231
-224 309 -123 87 -217 125 -556 222 -319 91 -397 131 -445 227 -64 129 -6 259
145 320 51 20 70 22 270 22 226 -1 312 -11 565 -69 l100 -23 3 210 c1 116 1
212 -1 214 -9 8 -201 53 -317 73 -166 29 -554 37 -672 15z"/>
<path d="M3930 1250 l0 -1210 245 0 245 0 0 995 0 995 233 0 c240 0 376 -11
433 -35 51 -21 119 -90 145 -148 21 -45 24 -68 24 -167 0 -106 -2 -120 -28
-172 -32 -65 -81 -112 -146 -141 -40 -18 -75 -22 -276 -28 -126 -4 -231 -7
-232 -8 -2 0 -3 -95 -3 -211 l0 -210 99 0 99 0 258 -436 259 -436 267 4 c147
2 270 6 274 10 3 4 -116 210 -265 458 -150 248 -274 457 -277 465 -4 8 -1 15
6 15 6 0 49 18 95 40 139 66 250 185 315 338 44 105 53 170 48 359 -5 155 -7
174 -35 250 -66 180 -171 303 -326 378 -152 73 -219 85 -537 95 -151 5 -420 9
-597 9 l-323 1 0 -1210z"/>
<path d="M8060 1250 l0 -1210 235 0 235 0 0 772 c0 439 4 768 9 763 4 -6 115
-296 246 -645 130 -349 238 -636 239 -637 2 -2 55 146 119 327 l117 331 -84
232 c-47 128 -173 466 -279 752 l-195 520 -321 3 -321 2 0 -1210z"/>
<path d="M9959 2433 c-60 -156 -848 -2377 -845 -2380 2 -2 105 -7 228 -10
l223 -5 58 168 c149 429 492 1374 499 1374 4 0 8 -346 8 -770 l0 -770 235 0
235 0 0 1210 0 1210 -315 0 -315 0 -11 -27z"/>
</g>
</svg>
