<?xml version="1.0" standalone="no"?>
<!DOCTYPE svg PUBLIC "-//W3C//DTD SVG 20010904//EN"
 "http://www.w3.org/TR/2001/REC-SVG-20010904/DTD/svg10.dtd">
<svg version="1.0" xmlns="http://www.w3.org/2000/svg"
 width="160.000000pt" height="193.000000pt" viewBox="0 0 160.000000 193.000000"
 preserveAspectRatio="xMidYMid meet">

<g transform="translate(0.000000,193.000000) scale(0.100000,-0.100000)"
fill="#ffffff" stroke="none">
<path d="M270 1610 c0 -278 2 -320 15 -320 13 0 15 42 15 320 0 278 -2 320
-15 320 -13 0 -15 -42 -15 -320z"/>
<path d="M480 1610 c0 -313 0 -320 20 -320 20 0 20 7 20 320 0 313 0 320 -20
320 -20 0 -20 -7 -20 -320z"/>
<path d="M690 1610 l0 -320 25 0 25 0 0 320 0 320 -25 0 -25 0 0 -320z"/>
<path d="M900 1615 c0 -308 0 -315 -20 -315 -20 0 -20 -7 -20 -325 0 -318 0
-325 20 -325 20 0 20 -7 20 -325 l0 -325 30 0 30 0 0 330 0 330 -30 0 -30 0 0
315 0 315 30 0 30 0 0 320 0 320 -30 0 -30 0 0 -315z"/>
<path d="M1107 1459 c-4 -260 -4 -694 0 -965 l6 -494 39 0 38 0 0 330 0 330
-30 0 -30 0 0 315 0 315 30 0 30 0 0 320 0 320 -38 0 -39 0 -6 -471z"/>
<path d="M150 975 l0 -325 35 0 35 0 0 325 0 325 -35 0 -35 0 0 -325z"/>
<path d="M390 975 l0 -325 30 0 30 0 0 325 0 325 -30 0 -30 0 0 -325z"/>
<path d="M620 975 l0 -325 25 0 25 0 0 325 0 325 -25 0 -25 0 0 -325z"/>
<path d="M270 330 c0 -287 2 -330 15 -330 13 0 15 43 15 330 0 287 -2 330 -15
330 -13 0 -15 -43 -15 -330z"/>
<path d="M480 330 c0 -323 0 -330 20 -330 20 0 20 7 20 330 0 323 0 330 -20
330 -20 0 -20 -7 -20 -330z"/>
<path d="M690 330 l0 -330 25 0 25 0 0 330 0 330 -25 0 -25 0 0 -330z"/>
</g>
</svg>
