<?xml version="1.0" standalone="no"?>
<!DOCTYPE svg PUBLIC "-//W3C//DTD SVG 20010904//EN"
 "http://www.w3.org/TR/2001/REC-SVG-20010904/DTD/svg10.dtd">
<svg version="1.0" xmlns="http://www.w3.org/2000/svg"
 width="1500.000000pt" height="804.000000pt" viewBox="0 0 1500.000000 804.000000"
 preserveAspectRatio="xMidYMid meet">

<g transform="translate(0.000000,804.000000) scale(0.100000,-0.100000)"
fill="#FFFFFF" stroke="none">
<path d="M0 7310 l0 -730 720 0 720 0 0 -3290 0 -3290 620 0 620 0 0 3290 0
3290 820 0 820 0 0 -3287 0 -3288 2265 -3 2265 -2 0 3290 0 3290 820 0 820 0
0 -3290 0 -3290 720 0 720 0 0 3290 0 3290 820 0 820 0 0 -3290 0 -3290 715 0
715 0 -2 4008 -3 4007 -3797 3 -3798 2 -2 -3282 -3 -3283 -817 -3 -818 -2 0
3295 0 3295 -2880 0 -2880 0 0 -730z"/>
</g>
</svg>
