<?xml version="1.0" standalone="no"?>
<!DOCTYPE svg PUBLIC "-//W3C//DTD SVG 20010904//EN"
 "http://www.w3.org/TR/2001/REC-SVG-20010904/DTD/svg10.dtd">
<svg version="1.0" xmlns="http://www.w3.org/2000/svg"
 width="1200.000000pt" height="1169.000000pt" viewBox="0 0 1200.000000 1169.000000"
 preserveAspectRatio="xMidYMid meet">

<g transform="translate(0.000000,1169.000000) scale(0.100000,-0.100000)"
fill="#ffffff" stroke="none">
<path d="M6482 11677 c-6 -7 -14 -32 -18 -55 -4 -26 -13 -43 -23 -46 -79 -22
-140 -13 -189 29 -34 28 -83 33 -102 10 -9 -11 -11 -37 -7 -88 4 -62 15 -103
52 -191 8 -18 4 -19 -111 -13 -65 3 -156 13 -201 22 -61 12 -88 13 -103 5 -47
-25 -15 -81 117 -206 l86 -80 -88 -22 c-92 -23 -139 -45 -132 -65 4 -13 13
-18 148 -80 117 -54 197 -112 246 -181 50 -68 64 -79 160 -128 70 -35 93 -41
147 -42 60 -1 63 -2 49 -18 -8 -9 -17 -35 -20 -57 l-6 -41 -542 0 -542 0 -12
39 c-10 36 -60 91 -82 91 -5 0 -9 4 -9 8 0 5 33 19 73 32 59 20 93 24 187 24
125 1 177 -11 234 -49 90 -61 139 -1 77 96 -68 105 -204 208 -327 249 l-64 22
52 46 c102 91 138 138 138 183 0 41 -20 49 -121 52 -90 3 -98 5 -186 50 -51
26 -132 59 -180 74 -78 24 -105 27 -234 27 l-147 1 -6 58 c-7 68 -31 124 -54
130 -29 6 -71 -22 -92 -62 -21 -43 -49 -59 -183 -106 -92 -32 -207 -105 -259
-163 -21 -23 -51 -69 -68 -102 -35 -69 -86 -130 -136 -160 -18 -12 -69 -30
-111 -40 -91 -22 -209 -63 -274 -96 l-46 -23 4 72 c4 62 1 78 -19 117 -29 53
-100 105 -158 115 -141 24 -278 -108 -256 -246 9 -56 32 -97 77 -140 l39 -36
-55 -66 c-57 -69 -155 -156 -205 -182 -17 -9 -56 -15 -93 -15 l-64 0 -6 88
c-6 104 -29 177 -69 226 -37 45 -63 46 -86 5 -34 -63 -131 -185 -200 -251
l-70 -68 -131 0 -131 0 0 -153 0 -153 -31 -30 c-17 -16 -44 -46 -59 -66 l-27
-37 -56 60 c-60 63 -88 79 -142 79 -42 0 -60 -26 -45 -65 16 -43 11 -148 -10
-216 -10 -35 -44 -101 -74 -146 -58 -88 -88 -166 -107 -278 -7 -38 -13 -71
-15 -73 -1 -2 -19 5 -41 16 -46 24 -129 42 -186 42 -51 0 -140 -23 -173 -44
-40 -27 -30 -53 50 -130 79 -77 97 -112 117 -235 23 -144 87 -240 192 -289 54
-25 53 -20 12 -124 -25 -61 -97 -178 -153 -246 l-35 -42 -15 22 c-9 13 -32 43
-52 68 -21 25 -42 61 -49 81 -6 20 -28 55 -48 79 -121 141 -347 112 -436 -55
-16 -30 -22 -58 -22 -115 0 -66 4 -82 31 -130 56 -99 173 -154 279 -130 26 6
56 15 65 20 16 8 21 3 35 -38 9 -26 19 -85 22 -133 8 -120 -20 -212 -96 -316
l-31 -42 -58 59 c-58 58 -59 61 -66 127 -9 87 -57 231 -102 305 -72 119 -192
214 -263 209 -97 -6 -109 -82 -30 -191 24 -32 43 -192 34 -276 -4 -35 -19 -88
-35 -123 -35 -74 -60 -154 -60 -193 0 -28 0 -28 -30 -13 -40 21 -67 19 -81 -6
-12 -23 -9 -62 11 -184 9 -49 10 -123 5 -245 -10 -234 -11 -346 -3 -400 l7
-45 -79 3 c-109 5 -209 -25 -262 -78 -62 -61 -52 -91 51 -165 43 -30 105 -105
134 -160 8 -16 40 -82 71 -145 63 -133 135 -221 230 -282 64 -41 168 -78 221
-78 39 0 45 -14 45 -105 0 -53 16 -172 35 -261 l7 -32 -58 29 c-31 16 -74 32
-94 35 -29 5 -41 14 -55 41 -46 85 -153 140 -255 130 -144 -13 -245 -123 -244
-267 0 -83 28 -145 91 -200 105 -92 248 -90 362 6 l32 27 52 -24 c79 -37 186
-148 230 -239 36 -75 57 -146 41 -138 -5 2 -52 25 -104 51 -113 56 -257 95
-298 81 -58 -20 -36 -137 58 -304 26 -47 50 -97 54 -112 6 -26 4 -28 -28 -28
-64 0 -140 37 -216 105 -77 69 -120 83 -138 48 -32 -61 -19 -227 29 -372 18
-53 71 -173 119 -268 l87 -171 -55 -7 c-45 -6 -62 -14 -98 -47 -71 -65 -56
-104 49 -128 175 -39 392 -236 463 -420 30 -80 235 -273 346 -326 33 -15 36
-20 24 -33 -51 -57 -70 -282 -33 -388 25 -71 83 -158 148 -220 83 -80 105 -94
192 -123 l80 -27 -48 -16 c-26 -9 -67 -33 -91 -53 -113 -92 -87 -169 66 -200
82 -17 194 -65 230 -99 95 -88 196 -103 168 -24 -22 64 -145 140 -292 179 -43
11 -88 26 -98 31 -18 10 -19 12 -3 29 24 27 125 69 207 87 51 10 103 13 171
10 91 -5 100 -4 124 17 45 39 6 82 -85 93 l-51 6 62 74 c34 41 71 86 83 100
16 21 26 25 47 19 40 -10 98 -65 120 -114 18 -43 18 -44 -1 -65 -143 -161
-170 -198 -187 -259 -60 -213 -4 -399 157 -522 48 -36 141 -79 238 -111 140
-46 284 -125 379 -210 78 -70 334 -222 586 -348 736 -368 1487 -573 2300 -628
211 -14 663 -6 870 16 801 85 1559 338 2284 763 172 100 378 234 477 308 80
60 153 90 247 100 158 16 319 145 377 303 29 77 29 201 -1 296 -30 98 -39 112
-137 228 -127 149 -117 132 -92 167 26 36 98 80 131 80 18 -1 36 -17 69 -61
25 -34 63 -78 86 -99 l41 -38 -49 -6 c-62 -9 -105 -45 -88 -75 15 -29 41 -34
185 -36 91 -2 146 -7 185 -20 68 -21 142 -58 159 -79 12 -14 9 -18 -23 -31
-19 -8 -59 -20 -88 -26 -133 -27 -304 -144 -296 -202 3 -19 9 -22 45 -21 35 1
54 9 103 48 74 58 164 100 258 119 116 24 158 65 132 127 -18 44 -93 106 -153
126 l-52 17 38 13 c58 20 125 71 214 160 62 64 91 103 123 166 71 145 75 256
11 383 l-28 55 33 10 c58 20 153 89 249 181 84 81 99 101 146 197 45 93 63
117 138 192 99 97 206 163 308 190 36 10 72 25 81 34 39 39 -51 128 -140 141
-27 3 -48 8 -48 11 0 2 23 45 50 94 66 119 131 264 165 370 33 102 46 287 23
330 -24 45 -56 38 -132 -29 -80 -71 -141 -102 -209 -109 l-50 -5 6 29 c3 16
26 65 52 109 61 107 88 180 89 239 1 44 -2 52 -25 65 -24 13 -35 13 -115 -7
-54 -13 -132 -43 -196 -75 -106 -53 -108 -54 -101 -28 32 137 133 276 247 342
l49 28 41 -35 c52 -44 132 -68 200 -60 123 14 205 67 251 161 24 48 27 64 23
128 -4 88 -37 151 -105 203 -81 62 -218 67 -323 14 -37 -19 -99 -81 -120 -119
-6 -12 -16 -21 -23 -21 -7 0 -41 -14 -76 -30 -45 -22 -62 -26 -57 -15 14 39
37 180 44 275 l7 105 55 7 c79 10 160 43 228 92 102 75 167 166 238 332 48
112 109 193 186 250 73 53 83 72 63 119 -27 67 -163 120 -290 113 l-75 -3 7
80 c10 104 9 149 -6 270 -14 115 -6 320 15 405 18 72 18 93 -4 120 -19 24 -24
24 -93 -4 -13 -6 -17 3 -22 54 -3 41 -17 85 -43 138 -33 68 -37 88 -42 173 -6
127 10 217 49 272 17 24 33 62 36 84 5 35 2 43 -22 61 -59 46 -142 18 -240
-82 -97 -99 -171 -268 -190 -433 -6 -56 -10 -65 -38 -82 -18 -11 -40 -33 -50
-50 -10 -17 -21 -31 -25 -31 -13 1 -71 86 -96 141 -28 59 -48 173 -40 223 3
17 10 57 16 89 l11 58 41 -8 c195 -38 370 85 370 262 -1 184 -163 300 -353
251 -109 -28 -178 -95 -205 -199 -8 -31 -25 -71 -38 -89 -13 -18 -24 -35 -25
-37 -4 -7 -55 56 -109 137 -55 81 -113 201 -114 234 0 11 19 27 50 43 104 53
159 136 184 279 21 125 62 205 131 256 67 50 77 76 41 107 -64 55 -226 64
-336 20 -35 -14 -66 -24 -68 -22 -2 2 -10 40 -18 84 -17 101 -56 200 -102 259
-78 103 -114 232 -92 338 15 80 10 94 -33 94 -55 0 -101 -26 -154 -85 l-49
-56 -32 45 c-18 25 -49 58 -67 72 l-34 26 -3 141 -3 142 -232 5 -231 5 -42 48
c-56 63 -142 128 -212 160 -78 35 -140 79 -225 159 -83 79 -120 88 -166 43
-47 -48 -46 -130 3 -220 29 -53 44 -96 55 -157 5 -35 4 -38 -18 -38 -17 0 -33
12 -52 40 -35 50 -80 85 -153 116 -221 97 -360 219 -398 351 -16 55 -16 56 11
109 77 152 -20 318 -185 318 -122 0 -214 -93 -214 -215 1 -40 7 -68 23 -94
l22 -38 -63 5 c-122 10 -260 82 -313 163 -102 153 -310 284 -485 305 -120 14
-259 75 -359 156 -55 45 -81 53 -99 31z m134 -142 c76 -46 138 -68 258 -94
181 -38 268 -91 436 -262 93 -94 129 -124 187 -153 40 -20 77 -36 83 -36 27 0
197 -83 244 -119 29 -23 62 -41 74 -41 25 0 42 27 42 69 0 45 35 66 89 51 32
-8 42 -17 47 -38 28 -115 126 -208 379 -356 44 -26 100 -65 125 -86 l45 -39
-171 -1 -172 0 -12 30 c-24 57 -119 118 -218 139 -29 6 -87 11 -129 11 -98 0
-145 24 -175 91 -39 83 -130 125 -253 116 -89 -7 -160 -37 -203 -87 -41 -49
-197 -167 -320 -243 l-92 -57 -150 0 c-82 0 -150 3 -150 8 0 17 60 109 89 136
17 17 31 33 31 36 0 4 -51 10 -112 13 -196 9 -335 69 -475 204 -70 67 -127
104 -187 119 -14 3 -26 13 -26 20 0 20 42 34 103 34 44 0 60 -6 119 -46 99
-66 243 -131 355 -161 78 -20 130 -26 259 -30 l161 -6 -44 -40 c-71 -65 -102
-151 -73 -197 8 -12 19 -6 62 36 110 107 236 182 345 204 83 18 48 59 -52 61
l-50 0 41 18 c50 23 132 41 185 41 38 0 39 1 33 28 -3 15 -19 56 -36 91 -78
164 -291 295 -570 351 -118 24 -168 52 -197 108 -30 60 -33 78 -16 96 22 22
24 21 91 -19z m-360 -9 c18 -29 97 -49 170 -45 45 3 45 3 74 -49 19 -35 25
-54 17 -56 -69 -18 -155 -36 -168 -36 -21 0 -96 66 -113 99 -8 14 -17 45 -21
69 -5 34 -4 42 9 42 8 0 23 -11 32 -24z m-1538 -128 c18 -18 14 -53 -9 -74
-12 -10 -78 -57 -147 -104 -117 -79 -209 -165 -201 -188 2 -6 36 14 76 43 96
70 230 138 339 171 79 24 106 28 234 28 177 1 230 -13 346 -90 45 -30 93 -54
107 -54 69 0 77 -40 18 -99 -57 -57 -201 -106 -201 -68 0 7 -15 27 -32 44
-106 100 -323 133 -522 79 -102 -27 -225 -79 -286 -120 -23 -16 -56 -26 -97
-30 -34 -3 -77 -12 -95 -19 -31 -13 -23 -14 112 -21 210 -10 350 -29 350 -46
0 -19 -40 -28 -170 -39 -143 -11 -249 -37 -293 -71 -14 -11 -38 -20 -54 -20
-15 0 -68 -10 -118 -21 -65 -14 -117 -19 -184 -17 -81 3 -95 1 -105 -15 -15
-24 6 -37 61 -37 49 0 132 -17 153 -31 13 -8 13 -11 -3 -23 -14 -11 -57 -14
-180 -14 -220 1 -331 -25 -414 -97 l-41 -35 -123 0 -122 0 59 39 c77 50 128
105 154 164 19 43 24 47 56 47 19 0 53 9 75 20 34 18 40 19 45 5 3 -8 11 -15
17 -15 6 0 68 31 137 70 89 49 148 74 196 84 178 38 254 81 291 164 70 160
225 301 331 302 45 0 95 23 144 65 43 36 75 44 96 23z m2091 -133 c88 -21 180
-67 237 -119 l48 -43 -100 14 c-182 26 -357 0 -399 -61 -27 -38 -19 -47 28
-30 58 22 209 29 293 15 72 -13 213 -56 227 -70 13 -13 -99 -77 -186 -106
-228 -76 -531 -13 -802 168 -33 22 -89 58 -125 79 -78 48 -130 96 -130 119 0
27 10 29 70 13 80 -21 233 -18 353 7 200 42 350 46 486 14z m1229 -5 c53 -33
76 -107 49 -160 -11 -22 -21 -26 -77 -31 -36 -4 -79 -10 -97 -14 -29 -7 -34
-4 -52 26 -71 117 61 250 177 179z m-2996 -209 c106 -37 168 -78 168 -113 0
-11 -18 -29 -47 -46 -26 -15 -99 -61 -162 -104 -114 -75 -118 -76 -208 -88
-109 -15 -264 -9 -313 12 l-35 15 54 16 c30 9 92 22 139 27 97 12 149 28 196
61 44 30 74 78 56 89 -19 12 -213 24 -259 16 -129 -20 42 84 189 115 111 23
155 23 222 0z m-1617 -37 c45 -21 80 -88 71 -136 -12 -64 -74 -118 -137 -118
-65 0 -129 67 -129 134 0 103 101 165 195 120z m2054 -149 c85 -20 154 -59
203 -115 l40 -45 -108 -6 c-131 -8 -258 -31 -356 -64 -80 -27 -220 -34 -290
-14 -34 9 -53 29 -29 29 5 0 47 36 94 79 46 44 108 96 137 115 53 35 57 36
150 36 52 0 124 -7 159 -15z m2089 -131 c31 -20 28 -32 -13 -40 -19 -3 -55
-19 -80 -35 -60 -38 -100 -118 -92 -185 l5 -44 -191 0 c-105 0 -187 4 -181 8
5 5 34 26 64 47 30 22 107 80 170 129 63 49 130 98 148 109 63 37 121 41 170
11z m1239 7 c6 -10 53 -36 104 -57 120 -50 195 -99 277 -182 l67 -67 -73 -3
-73 -3 -69 64 c-69 64 -122 97 -155 97 -11 0 5 -24 49 -71 36 -39 66 -75 66
-80 0 -5 -38 -9 -84 -9 l-85 0 -11 57 c-7 31 -23 85 -36 120 -26 69 -31 122
-12 141 16 16 21 15 35 -7z m-4434 -144 c33 -15 85 -54 129 -96 l73 -70 -117
-1 c-116 0 -118 0 -118 23 0 49 -23 100 -62 139 l-41 41 41 -5 c22 -3 65 -17
95 -31z m-1633 -19 c20 -33 25 -83 14 -125 -6 -22 -11 -23 -102 -23 l-95 0 65
68 c36 37 70 77 77 90 15 29 18 28 41 -10z m4890 22 c0 -6 21 -31 46 -57 42
-42 45 -48 37 -77 l-9 -31 -114 0 -115 0 -3 40 c-4 48 18 94 56 118 30 18 102
23 102 7z m-2958 -40 c20 0 59 5 87 11 39 8 65 7 127 -6 44 -9 131 -18 194
-19 131 -2 152 -11 189 -76 l22 -40 -280 0 -280 0 -105 70 c-58 39 -107 74
-110 78 -3 5 23 3 57 -5 34 -7 79 -13 99 -13z m-486 -6 c38 -18 64 -58 64 -99
l0 -25 -115 0 -115 0 0 29 c0 22 6 30 25 35 14 4 33 19 42 34 31 48 45 51 99
26z m3879 -44 c34 -16 71 -41 85 -55 l23 -25 -186 0 -187 0 0 40 c0 44 13 56
83 70 60 12 113 3 182 -30z m-4149 -16 c16 -4 19 -12 16 -35 l-4 -29 -202 1
-201 0 45 20 c25 11 70 27 100 34 56 14 208 19 246 9z m5931 -486 c55 -61 56
-69 20 -139 -18 -35 -37 -77 -44 -94 -9 -25 -11 -5 -12 113 -1 78 3 142 7 142
5 0 18 -10 29 -22z m-7699 -147 l-3 -50 -31 58 -32 58 32 40 31 41 3 -49 c2
-27 2 -71 0 -98z m7941 55 c12 -13 40 -69 62 -125 21 -56 63 -150 93 -209 30
-59 62 -136 71 -171 43 -169 39 -392 -9 -439 -19 -19 -29 -22 -59 -17 -40 8
-39 4 -52 164 -17 199 -122 417 -261 538 l-57 50 13 39 c26 83 118 194 161
194 8 0 26 -11 38 -24z m-8085 -32 c48 -49 96 -133 96 -169 0 -12 -21 -42 -52
-71 -159 -152 -246 -345 -264 -587 l-7 -96 -33 -11 c-27 -9 -38 -8 -58 5 -33
22 -41 73 -40 235 2 157 24 247 98 390 29 58 70 149 91 202 62 164 91 181 169
102z m7899 -347 c113 -115 180 -249 207 -417 13 -83 11 -172 -5 -176 -5 -2
-35 29 -65 68 -30 39 -94 110 -142 158 l-88 87 0 176 c0 117 4 177 10 177 6 0
43 -33 83 -73z m-7835 -396 c-46 -47 -105 -114 -132 -148 -65 -83 -80 -77 -71
26 19 222 90 386 223 516 l57 57 3 -182 2 -182 -82 -87z m8633 182 c19 -19 1
-57 -40 -85 -33 -24 -44 -41 -70 -112 -16 -47 -40 -122 -51 -168 -29 -116 -69
-172 -139 -193 l-24 -7 5 74 c5 85 36 163 88 222 l33 37 -53 -31 c-29 -17 -53
-30 -54 -28 -2 2 0 54 2 116 l4 112 44 26 c25 15 64 32 87 40 48 16 152 13
168 -3z m-9204 -22 c77 -34 80 -40 88 -169 l8 -113 -52 30 -51 31 40 -53 c22
-29 46 -72 54 -94 19 -55 30 -148 19 -167 -8 -14 -12 -14 -43 2 -57 29 -86 77
-119 198 -40 148 -69 223 -94 243 -40 31 -77 70 -77 80 0 5 8 17 17 26 24 24
140 16 210 -14z m3603 -61 c17 -9 18 -48 16 -962 -2 -805 -5 -957 -17 -976
-28 -45 -91 -55 -379 -57 -146 -2 -296 -8 -335 -14 -64 -9 -72 -9 -90 9 -18
18 -18 25 -8 87 9 49 9 138 1 342 -6 164 -7 456 -3 721 4 245 6 477 5 515 -2
102 17 192 49 227 36 41 78 47 324 48 218 0 304 11 377 50 19 10 36 18 38 19
2 1 12 -3 22 -9z m1917 -27 c33 -16 71 -18 306 -18 264 0 269 0 286 -22 28
-33 46 -137 46 -263 1 -403 -17 -1646 -24 -1653 -4 -4 -17 -7 -27 -7 -10 1
-151 3 -312 5 -324 4 -391 12 -432 54 l-26 26 2 931 c2 703 5 937 14 954 11
21 17 22 71 16 32 -3 76 -14 96 -23z m1566 -926 c-1 -522 -4 -959 -7 -973 -4
-13 -21 -32 -39 -41 -29 -16 -65 -18 -357 -18 -285 -1 -330 -3 -364 -18 -91
-40 -99 -26 -86 154 5 79 11 495 13 925 2 721 4 783 20 807 39 60 48 62 326
63 251 2 342 10 418 39 21 8 47 13 58 12 20 -2 20 -9 18 -950z m-5013 904 c78
-23 63 -22 456 -10 23 1 62 -6 88 -16 37 -14 52 -27 69 -59 20 -40 21 -53 21
-436 1 -217 -1 -604 -3 -860 -2 -256 -1 -490 3 -520 10 -82 6 -85 -105 -65
-63 11 -179 18 -352 22 -236 5 -262 8 -300 27 l-42 21 -8 415 c-11 613 -3
1476 14 1496 16 19 51 16 159 -15z m1870 -1 c37 -20 44 -51 50 -212 6 -194 3
-189 133 -198 111 -7 150 -25 145 -67 -5 -45 -44 -64 -137 -67 -130 -5 -121
16 -136 -353 -11 -308 -10 -627 3 -692 12 -54 47 -74 144 -78 119 -6 127 -8
144 -50 15 -35 15 -37 -10 -62 -25 -24 -32 -26 -124 -26 -94 0 -126 -8 -149
-37 -6 -7 -16 -94 -22 -193 -7 -99 -14 -188 -17 -198 -13 -43 -37 -45 -510
-51 -472 -6 -497 -4 -481 36 11 30 98 38 452 41 466 4 450 -3 464 220 4 72 7
512 7 977 -1 673 -5 860 -16 919 -13 69 -12 75 5 87 23 17 30 17 55 4z m1169
-3 c8 -11 4 -32 -15 -88 l-26 -74 -1 -955 c-2 -1034 -4 -1000 52 -1037 23 -15
67 -18 411 -24 387 -7 459 -14 489 -44 15 -15 14 -18 -8 -36 -23 -19 -39 -20
-490 -17 -501 3 -496 3 -520 55 -6 13 -11 77 -11 141 0 142 -10 181 -56 221
-31 28 -42 31 -97 31 -110 0 -167 29 -167 86 0 39 35 58 137 71 114 14 140 33
155 110 5 26 11 238 14 471 4 466 3 476 -55 506 -17 9 -70 19 -123 22 -112 8
-138 21 -138 69 0 49 33 67 147 82 52 6 105 19 119 28 39 25 54 73 54 173 0
110 15 193 37 210 22 16 78 15 92 -1z m-1353 -12 c12 -8 32 -38 45 -67 l24
-53 -3 -915 c-2 -615 -6 -918 -13 -927 -18 -21 -57 14 -87 81 l-29 61 3 907
c1 499 5 912 9 917 9 15 27 14 51 -4z m3484 -17 c11 -12 29 -46 40 -76 20 -54
21 -70 18 -956 -2 -495 -7 -907 -11 -913 -13 -21 -31 -15 -65 20 -69 71 -65
12 -57 1017 6 816 8 906 23 918 22 17 28 15 52 -10z m215 -3 c24 -23 25 -29
25 -158 0 -123 2 -137 23 -167 27 -40 72 -58 149 -59 68 -1 102 -15 117 -48
15 -34 14 -47 -8 -74 -17 -22 -30 -25 -125 -30 -91 -5 -109 -9 -129 -28 l-24
-21 -6 -448 c-3 -260 -2 -468 4 -497 13 -73 42 -95 127 -95 85 -1 140 -13 165
-39 17 -17 19 -25 11 -53 -14 -49 -50 -62 -167 -63 -96 0 -99 -1 -123 -28 -18
-21 -24 -40 -24 -75 0 -26 -7 -106 -15 -177 -14 -114 -18 -133 -40 -155 l-25
-25 -408 -3 c-459 -3 -585 3 -590 30 -2 11 9 23 30 35 30 16 67 17 448 14 412
-3 415 -3 442 19 32 25 50 80 48 153 -1 29 3 273 8 542 11 593 1 1340 -18
1402 -11 34 -11 44 -1 57 21 25 78 20 106 -9z m-5820 2 c17 -13 17 -15 0 -63
-17 -45 -19 -107 -23 -844 -4 -727 4 -1144 24 -1213 3 -9 20 -25 37 -34 41
-21 323 -34 597 -26 231 7 305 0 321 -29 8 -15 7 -24 -7 -39 -16 -18 -35 -19
-448 -18 -499 1 -539 4 -572 43 -22 25 -24 36 -24 139 0 62 -3 142 -6 179 -8
81 -16 86 -156 97 -83 7 -102 11 -123 31 -49 46 -23 102 55 119 28 6 78 11
111 11 84 0 95 8 104 77 12 93 14 903 3 948 -17 68 -29 75 -132 75 -150 0
-206 28 -184 90 16 48 52 63 160 70 75 5 102 10 118 25 29 26 50 106 50 189 0
85 12 131 42 163 25 27 28 27 53 10z m171 -955 c-2 -854 -4 -960 -18 -987 -23
-43 -64 -79 -82 -72 -14 6 -16 106 -16 941 0 920 0 936 21 990 21 57 60 99 84
90 11 -5 13 -160 11 -962z m3435 906 c8 -31 11 -260 10 -808 -1 -872 -5 -1007
-32 -1062 -22 -43 -55 -66 -72 -49 -16 16 -13 1818 4 1869 15 45 48 92 65 92
7 0 18 -19 25 -42z m3121 -106 c49 -77 89 -165 95 -213 7 -46 0 -48 -87 -21
l-55 18 -3 137 c-1 75 1 137 5 137 4 0 25 -26 45 -58z m-7712 -101 l0 -129
-32 -11 c-18 -5 -46 -11 -63 -13 -29 -3 -30 -1 -27 32 2 19 15 60 28 90 24 52
85 160 91 160 2 0 3 -58 3 -129z m8101 -51 c4 -8 53 -107 108 -220 116 -237
213 -404 247 -427 22 -14 26 -14 48 0 13 9 30 33 36 54 23 71 60 91 108 57 31
-21 28 -55 -8 -89 -17 -16 -29 -34 -28 -39 1 -6 -5 -33 -14 -61 -52 -157 -17
-334 99 -507 l54 -81 -22 -69 -22 -68 -37 34 c-21 19 -50 42 -65 52 -14 9 -37
38 -50 64 -89 175 -248 355 -367 414 -39 20 -77 36 -84 36 -8 0 -14 10 -14 23
0 12 -3 32 -6 45 -6 21 -3 22 41 22 55 0 110 -24 132 -56 21 -33 43 -31 43 4
0 52 -120 275 -307 570 -49 76 -82 139 -79 147 4 10 21 15 54 15 56 0 72 12
72 55 0 18 3 35 7 39 11 11 45 2 54 -14z m-8455 -33 c1 -47 6 -51 61 -53 25
-1 52 -8 60 -16 13 -13 9 -23 -30 -79 -70 -101 -256 -415 -304 -513 -39 -82
-56 -156 -35 -156 5 0 19 12 33 26 35 38 72 54 124 54 48 0 50 -3 39 -59 -4
-17 -12 -31 -19 -31 -6 0 -40 -14 -74 -31 -114 -57 -259 -215 -352 -384 -29
-53 -56 -85 -104 -124 -36 -30 -67 -52 -68 -50 -1 2 -12 32 -23 65 l-22 61 45
64 c90 130 133 253 133 385 0 88 -23 170 -60 209 -50 54 -48 96 5 131 23 15
27 15 49 1 13 -9 30 -33 36 -54 17 -51 38 -73 71 -73 23 0 34 11 72 73 74 118
167 293 233 437 71 153 78 162 107 158 17 -2 22 -10 23 -41z m8069 -137 c2 -4
-9 -20 -25 -35 l-30 -29 0 35 c0 20 3 38 6 41 6 7 43 -2 49 -12z m-7715 -21
c0 -18 -2 -19 -15 -9 -8 7 -15 16 -15 21 0 5 7 9 15 9 9 0 15 -9 15 -21z
m7884 -50 c14 -7 37 -29 51 -50 l25 -39 -69 0 c-69 0 -194 -31 -206 -50 -13
-21 -25 3 -25 49 0 48 0 49 48 69 79 34 133 40 176 21z m-7921 -22 c36 -15 37
-18 37 -66 0 -28 -2 -51 -4 -51 -2 0 -23 7 -47 17 -24 9 -86 19 -137 22 l-93
6 45 49 45 49 58 -5 c32 -3 75 -13 96 -21z m-1009 -65 c21 -15 47 -42 57 -61
l18 -35 -33 -22 c-44 -30 -60 -72 -52 -133 6 -48 6 -49 -25 -60 -67 -23 -133
-10 -182 37 -41 39 -57 74 -57 127 0 149 152 231 274 147z m9937 3 c42 -27 79
-96 79 -146 0 -48 -38 -119 -79 -146 -38 -25 -86 -29 -127 -11 -24 11 -26 16
-20 56 7 54 -11 100 -54 134 -31 24 -32 26 -17 54 16 31 49 63 82 83 28 16 93
5 136 -24z m-903 -71 c26 -5 42 -23 92 -100 56 -86 110 -191 110 -213 0 -5
-30 -6 -67 -3 -60 4 -73 9 -110 42 -90 79 -210 80 -310 4 l-33 -25 0 103 0
104 53 32 c82 50 186 72 265 56z m-8127 -20 c30 -9 73 -27 97 -40 l42 -25 0
-99 0 -99 -56 30 c-96 50 -214 33 -283 -39 -23 -25 -35 -30 -99 -34 -39 -3
-72 -4 -72 -2 0 35 165 311 189 317 38 11 132 6 182 -9z m-1320 -292 c64 -45
133 -142 155 -220 10 -34 17 -91 16 -140 0 -78 -2 -87 -32 -128 -17 -24 -62
-102 -98 -173 l-67 -129 -45 38 -45 38 1 114 c2 100 6 124 35 208 28 81 33
109 33 190 1 99 3 92 -58 207 -10 18 -15 37 -11 42 8 14 56 -5 116 -47z
m10719 44 c0 -7 -16 -44 -36 -82 -36 -68 -36 -70 -32 -169 4 -77 11 -117 33
-175 23 -63 28 -95 32 -200 l5 -125 -45 -37 -46 -38 -66 128 c-36 70 -80 144
-96 164 -72 90 -39 308 64 434 35 42 141 114 169 114 10 0 18 -6 18 -14z
m-9365 -56 c76 -37 108 -137 65 -208 -61 -100 -211 -95 -262 8 -38 74 -8 163
66 200 51 25 79 25 131 0z m8021 1 c117 -53 112 -215 -8 -265 -42 -17 -52 -18
-89 -7 -138 41 -153 220 -24 277 41 18 73 17 121 -5z m258 -242 c61 -28 116
-77 174 -156 75 -101 126 -201 124 -239 -1 -17 2 -43 8 -58 7 -19 -8 -7 -52
39 -78 84 -200 175 -339 255 l-109 62 40 40 c21 22 42 48 45 59 8 26 53 25
109 -2z m-8549 -8 c3 -11 24 -36 45 -55 22 -20 40 -38 40 -41 0 -3 -31 -20
-69 -39 -117 -60 -277 -174 -363 -259 -45 -45 -78 -73 -73 -62 5 11 9 38 10
60 3 100 172 332 285 391 57 29 116 32 125 5z m8159 -111 c21 -7 61 -10 88 -8
46 5 51 3 73 -26 34 -45 48 -113 41 -198 -3 -40 -9 -146 -12 -234 l-6 -162
-73 35 c-58 27 -83 34 -121 31 -91 -6 -91 -61 0 -254 l54 -112 -112 5 c-61 3
-112 6 -113 7 -1 1 2 31 7 66 23 165 41 397 50 645 5 149 10 271 10 273 0 2
17 -10 38 -26 20 -17 54 -35 76 -42z m-7759 -551 c10 -112 35 -331 40 -355 5
-20 0 -22 -98 -26 -56 -3 -103 -5 -105 -3 -1 1 23 55 54 121 63 134 79 209 49
234 -30 25 -96 16 -178 -22 l-74 -36 4 92 c3 50 -2 150 -10 221 -17 151 -11
219 28 276 24 37 28 39 78 39 68 0 120 15 154 45 l28 23 11 -268 c7 -147 15
-301 19 -341z m8147 370 c45 -24 99 -69 191 -160 115 -114 127 -130 127 -162
0 -44 -39 -172 -49 -161 -4 5 -34 47 -67 94 -97 140 -220 279 -247 280 -12 0
17 -60 78 -164 72 -124 155 -295 155 -323 0 -25 -30 -93 -41 -93 -3 0 -13 7
-20 16 -7 9 -57 47 -110 85 -83 59 -100 76 -118 118 -38 88 -43 139 -32 276 6
69 11 153 11 185 l0 59 30 -9 c16 -5 57 -23 92 -41z m-8527 -116 c4 -87 7
-180 7 -206 -1 -89 -48 -205 -95 -232 -16 -10 -68 -47 -114 -81 l-84 -64 -20
44 c-19 44 -19 45 1 95 26 66 96 203 165 321 54 92 64 120 46 120 -17 0 -147
-147 -211 -240 -85 -121 -97 -136 -104 -129 -3 3 -15 43 -27 88 -20 78 -20 83
-3 109 33 51 230 237 287 271 49 29 118 59 138 61 3 0 10 -71 14 -157z m9334
92 c36 -41 79 -123 111 -212 21 -59 22 -64 6 -85 -9 -13 -46 -67 -83 -121
l-66 -99 -44 83 c-24 46 -63 110 -87 143 l-43 61 12 60 c19 89 43 141 81 175
46 40 74 38 113 -5z m-10155 -7 c36 -36 70 -117 81 -190 6 -43 4 -49 -37 -105
-24 -33 -64 -97 -87 -142 l-43 -83 -60 94 c-33 51 -69 103 -81 116 -19 21 -20
26 -9 70 7 26 33 88 57 139 66 136 116 164 179 101z m9831 -220 c161 -176 263
-376 321 -625 26 -108 28 -136 28 -323 1 -217 -21 -395 -52 -426 -26 -27 -46
-12 -55 41 -55 327 -141 675 -192 775 -36 70 -46 69 -24 -2 32 -101 50 -244
47 -363 l-3 -109 -32 84 c-43 113 -122 245 -205 341 -78 90 -85 122 -43 180
72 100 95 186 95 365 0 169 12 175 115 62z m-9518 60 c4 -7 8 -70 9 -139 1
-143 23 -251 60 -302 13 -17 30 -42 39 -53 9 -12 19 -38 22 -57 5 -33 0 -42
-49 -99 -106 -122 -178 -240 -228 -377 l-27 -74 -7 61 c-11 98 19 329 59 457
5 16 3 16 -12 -4 -56 -75 -124 -320 -192 -695 -17 -94 -33 -172 -36 -174 -3
-3 -15 0 -28 5 -20 9 -27 25 -40 95 -99 498 27 975 345 1311 55 58 71 66 85
45z m10264 -50 c-29 -61 -29 -194 1 -331 57 -267 -5 -541 -177 -782 -54 -76
-151 -182 -159 -174 -3 3 -2 48 4 100 5 52 10 134 10 184 0 80 4 98 36 172 29
69 36 101 44 195 5 62 16 134 24 160 8 27 11 46 6 43 -13 -8 -79 -149 -104
-221 l-23 -69 -7 50 c-4 28 -18 92 -32 144 l-24 94 24 54 c40 85 123 199 226
307 100 104 148 142 163 127 6 -6 1 -27 -12 -53z m-11093 38 c34 -17 181 -169
245 -253 74 -97 130 -207 124 -246 -4 -31 -45 -216 -54 -247 -2 -8 -16 19 -29
60 -23 69 -93 214 -100 208 -1 -2 4 -28 11 -58 8 -30 18 -103 24 -161 7 -86
16 -122 43 -185 32 -74 34 -87 37 -199 1 -66 6 -149 10 -185 5 -36 6 -67 4
-70 -9 -9 -134 133 -189 217 -105 157 -161 327 -170 518 -5 91 -2 124 15 195
31 122 38 272 16 330 -22 58 -29 90 -21 90 4 0 19 -6 34 -14z m4739 -181 c24
-17 73 -96 73 -119 0 -9 -10 -18 -22 -20 -13 -3 -176 -7 -363 -11 -187 -3
-368 -8 -402 -12 -59 -5 -63 -4 -93 25 -25 26 -29 35 -21 51 6 10 18 22 28 26
10 4 131 9 268 11 262 3 353 12 438 43 65 24 68 24 94 6z m1753 -15 c99 -15
193 -20 350 -21 118 -1 228 -4 245 -8 37 -8 65 -53 49 -78 -9 -15 -24 -18 -80
-15 -38 1 -224 5 -414 10 -190 4 -351 11 -357 15 -23 14 -14 48 21 83 19 19
38 34 43 34 4 0 69 -9 143 -20z m1699 6 c33 -17 91 -81 91 -99 0 -36 -17 -37
-460 -37 -466 0 -467 0 -472 50 -2 18 4 28 27 40 25 13 70 15 276 12 242 -3
401 10 469 37 34 13 37 13 69 -3z m-5206 -18 c40 -20 59 -22 347 -27 270 -5
309 -8 333 -24 50 -33 26 -97 -30 -81 -16 4 -194 8 -398 9 -203 1 -378 5 -387
9 -29 13 -22 61 13 101 37 41 62 44 122 13z m6685 -133 c183 -116 288 -199
417 -329 182 -184 270 -343 282 -510 3 -44 1 -96 -4 -115 l-9 -34 -146 194
c-155 206 -330 419 -397 483 -35 34 -29 22 45 -90 124 -188 247 -449 314 -666
l18 -57 -37 15 c-122 50 -253 173 -330 308 -54 95 -106 242 -132 376 -22 115
-102 304 -175 416 -25 37 -42 74 -40 81 12 31 64 11 194 -72z m-8078 59 c0
-10 -17 -42 -37 -73 -54 -81 -160 -318 -168 -376 -30 -212 -129 -436 -254
-577 -62 -69 -228 -174 -246 -156 -7 6 44 153 99 288 60 147 140 298 224 425
90 135 92 139 27 70 -101 -107 -214 -246 -368 -451 -112 -149 -154 -197 -159
-185 -12 29 -8 174 6 228 64 241 308 502 701 752 77 49 120 70 143 71 23 0 32
-4 32 -16z m5690 -59 c42 -22 73 -79 72 -132 0 -55 -21 -79 -70 -86 -50 -6
-78 7 -102 45 -35 57 -20 136 32 172 28 20 32 20 68 1z m-3376 -68 c46 -60 27
-162 -33 -186 -38 -16 -75 -8 -107 24 -20 20 -24 34 -24 82 1 66 14 96 55 123
26 17 31 17 56 4 15 -8 39 -29 53 -47z m5597 -208 c50 -11 52 -12 79 -73 33
-74 72 -189 96 -283 9 -37 33 -109 54 -160 42 -105 40 -105 -59 -23 -32 27
-91 91 -130 142 -39 51 -101 129 -137 173 -81 98 -123 178 -108 203 20 31 112
41 205 21z m-7761 -8 c55 -15 32 -88 -65 -207 -31 -38 -92 -114 -135 -169 -43
-55 -98 -118 -122 -141 -58 -55 -123 -103 -116 -84 40 95 73 186 97 278 17 60
48 154 69 208 40 99 40 99 83 111 48 13 150 15 189 4z m7615 -251 c23 -36 59
-98 80 -139 25 -47 64 -100 109 -146 80 -81 132 -118 235 -170 39 -20 71 -37
71 -38 0 -1 -39 -2 -87 -2 -133 0 -210 -42 -271 -145 -23 -39 -27 -56 -27
-125 0 -94 20 -140 85 -199 88 -80 198 -91 332 -34 l47 20 65 -30 c87 -41 149
-100 188 -180 28 -57 33 -78 36 -163 5 -124 0 -148 -31 -142 -15 3 -29 -3 -42
-17 -17 -19 -21 -40 -23 -136 -2 -65 -8 -114 -13 -114 -6 0 -22 26 -37 58 -26
55 -27 63 -27 232 l0 175 -42 -1 c-76 -1 -161 -84 -245 -236 -24 -42 -45 -77
-48 -78 -3 0 -20 27 -38 60 -54 99 -149 218 -197 246 -48 27 -71 26 -100 -6
-16 -18 -16 -28 -6 -113 19 -152 -8 -267 -82 -344 -17 -18 -35 -33 -40 -33 -5
0 -27 15 -50 34 -56 45 -136 93 -168 101 -48 12 -53 -39 -55 -574 l-2 -473
-56 -23 c-78 -32 -140 -85 -162 -140 -17 -41 -34 -59 -34 -36 0 5 -5 22 -11
38 -7 15 -12 66 -13 113 -1 98 -21 146 -82 200 -52 45 -99 62 -169 62 -71 0
-117 -17 -170 -63 -113 -100 -112 -278 3 -381 41 -37 120 -68 173 -68 36 0 43
-23 34 -106 -4 -42 -11 -64 -20 -64 -7 0 -50 -19 -96 -42 -97 -48 -197 -142
-243 -228 -59 -109 -33 -227 66 -299 33 -24 52 -31 89 -31 43 0 51 -4 78 -37
30 -37 38 -67 23 -89 -13 -20 -73 -45 -92 -39 -31 10 -165 -13 -228 -38 l-57
-24 0 116 c0 64 4 138 9 164 10 57 -1 71 -49 61 -50 -11 -147 -64 -202 -112
l-53 -44 0 146 c0 160 -14 278 -36 314 -17 26 -52 29 -93 7 -59 -30 -214 -228
-301 -383 l-24 -42 -29 35 c-18 22 -37 35 -53 35 -35 0 -100 -69 -115 -122
-21 -79 -50 -120 -187 -262 -74 -78 -183 -194 -241 -258 -58 -65 -108 -118
-112 -118 -4 0 -14 12 -24 26 -18 28 -70 54 -108 54 -59 0 -166 -163 -188
-286 -6 -32 -13 -69 -15 -81 -3 -13 -14 -25 -27 -28 -51 -12 -260 -34 -367
-40 -95 -5 -112 -3 -96 7 10 7 105 70 212 140 776 511 1526 1215 2079 1953
498 664 854 1348 1084 2082 57 184 140 509 167 660 l19 102 29 -27 c16 -15 48
-56 71 -92z m-7446 -400 c240 -899 698 -1777 1336 -2560 187 -229 327 -383
570 -626 478 -478 891 -810 1510 -1213 l50 -32 -95 6 c-87 6 -269 27 -363 42
-28 4 -38 11 -41 27 -2 11 -10 48 -16 81 -27 138 -125 275 -196 275 -43 0 -86
-21 -111 -55 l-18 -26 -85 93 c-47 51 -157 167 -246 258 -168 173 -194 207
-215 280 -16 56 -54 105 -97 126 -30 14 -35 14 -57 0 -13 -8 -26 -25 -30 -36
-4 -12 -10 -20 -15 -18 -5 2 -49 64 -98 138 -200 301 -320 375 -354 218 -5
-24 -12 -123 -16 -220 l-7 -178 -50 41 c-101 82 -243 134 -259 94 -3 -8 2 -47
10 -85 12 -49 14 -90 9 -135 -3 -36 -7 -65 -8 -65 -1 0 -24 7 -52 16 -27 8
-97 17 -155 20 -117 5 -150 18 -150 60 0 14 9 39 20 54 18 26 26 28 99 31 69
4 85 8 123 34 89 62 99 148 33 281 -52 107 -198 230 -338 286 -66 27 -77 41
-77 97 0 84 3 87 78 87 146 1 251 106 252 252 0 75 -15 116 -67 172 -131 147
-374 91 -429 -99 -11 -35 -14 -70 -10 -99 4 -27 2 -50 -5 -58 -6 -8 -17 -31
-24 -51 l-13 -38 -7 30 c-19 85 -80 152 -158 176 l-43 12 0 446 c0 434 -7 558
-33 584 -15 15 -81 -17 -170 -82 l-75 -53 -42 44 c-73 77 -102 222 -74 368 8
43 7 58 -5 77 -20 31 -56 38 -93 19 -46 -24 -131 -124 -191 -225 l-54 -91 -51
87 c-59 100 -147 200 -193 220 -18 7 -46 13 -62 13 l-29 0 -4 -187 c-3 -171
-5 -192 -26 -230 -12 -23 -26 -44 -31 -47 -14 -9 -21 40 -19 129 4 97 -14 135
-62 135 -27 0 -29 2 -36 57 -9 76 9 191 42 254 34 68 101 131 180 170 61 30
68 32 97 20 140 -58 244 -44 332 44 49 49 67 89 73 162 7 96 -11 148 -77 214
-67 66 -118 84 -216 77 -36 -3 -65 -4 -65 -2 0 2 25 15 55 29 157 69 299 204
385 364 30 56 74 127 99 158 l45 57 33 -159 c18 -88 55 -243 82 -345z m9469
419 c56 -19 47 -65 -22 -108 -38 -24 -94 -108 -185 -280 -32 -61 -81 -138
-107 -171 -86 -108 -216 -190 -301 -190 -22 0 -23 4 -23 63 l0 63 61 59 c131
128 241 307 295 480 l26 84 42 4 c90 8 185 6 214 -4z m-11474 -7 c39 -7 40 -8
66 -87 69 -201 154 -338 296 -478 l66 -66 -7 -61 -7 -62 -42 6 c-71 11 -146
57 -226 136 -61 61 -88 99 -142 200 -102 191 -158 274 -208 312 -53 40 -60 75
-20 95 27 14 159 16 224 5z m10590 -594 c9 -49 26 -117 37 -153 19 -63 21 -65
41 -51 11 8 38 38 59 66 21 29 39 50 39 48 0 -3 -13 -70 -29 -150 -16 -79 -37
-192 -45 -250 -17 -114 -21 -258 -7 -258 4 0 26 14 47 31 22 17 70 47 109 65
77 38 75 39 89 -37 6 -35 5 -37 -52 -72 -85 -53 -184 -161 -226 -249 -32 -67
-57 -150 -71 -239 -4 -30 -49 -91 -58 -78 -1 2 -13 38 -27 79 -13 41 -45 116
-70 165 l-45 90 12 65 c47 250 -42 462 -238 565 -56 29 -69 40 -63 53 20 47
33 89 34 105 0 24 9 22 66 -14 69 -45 186 -165 213 -221 12 -25 29 -49 38 -52
32 -13 3 253 -52 483 -13 53 -22 97 -21 99 2 1 25 -51 53 -115 27 -65 54 -117
59 -117 31 4 52 106 61 299 l7 150 12 -110 c6 -60 19 -149 28 -197z m-9874
137 c1 -133 33 -295 59 -295 5 0 30 52 56 115 27 63 50 113 52 111 2 -1 -6
-41 -17 -87 -28 -118 -57 -298 -65 -403 l-8 -88 23 12 c12 6 30 30 40 53 30
67 225 247 267 247 7 0 13 -12 13 -27 0 -16 9 -46 19 -69 l18 -40 -66 -34
c-118 -62 -212 -180 -240 -301 -14 -58 -14 -215 0 -278 10 -50 10 -53 -39
-153 -27 -57 -60 -134 -72 -171 l-22 -69 -28 27 c-21 20 -30 40 -35 82 -9 71
-39 163 -78 238 -42 80 -164 201 -245 244 -54 28 -63 36 -58 55 3 11 6 33 6
49 0 19 5 27 17 27 29 0 176 -77 220 -115 l42 -36 7 28 c11 43 -12 246 -52
445 -19 99 -34 182 -32 184 2 1 23 -22 46 -52 23 -29 48 -54 57 -54 26 0 77
214 92 388 8 95 23 74 23 -33z m748 -150 c20 -9 48 -26 61 -38 30 -28 61 -94
61 -132 0 -74 -76 -168 -145 -181 -84 -15 -168 25 -204 98 -38 79 -23 155 40
214 57 53 121 66 187 39z m8464 -20 c133 -88 80 -325 -74 -325 -145 0 -232
182 -141 291 63 75 136 86 215 34z m-3192 -110 c-3 -44 -4 -165 -4 -270 6
-1017 4 -1556 -6 -1575 -13 -25 -74 -53 -148 -69 -34 -7 -188 -11 -431 -11
-360 0 -381 -1 -425 -21 -26 -11 -61 -19 -79 -17 -32 3 -32 4 -30 53 0 28 0
138 0 245 -4 448 -2 559 9 571 40 39 98 -64 97 -171 0 -36 -2 -71 -4 -79 -7
-26 42 -41 137 -41 135 0 146 21 56 108 -57 55 -59 60 -70 129 -7 40 -32 128
-57 195 -24 68 -53 162 -64 210 -12 48 -39 141 -61 208 l-40 120 0 174 c0 177
7 219 38 242 36 27 179 37 337 25 186 -14 409 -14 495 0 35 5 89 21 120 34 31
13 72 23 95 22 l40 -2 -5 -80z m-5591 46 c-8 -21 -22 -33 -56 -46 -25 -10 -74
-37 -109 -61 -35 -24 -64 -41 -64 -36 0 4 4 23 9 42 5 19 12 47 15 63 6 26 9
27 69 27 40 0 76 7 102 19 22 11 41 20 42 20 1 1 -3 -12 -8 -28z m3431 -8 c75
-25 76 -25 295 -17 442 18 556 11 608 -36 l32 -28 -3 -189 c-3 -221 -14 -306
-53 -428 -15 -50 -47 -167 -69 -260 -23 -94 -53 -210 -68 -259 -24 -82 -30
-92 -69 -120 -45 -31 -58 -68 -27 -80 21 -8 148 -8 169 0 14 6 15 19 9 99 -8
106 4 154 43 185 33 26 49 25 64 -2 17 -31 17 -814 1 -830 -7 -7 -29 -12 -50
-11 -20 1 -217 4 -437 7 -220 3 -419 8 -443 11 -57 8 -102 28 -129 57 l-22 24
-3 944 c-1 520 2 951 6 958 9 15 37 11 146 -25z m5576 21 c22 -9 67 -17 101
-18 l61 -1 15 -65 c7 -36 12 -67 11 -69 -2 -2 -20 10 -41 26 -53 41 -101 68
-145 83 -21 6 -38 15 -38 20 0 5 -3 15 -6 24 -8 20 -6 20 42 0z m-3045 -43
c29 -29 29 -30 29 -153 0 -197 13 -224 115 -239 39 -6 95 -15 125 -22 l55 -12
3 -42 c3 -37 0 -44 -25 -56 -15 -8 -71 -19 -123 -25 -87 -9 -96 -12 -122 -41
l-28 -31 -2 -328 c-4 -502 -3 -604 5 -645 12 -55 47 -73 162 -82 112 -8 155
-29 155 -74 0 -59 -63 -95 -148 -84 -51 7 -119 -13 -136 -40 -16 -25 -46 -231
-46 -316 0 -70 -15 -87 -86 -100 -51 -9 -466 -16 -965 -16 -268 0 -288 1 -308
19 -29 26 -26 43 9 61 24 13 84 15 367 15 186 0 437 5 557 10 265 13 297 22
317 92 10 33 13 261 13 1023 l0 980 -27 46 c-22 37 -25 48 -14 61 29 37 80 36
118 -1z m-2914 -17 c12 -19 10 -27 -19 -80 l-32 -59 -2 -805 c-1 -922 6 -1215
34 -1237 14 -12 60 -13 264 -8 137 3 399 2 584 -1 l336 -7 11 -24 c7 -17 7
-27 -1 -35 -18 -18 -191 -28 -512 -32 -162 -2 -392 -7 -511 -11 l-215 -8 -32
29 -33 29 -8 167 c-10 226 -20 239 -190 252 -137 11 -190 49 -141 101 27 28
80 42 190 49 135 9 123 -35 133 500 10 506 7 543 -44 592 -29 27 -33 28 -120
26 -131 -3 -191 29 -175 94 10 39 45 53 147 60 52 4 109 13 126 20 41 16 76
70 69 106 -3 15 -1 78 5 139 10 117 20 141 64 160 30 12 56 6 72 -17z m2716
-43 l32 -46 8 -190 c12 -273 3 -1703 -11 -1717 -15 -15 -69 43 -98 107 l-23
50 2 911 c2 951 3 953 43 937 8 -3 29 -26 47 -52z m-2596 11 c8 -5 13 -242 18
-919 l6 -913 -21 -47 c-12 -27 -33 -60 -47 -75 -55 -57 -53 -86 -53 919 0
1002 -3 937 52 1016 21 29 26 31 45 19z m-4171 -307 c133 -102 56 -325 -113
-325 -118 0 -201 104 -179 225 7 37 53 97 90 117 58 32 148 24 202 -17z
m11132 18 c64 -30 111 -119 98 -186 -35 -174 -233 -202 -307 -42 -24 51 -24
99 0 150 43 93 115 120 209 78z m-1186 -454 c4 -57 23 -177 41 -267 l33 -162
-43 -83 c-24 -45 -68 -109 -97 -142 l-54 -59 -7 79 c-9 110 -32 236 -57 313
-20 58 -20 70 -9 126 14 71 47 146 92 213 43 65 71 94 83 90 6 -2 14 -50 18
-108z m-8841 45 c55 -75 106 -187 117 -259 8 -49 6 -68 -15 -133 -27 -86 -53
-239 -53 -322 l-1 -55 -59 65 c-32 35 -77 99 -100 142 l-41 77 31 148 c17 81
36 203 43 270 8 86 15 123 24 123 7 0 31 -25 54 -56z m8420 -72 c118 -129 199
-361 229 -656 l11 -107 -61 -74 c-33 -41 -64 -76 -69 -79 -4 -3 -13 52 -20
122 -23 239 -67 407 -123 466 -22 22 -28 25 -23 11 35 -98 38 -116 38 -246 0
-81 -5 -144 -11 -155 -7 -12 -12 -14 -12 -5 0 26 -89 202 -135 267 l-45 66 24
77 c37 117 49 196 47 303 -1 54 1 103 4 108 11 18 85 -32 146 -98z m-7926 77
c4 -11 4 -55 0 -97 -7 -82 14 -211 52 -322 l19 -55 -43 -62 c-24 -34 -68 -112
-97 -174 l-53 -111 -6 54 c-16 133 -3 286 29 351 16 31 5 36 -19 9 -50 -55
-99 -236 -118 -438 -17 -185 -10 -178 -84 -87 -74 90 -75 94 -50 272 31 215
92 400 172 516 45 66 78 99 138 139 48 31 52 32 60 5z m3793 -85 c1 -32 -1
-86 -5 -119 -7 -55 -10 -60 -33 -60 -38 0 -47 47 -25 137 9 40 22 81 27 91 17
33 33 12 36 -49z m4812 -138 c28 -46 66 -158 97 -286 20 -83 26 -141 30 -277
6 -190 -8 -312 -53 -454 -43 -137 -59 -165 -119 -205 -30 -20 -79 -57 -107
-82 -29 -26 -48 -40 -42 -32 47 64 114 304 139 493 27 213 16 343 -31 361 -33
13 -39 -3 -40 -102 0 -147 -37 -250 -135 -383 -87 -119 -154 -288 -174 -445
-5 -42 -4 -52 10 -57 8 -4 18 -1 20 6 2 6 16 46 31 87 36 105 107 248 146 294
31 38 32 38 40 16 17 -46 -13 -153 -82 -290 -58 -115 -65 -137 -50 -155 17
-20 49 -5 127 61 185 157 424 278 625 315 117 21 343 11 390 -18 5 -2 -27 -27
-70 -55 -105 -70 -357 -321 -367 -366 -11 -54 -99 -175 -167 -231 -61 -50
-197 -124 -248 -136 -22 -4 -75 42 -440 391 -228 218 -440 413 -470 432 -66
43 -171 81 -222 82 -36 0 -37 1 -42 43 -14 116 -16 282 -6 587 6 184 13 337
16 339 19 19 167 -116 229 -209 134 -201 259 -564 274 -795 9 -131 27 -175 69
-175 l28 0 12 105 c22 198 92 351 227 495 45 47 95 105 112 130 77 114 133
260 158 415 23 144 43 168 85 101z m-9371 -3 c6 -16 15 -59 21 -98 34 -222
125 -411 263 -548 141 -138 221 -315 236 -517 l6 -85 30 0 c46 0 65 48 75 192
17 238 162 633 297 813 66 88 182 184 201 166 16 -16 30 -796 16 -899 -6 -45
-7 -45 -53 -52 -25 -3 -79 -15 -119 -27 l-73 -21 -460 -434 c-252 -238 -466
-433 -474 -433 -26 0 -125 48 -195 95 -92 61 -153 131 -202 233 -32 66 -60
104 -131 179 -94 98 -211 197 -285 242 -23 14 -42 29 -42 32 0 16 134 34 240
33 262 -3 500 -102 777 -325 140 -112 171 -86 89 72 -25 47 -56 119 -70 161
-26 77 -35 168 -16 168 30 0 135 -196 184 -340 28 -85 56 -107 56 -45 0 113
-68 311 -147 425 -134 196 -158 259 -158 418 0 90 -2 103 -18 108 -51 16 -83
-73 -73 -203 18 -228 63 -442 120 -575 l33 -76 -59 49 c-32 27 -77 59 -98 72
-43 24 -71 75 -109 199 -74 245 -78 511 -10 775 57 225 116 323 148 246z
m4659 -6 c2 -19 -1 -27 -12 -27 -17 0 -25 18 -18 43 7 26 26 15 30 -16z m5383
-61 c9 -19 6 -35 -16 -87 -60 -139 -106 -293 -140 -465 -52 -271 -54 -276 -84
-340 -42 -89 -72 -120 -124 -127 -24 -3 -79 -17 -122 -31 -44 -14 -81 -24 -82
-22 -2 2 6 25 17 52 33 76 69 209 86 314 16 106 69 231 123 292 35 40 38 48
15 48 -8 0 -39 -22 -68 -50 l-52 -49 -10 86 c-9 85 -9 87 19 129 37 56 153
165 214 201 50 29 165 72 196 73 9 0 22 -11 28 -24z m-10667 -6 c118 -40 227
-121 311 -230 l45 -58 -6 -79 c-8 -107 -9 -110 -40 -74 -36 43 -82 74 -100 67
-12 -4 -7 -13 20 -41 57 -57 104 -167 126 -297 19 -113 48 -216 89 -317 20
-49 20 -53 4 -45 -10 4 -67 20 -127 36 -61 16 -118 36 -128 45 -26 24 -73 109
-91 168 -9 28 -25 104 -37 170 -37 225 -89 407 -161 571 -27 62 -21 104 15
104 12 0 49 -9 80 -20z m-279 -364 c71 -43 151 -69 203 -64 l37 3 12 -65 c7
-36 15 -108 19 -160 l7 -95 -41 38 c-49 43 -62 46 -62 14 0 -38 55 -136 124
-222 35 -44 63 -81 62 -82 -1 -1 -37 1 -80 4 -77 6 -79 7 -123 52 -155 158
-275 390 -298 575 -9 70 4 85 50 57 16 -10 57 -35 90 -55z m11258 61 c7 -18
-9 -111 -34 -192 -44 -145 -161 -335 -277 -448 l-49 -48 -73 3 -73 3 50 60
c84 100 143 205 143 251 0 22 -15 17 -65 -22 l-47 -35 7 58 c9 84 26 205 32
229 4 18 14 22 68 26 69 6 142 36 226 92 56 38 84 45 92 23z m-8570 -541 c103
-44 137 -180 64 -263 -76 -86 -204 -82 -269 9 -33 48 -33 149 1 197 43 61 135
87 204 57z m5857 -8 c53 -27 80 -62 89 -114 18 -101 -45 -190 -142 -201 -60
-7 -110 11 -146 52 -54 62 -60 151 -14 214 24 33 98 71 138 71 17 0 51 -10 75
-22z m-4133 -100 l68 -32 441 -6 c353 -4 444 -8 457 -19 23 -18 21 -37 -4 -62
-20 -20 -24 -21 -492 -14 -728 9 -673 5 -655 57 13 36 81 108 102 108 8 0 45
-14 83 -32z m2325 5 c62 -69 82 -115 54 -126 -8 -3 -263 -9 -565 -13 -500 -6
-553 -5 -576 10 -37 24 -32 54 10 72 29 12 111 15 433 18 413 3 524 13 561 51
23 23 54 18 83 -12z m-4568 -122 c20 -13 43 -36 51 -51 20 -38 20 -169 1 -215
-19 -45 -69 -75 -124 -75 -36 0 -50 6 -77 33 -34 34 -60 103 -49 131 3 9 20
20 38 24 42 11 39 33 -5 50 -53 20 -100 -4 -130 -65 -19 -39 -20 -50 -10 -83
18 -60 70 -121 131 -153 63 -33 109 -33 220 -3 90 25 220 18 318 -17 150 -53
297 -165 349 -266 42 -80 44 -132 7 -166 -23 -21 -37 -25 -93 -25 -82 0 -125
-20 -164 -76 -41 -58 -46 -118 -15 -163 40 -60 78 -75 208 -82 63 -4 133 -13
155 -21 22 -8 105 -57 185 -110 637 -419 1269 -658 1970 -745 221 -27 686 -24
915 5 693 91 1367 347 1910 728 60 42 125 84 145 94 48 24 129 40 204 40 147
0 234 107 177 218 -38 74 -107 122 -175 122 -24 0 -42 9 -64 31 -59 60 -55
127 14 218 76 102 201 177 345 207 73 16 188 15 384 -2 l70 -6 61 45 c74 54
113 103 121 150 12 75 -65 144 -141 127 -21 -4 -40 -11 -44 -15 -11 -10 14
-40 37 -43 31 -5 44 -38 38 -95 -6 -63 -31 -87 -92 -87 -30 0 -47 6 -61 21
-10 11 -40 36 -65 55 -85 62 -95 146 -26 215 50 51 111 74 192 73 98 0 191
-45 301 -145 256 -234 819 -780 843 -818 74 -116 67 -237 -20 -372 -51 -79
-161 -186 -231 -225 -46 -25 -64 -29 -129 -29 -67 0 -84 4 -145 35 -66 33 -76
44 -219 224 -507 639 -551 692 -598 723 -81 54 -152 76 -247 77 -100 1 -159
-17 -240 -73 -127 -87 -134 -177 -18 -226 21 -8 49 -15 63 -15 45 0 144 -59
208 -123 154 -154 707 -793 749 -865 15 -26 35 -80 44 -121 31 -137 -1 -246
-99 -339 -69 -65 -155 -107 -232 -115 -91 -10 -177 -43 -252 -99 -303 -224
-793 -500 -1173 -661 -1401 -593 -2912 -574 -4380 53 -193 82 -483 230 -652
332 -136 82 -156 96 -293 202 -93 73 -197 127 -330 171 -146 48 -216 87 -275
152 -72 78 -93 143 -87 263 2 53 11 111 20 131 8 20 195 243 415 495 437 501
468 531 584 554 72 14 103 47 94 100 -4 26 -20 49 -64 91 -160 151 -357 163
-501 31 -22 -20 -207 -239 -411 -487 -204 -247 -385 -460 -402 -472 -114 -81
-319 -33 -450 106 -111 117 -151 234 -128 370 7 40 21 84 33 101 16 22 771
738 970 919 66 60 265 79 341 32z m3368 -23 c37 -31 48 -62 48 -139 0 -86 -7
-96 -64 -106 -47 -7 -82 16 -107 71 -16 37 -17 48 -6 91 17 71 87 116 129 83z
m-3070 -205 c-4 -78 -5 -83 -27 -83 -13 0 -26 7 -29 16 -8 21 -8 99 0 158 l7
48 27 -29 c26 -27 27 -32 22 -110z m6206 -10 c-2 -39 -6 -74 -9 -77 -3 -3 -20
-9 -39 -12 l-33 -7 7 49 c3 27 2 65 -4 84 -10 33 -8 37 27 67 l38 31 8 -31 c5
-18 7 -64 5 -104z m145 -60 l20 -23 -41 0 -42 0 0 58 0 57 21 -35 c12 -19 30
-45 42 -57z m-6502 -6 c-19 -19 -23 1 -10 40 l14 38 3 -34 c2 -18 -1 -38 -7
-44z m247 -291 c57 -30 134 -94 126 -107 -3 -5 -20 -9 -38 -9 -35 0 -122 -48
-191 -105 -23 -18 -165 -175 -315 -349 l-275 -316 -13 28 c-20 39 -81 101
-120 121 l-34 17 291 351 c293 354 300 361 391 397 30 12 131 -4 178 -28z
m6183 -11 c85 -30 130 -76 377 -388 133 -169 242 -309 242 -311 0 -2 -20 -14
-44 -26 -25 -12 -61 -39 -81 -62 -31 -33 -39 -38 -50 -27 -7 8 -91 105 -188
215 -228 260 -359 393 -423 427 -28 15 -81 33 -118 41 -74 15 -81 19 -73 39 6
17 101 80 142 95 45 16 165 14 216 -3z m-5264 -94 c67 -48 219 -247 281 -365
25 -48 26 -58 23 -171 -2 -66 -4 -122 -6 -124 -2 -2 -17 6 -33 17 -35 26 -83
114 -110 207 -22 73 -45 115 -64 115 -17 0 -3 -119 22 -173 30 -67 78 -327 60
-327 -10 0 -186 97 -222 122 -28 19 -28 20 -28 141 0 123 11 190 46 280 17 45
18 51 2 120 -9 39 -22 90 -29 113 -12 40 -8 74 9 74 5 0 27 -13 49 -29z m4181
1 c2 -12 -6 -52 -18 -87 -26 -78 -23 -155 9 -260 17 -55 21 -95 21 -195 0
-181 -3 -190 -58 -221 -26 -14 -82 -44 -124 -68 l-77 -42 5 38 c22 156 49 295
65 333 36 86 45 180 18 180 -13 0 -44 -66 -64 -135 -21 -75 -50 -132 -83 -167
-44 -47 -49 -38 -55 90 l-5 117 34 65 c81 153 272 386 311 378 10 -2 19 -13
21 -26z m309 -296 c-3 -17 -13 -51 -22 -76 -16 -42 -25 -138 -15 -169 3 -9
-21 -32 -65 -63 l-70 -49 -12 62 c-7 34 -17 67 -22 73 -5 6 -15 33 -21 59 -12
47 -12 47 25 93 44 53 101 94 147 104 48 10 61 2 55 -34z m-4771 14 c23 -12
65 -46 94 -76 49 -51 52 -57 45 -92 -4 -20 -15 -53 -26 -74 -10 -20 -19 -46
-19 -56 0 -33 -11 -31 -80 14 l-67 45 -5 62 c-3 34 -15 86 -28 114 -12 29 -20
59 -16 68 8 21 52 19 102 -5z m4013 -100 c58 -134 52 -300 -17 -516 l-27 -86
-59 -24 c-33 -13 -62 -21 -65 -18 -3 3 -5 54 -5 113 2 123 23 218 60 275 19
27 23 41 15 49 -44 44 -254 -278 -298 -458 -10 -38 -18 -71 -19 -73 0 -1 -36
-13 -80 -26 -56 -17 -81 -20 -86 -12 -14 21 -8 104 13 170 16 54 32 79 83 134
147 157 351 415 391 492 10 19 23 38 28 42 20 12 44 -11 66 -62z m-3251 29
c47 -87 283 -378 387 -479 77 -75 117 -154 123 -247 5 -85 9 -83 -97 -49 -78
25 -85 31 -96 86 -10 50 -95 227 -145 300 -78 114 -160 183 -160 134 0 -9 9
-27 20 -41 33 -42 51 -120 57 -246 l6 -119 -39 17 c-21 9 -55 23 -75 31 -31
13 -38 22 -56 82 -39 124 -47 176 -47 292 0 94 4 126 22 174 36 99 70 120 100
65z m3399 -451 c-7 -73 -23 -102 -64 -122 -33 -16 -35 -16 -29 0 3 9 11 47 17
84 12 70 14 72 78 89 2 1 1 -23 -2 -51z m-3588 32 c13 0 20 -14 28 -62 6 -35
9 -64 8 -66 -1 -2 -18 5 -38 14 -37 18 -47 37 -47 93 0 26 3 32 16 27 9 -3 23
-6 33 -6z m959 -205 c23 -29 38 -92 46 -187 3 -43 2 -68 -5 -68 -6 0 -53 10
-105 22 l-94 21 0 41 c1 62 39 146 79 173 43 29 55 29 79 -2z m1735 -8 c34
-35 54 -86 64 -165 l5 -48 -83 -18 c-46 -10 -95 -20 -108 -23 l-24 -6 7 84
c16 197 61 254 139 176z m-2270 -56 c20 -34 19 -35 -17 -21 -20 7 -26 16 -26
41 0 36 14 30 43 -20z m2740 3 c-5 -36 -9 -43 -39 -52 -19 -5 -34 -7 -34 -3 0
14 70 105 76 98 2 -1 0 -21 -3 -43z"/>
<path d="M4544 8650 c-149 -13 -160 -24 -101 -95 l32 -39 -3 -309 c-2 -306 -3
-309 -27 -357 -27 -53 -24 -78 9 -85 43 -8 362 -23 389 -18 34 7 85 66 93 109
7 38 -13 87 -38 92 -11 2 -24 -10 -37 -36 -34 -67 -62 -82 -150 -82 -46 0 -84
5 -93 13 -32 24 -49 255 -25 327 19 54 54 61 122 25 52 -29 54 -29 74 -11 27
24 35 68 21 111 -14 42 -25 43 -74 10 -59 -40 -81 -42 -116 -7 -29 30 -30 33
-30 125 0 109 16 142 75 153 37 7 59 -4 129 -60 30 -23 39 -26 51 -16 22 18
17 59 -14 110 l-27 45 -85 1 c-46 1 -125 -2 -175 -6z"/>
<path d="M7002 8658 c-19 -19 -14 -44 14 -63 51 -33 54 -58 54 -396 l0 -311
-31 -39 c-18 -24 -29 -48 -27 -61 3 -22 7 -23 109 -26 142 -4 157 13 89 99
-17 20 -22 41 -23 105 -2 107 8 154 34 154 12 0 27 -12 37 -31 47 -84 175
-277 198 -297 31 -27 91 -27 108 0 9 14 4 25 -26 55 -19 21 -57 76 -83 123
-26 47 -56 96 -66 109 -11 13 -19 38 -19 55 0 26 11 41 60 84 33 29 72 73 86
98 25 42 26 52 21 123 -8 116 -39 161 -147 210 -39 18 -66 21 -210 21 -116 0
-170 -4 -178 -12z m339 -81 c68 -44 102 -174 65 -244 -46 -89 -147 -130 -194
-80 -23 24 -23 27 -16 163 6 126 9 140 30 161 29 29 71 30 115 0z"/>
<path d="M7993 8660 c-29 -12 -30 -46 -4 -97 16 -33 20 -70 25 -268 3 -128 1
-272 -4 -325 -9 -83 -14 -98 -39 -125 -67 -71 -49 -87 99 -83 137 4 150 13
106 77 l-29 41 -1 322 -1 323 33 44 c59 80 42 101 -77 100 -48 0 -96 -4 -108
-9z"/>
<path d="M3525 8653 c-22 -3 -45 -9 -52 -15 -21 -17 -15 -46 12 -64 13 -8 36
-37 51 -62 26 -44 122 -301 164 -437 10 -33 25 -80 33 -105 8 -25 20 -64 26
-88 14 -48 65 -112 90 -112 43 0 58 39 157 415 70 263 102 365 121 387 23 26
12 51 -30 67 -28 10 -48 12 -74 5 -51 -13 -62 -35 -38 -76 27 -46 24 -133 -8
-243 -14 -49 -33 -125 -42 -167 -26 -122 -71 -142 -107 -47 -47 124 -98 272
-114 335 -18 71 -18 71 4 106 56 90 -2 120 -193 101z"/>
<path d="M6747 5304 c-4 -4 -43 -9 -88 -10 -139 -5 -201 -53 -230 -182 -24
-103 22 -178 168 -275 156 -103 211 -170 197 -243 -9 -48 -48 -92 -88 -99 -77
-15 -160 33 -199 114 -25 52 -58 66 -77 32 -11 -22 -11 -183 0 -202 6 -8 17
-8 44 2 34 12 44 11 111 -13 69 -25 77 -26 133 -14 33 7 78 24 100 39 70 46
116 177 93 264 -19 70 -65 119 -184 198 -127 84 -132 88 -170 133 -29 36 -35
78 -16 115 17 31 28 37 74 37 66 0 105 -17 142 -60 46 -54 75 -52 84 6 4 22 2
67 -4 100 -12 58 -13 59 -47 62 -20 2 -39 0 -43 -4z"/>
<path d="M5510 5336 c-31 -19 -52 -21 -185 -23 -132 -1 -156 1 -199 20 -35 15
-53 18 -65 10 -23 -14 -63 -130 -59 -173 4 -52 37 -53 70 -2 25 36 79 72 110
72 7 0 25 -10 41 -23 l27 -22 -9 -145 c-5 -80 -8 -226 -6 -325 3 -173 2 -181
-20 -210 -43 -58 -48 -74 -31 -99 14 -22 20 -23 120 -22 140 3 162 22 112 95
-25 36 -25 37 -32 372 l-7 337 26 16 c28 19 55 12 79 -22 7 -11 22 -24 34 -30
39 -21 61 16 66 112 3 61 1 69 -17 76 -13 4 -32 0 -55 -14z"/>
<path d="M9585 4448 c4 -13 15 -34 25 -48 69 -99 90 -195 90 -419 0 -177 7
-207 46 -199 15 2 20 14 24 53 7 63 16 80 36 64 9 -7 14 -31 14 -66 0 -58 22
-113 44 -113 40 0 28 149 -26 318 -75 235 -145 371 -214 411 -44 26 -47 26
-39 -1z"/>
<path d="M10875 3423 c-71 -37 -127 -81 -227 -180 -74 -73 -88 -92 -88 -119 0
-17 8 -42 19 -55 l18 -23 58 65 c92 102 243 246 301 285 29 20 51 41 48 45
-10 17 -80 8 -129 -18z"/>
<path d="M2362 4441 c-77 -57 -149 -195 -218 -420 -51 -163 -58 -333 -14 -306
20 12 40 72 40 118 0 26 6 49 14 56 19 16 25 4 33 -60 6 -55 25 -72 50 -46 13
12 16 49 18 204 2 204 14 269 62 353 40 69 65 122 60 126 -2 2 -22 -9 -45 -25z"/>
<path d="M980 3432 c0 -5 24 -26 54 -46 30 -21 123 -107 206 -192 83 -85 155
-152 160 -149 17 10 32 83 21 103 -14 27 -180 184 -231 218 -74 51 -127 74
-170 74 -22 0 -40 -4 -40 -8z"/>
<path d="M3233 2272 c57 -58 63 -39 -123 -347 -212 -352 -287 -469 -319 -499
-29 -28 -34 -29 -64 -18 -40 14 -47 15 -47 2 0 -5 30 -26 68 -47 37 -20 104
-61 149 -90 97 -62 141 -72 76 -17 -49 40 -52 57 -22 117 36 71 210 357 217
357 17 0 381 -226 382 -237 0 -14 -163 -282 -216 -354 -41 -56 -56 -63 -94
-44 -44 23 -47 -1 -3 -28 185 -117 275 -169 281 -162 4 3 -10 20 -30 37 -51
40 -49 63 11 170 89 159 386 640 417 676 31 36 33 36 66 24 41 -14 48 -15 48
-3 0 6 -42 35 -92 65 -51 30 -118 70 -148 89 -65 42 -86 38 -36 -8 20 -18 36
-41 36 -51 0 -28 -179 -334 -195 -334 -6 0 -91 49 -190 110 -99 60 -183 110
-187 110 -5 0 -8 4 -8 10 0 12 163 276 189 306 22 25 59 31 91 14 12 -6 21 -6
25 -1 3 6 -27 29 -66 52 -40 23 -107 64 -148 90 -92 59 -119 63 -68 11z"/>
<path d="M8350 2022 c-77 -26 -124 -51 -290 -156 -80 -51 -166 -104 -192 -119
-68 -39 -66 -62 3 -33 36 15 62 8 87 -23 15 -20 355 -562 410 -656 23 -38 47
-85 53 -103 10 -31 9 -36 -17 -63 -46 -48 -19 -45 63 8 43 28 132 79 198 114
149 80 235 159 286 264 33 68 34 73 34 195 -1 109 -4 133 -27 192 -60 158
-177 297 -302 358 -60 30 -80 35 -160 37 -68 2 -105 -2 -146 -15z m112 -113
c159 -33 307 -182 393 -394 38 -93 40 -187 6 -263 -44 -97 -183 -202 -269
-202 -60 0 -63 4 -341 454 l-173 278 27 28 c33 35 139 88 197 99 62 13 100 12
160 0z"/>
<path d="M4413 1658 c-16 -18 -168 -198 -337 -401 -169 -202 -318 -374 -331
-383 -28 -18 -58 -21 -98 -11 -21 6 -28 5 -25 -5 5 -14 268 -121 277 -112 3 4
-2 11 -12 18 -47 28 -50 33 -43 59 6 26 169 239 188 246 12 4 228 -78 245 -93
8 -8 9 -48 2 -156 -12 -173 -15 -190 -35 -190 -9 0 -14 -5 -12 -12 4 -10 189
-91 259 -113 31 -10 21 12 -15 34 -65 40 -66 61 -36 611 21 395 25 540 12 540
-4 0 -22 -15 -39 -32z m-103 -410 c-7 -95 -16 -178 -19 -184 -4 -8 -38 1 -108
29 -91 35 -101 42 -90 57 41 58 222 278 225 275 3 -2 -1 -82 -8 -177z"/>
<path d="M7445 1575 c-28 -7 -96 -31 -150 -53 -55 -22 -130 -49 -167 -61 -38
-13 -68 -27 -68 -31 0 -5 26 -8 58 -7 l57 2 27 -55 c33 -66 262 -691 283 -771
21 -80 20 -87 -22 -112 -65 -38 -12 -32 100 11 56 22 126 47 155 57 66 21 68
38 4 29 -45 -6 -51 -4 -70 21 -22 27 -119 265 -129 315 -5 25 -1 29 43 44 26
9 53 16 60 16 6 0 75 -51 152 -113 229 -184 258 -195 401 -144 52 18 96 37 98
42 2 6 -24 10 -59 10 -41 1 -75 7 -98 19 -63 34 -301 198 -378 262 l-25 20 27
76 c50 146 29 274 -59 365 -70 72 -133 87 -240 58z m61 -94 c86 -39 152 -157
161 -286 7 -95 -17 -132 -101 -159 -39 -13 -64 -16 -73 -10 -23 14 -167 416
-156 433 11 17 68 39 103 40 14 0 43 -8 66 -18z"/>
<path d="M4840 1492 c0 -4 19 -16 43 -27 l42 -20 -1 -65 c-1 -60 -130 -676
-169 -808 -21 -70 -45 -94 -86 -85 -24 4 -31 3 -27 -7 4 -12 284 -80 331 -80
31 0 18 17 -23 29 -58 17 -64 35 -45 142 19 113 51 259 59 266 3 3 31 -1 62
-9 l57 -14 47 -139 c89 -263 117 -316 184 -346 37 -16 169 -49 197 -49 22 0 6
18 -31 35 -68 31 -103 90 -211 360 l-68 170 27 20 c73 54 150 142 171 198 40
110 22 226 -45 289 -44 41 -108 65 -265 98 -79 16 -160 34 -179 40 -42 12 -70
13 -70 2z m355 -142 c17 -10 42 -38 55 -62 63 -110 1 -356 -100 -398 -25 -10
-42 -10 -84 -1 -97 22 -95 7 -41 257 26 120 50 223 53 228 7 13 82 -2 117 -24z"/>
<path d="M6621 1348 c-6 -29 -47 -261 -91 -516 -44 -254 -87 -476 -96 -493
-10 -20 -30 -37 -55 -47 -40 -15 -52 -32 -23 -32 9 0 60 7 113 15 53 9 111 18
129 21 43 7 41 24 -3 24 -56 0 -60 26 -34 194 11 78 23 143 24 144 5 6 266 44
270 40 11 -12 145 -291 145 -302 0 -8 -6 -16 -12 -19 -7 -2 -10 -8 -6 -12 7
-7 255 21 285 32 26 10 12 23 -27 23 -81 0 -75 -9 -440 703 -78 152 -148 277
-155 277 -8 0 -18 -21 -24 -52z m119 -405 c44 -91 78 -169 75 -171 -3 -3 -52
-13 -110 -22 -99 -16 -105 -16 -105 1 0 9 11 89 25 176 14 87 25 164 25 171 0
6 2 12 5 12 3 0 41 -75 85 -167z"/>
<path d="M5475 1341 c-9 -8 7 -21 26 -21 32 0 78 -28 93 -58 7 -15 77 -234
155 -487 78 -253 147 -473 153 -488 20 -51 39 -28 96 113 185 465 345 848 361
864 10 10 34 21 52 25 73 15 30 26 -108 29 -93 2 -143 -1 -143 -8 0 -5 9 -10
21 -10 29 0 59 -18 59 -36 0 -27 -263 -735 -271 -727 -15 18 -200 705 -197
736 3 28 7 32 36 35 32 3 44 19 20 27 -18 5 -348 12 -353 6z"/>
<path d="M1835 1890 c-10 -11 -15 -23 -11 -27 13 -13 156 -9 156 4 0 44 -110
61 -145 23z"/>
<path d="M10018 1899 c-10 -5 -18 -18 -18 -27 0 -14 11 -17 72 -17 74 0 92 11
68 40 -14 17 -96 20 -122 4z"/>
</g>
</svg>
