<?xml version="1.0" standalone="no"?>
<!DOCTYPE svg PUBLIC "-//W3C//DTD SVG 20010904//EN"
 "http://www.w3.org/TR/2001/REC-SVG-20010904/DTD/svg10.dtd">
<svg version="1.0" xmlns="http://www.w3.org/2000/svg"
 width="200.000000pt" height="200.000000pt" viewBox="0 0 200.000000 200.000000"
 preserveAspectRatio="xMidYMid meet">

<g transform="translate(0.000000,200.000000) scale(0.100000,-0.100000)"
fill="#ffffff" stroke="none">
<path d="M925 1944 c-356 -41 -627 -225 -775 -529 -71 -143 -94 -247 -94 -415
0 -168 23 -272 94 -415 200 -408 653 -614 1095 -498 86 22 249 103 325 161
162 123 282 301 342 508 20 68 23 102 23 244 0 142 -3 176 -23 244 -80 277
-254 484 -507 606 -161 77 -332 110 -480 94z m96 -54 c23 -13 24 -24 3 -45
-15 -15 -15 -18 6 -41 21 -21 21 -24 6 -24 -10 0 -32 11 -48 25 -35 29 -54 28
-50 -3 2 -17 -2 -22 -17 -22 -19 0 -21 6 -21 60 l0 60 51 0 c28 0 59 -5 70
-10z m185 -62 c9 -29 19 -59 22 -65 7 -21 -26 -15 -37 6 -12 22 -61 34 -78 19
-7 -5 -19 -8 -28 -6 -23 5 53 97 82 98 17 0 25 -10 39 -52z m-381 -8 c40 -40
45 -50 29 -50 -11 0 -24 4 -29 9 -14 12 -75 -7 -75 -23 0 -13 -28 -31 -36 -23
-4 3 25 118 33 130 10 16 31 5 78 -43z m529 5 c31 -14 56 -29 56 -35 0 -6 -9
-6 -24 0 -23 8 -26 6 -42 -35 -9 -25 -21 -45 -26 -45 -17 0 -18 26 -3 63 19
45 19 44 -5 50 -11 3 -20 10 -20 16 0 15 -1 15 64 -14z m-716 -43 c2 -12 10
-22 17 -22 18 0 26 -15 19 -34 -6 -15 -87 -66 -105 -66 -5 0 -20 22 -34 50
l-25 50 47 24 c56 30 77 29 81 -2z m587 -76 c117 -40 209 -98 300 -190 89 -90
146 -186 186 -316 34 -108 34 -292 0 -400 -75 -244 -251 -427 -486 -506 -108
-36 -268 -44 -381 -19 -347 76 -585 371 -585 725 0 346 227 636 565 722 108
27 294 20 401 -16z m245 -27 c0 -13 -13 -11 -38 7 -12 8 -20 20 -17 25 7 10
55 -18 55 -32z m114 0 c29 -23 51 -58 42 -67 -4 -3 -19 10 -35 29 -38 44 -50
33 -16 -16 29 -44 30 -48 11 -64 -11 -10 -21 -9 -45 3 -49 26 -81 86 -46 86 8
0 15 -8 15 -18 0 -23 35 -56 49 -47 7 4 2 19 -14 43 -28 41 -31 58 -12 65 20
9 23 8 51 -14z m-1064 -15 c0 -11 -45 -42 -53 -37 -11 7 22 43 40 43 7 0 13
-3 13 -6z m-160 -59 c-39 -41 -22 -60 19 -21 38 37 47 32 16 -9 -37 -48 -22
-66 21 -24 51 49 54 25 4 -26 l-44 -45 -38 37 c-21 20 -38 41 -38 45 0 16 72
88 82 82 5 -4 -5 -21 -22 -39z m1361 -74 c17 -18 29 -40 29 -56 0 -34 -24 -28
-28 8 -5 38 -27 53 -57 39 -14 -7 -25 -19 -25 -28 0 -21 28 -54 47 -54 7 0 13
-7 13 -15 0 -22 -16 -18 -52 13 -52 47 -37 122 25 122 10 0 32 -13 48 -29z
m-1390 -72 c18 -13 21 -21 12 -30 -16 -16 -105 45 -97 66 5 13 10 13 33 -1 15
-9 38 -24 52 -35z m-67 -59 c33 -14 44 -23 40 -35 -7 -18 -9 -18 -34 -5 -15 8
-21 6 -30 -9 -15 -29 -12 -47 10 -57 13 -6 17 -13 11 -22 -7 -11 -18 -9 -60 9
-53 22 -63 45 -19 42 18 -1 29 6 37 24 13 27 7 43 -15 43 -15 0 -19 12 -7 23
10 10 17 9 67 -13z m1546 -15 c0 -7 -7 -18 -16 -23 -11 -6 -13 -16 -8 -36 5
-22 11 -27 33 -24 17 2 27 -2 29 -12 2 -11 -13 -21 -45 -33 -58 -21 -63 -21
-63 -2 0 8 3 15 8 15 25 1 33 17 21 44 -11 23 -17 26 -41 21 -46 -11 -36 22
15 45 52 23 67 24 67 5z m-1622 -208 c-2 -33 1 -42 15 -45 9 -2 17 -12 17 -23
0 -15 -5 -19 -17 -15 -10 3 -35 8 -56 12 -20 3 -39 9 -41 13 -7 12 21 103 35
111 7 5 21 4 32 -1 14 -8 18 -20 15 -52z m1690 10 c2 -12 -3 -17 -20 -17 -51
0 -69 -11 -66 -39 3 -24 6 -26 51 -24 39 1 47 -2 47 -17 0 -13 -11 -19 -42
-23 -53 -7 -78 13 -80 66 -2 45 14 65 55 70 44 5 52 3 55 -16z m-1673 -167
c18 -35 19 -64 4 -93 -37 -69 -109 -38 -109 46 0 57 14 77 55 77 28 0 37 -6
50 -30z m1673 -16 c12 -4 22 -13 22 -20 0 -10 -14 -14 -50 -14 l-50 0 0 -34
c0 -19 -4 -38 -10 -41 -6 -4 -10 17 -10 54 l0 61 38 0 c20 0 47 -3 60 -6z m2
-183 c-1 -29 -29 -106 -40 -109 -9 -3 -11 1 -6 14 4 11 10 32 13 48 8 41 -18
30 -29 -12 -5 -18 -13 -32 -19 -32 -6 0 -8 9 -5 20 3 11 8 28 11 39 4 11 0 21
-10 24 -11 5 -18 -5 -26 -38 -6 -25 -15 -45 -20 -45 -13 0 -11 19 6 77 l15 50
55 -15 c30 -8 55 -18 55 -21z m-1644 -6 c18 -43 18 -69 0 -84 -18 -15 -27 6
-14 32 10 20 -8 61 -24 51 -5 -4 -7 -20 -4 -36 7 -34 -8 -68 -30 -68 -20 0
-47 66 -40 96 9 35 30 30 23 -5 -4 -17 0 -36 8 -47 13 -17 14 -14 15 32 0 56
4 64 32 64 12 0 24 -13 34 -35z m47 -240 c1 -5 -6 -11 -15 -13 -11 -2 -18 3
-18 13 0 17 30 18 33 0z m1453 -6 c7 -12 -15 -31 -28 -23 -4 3 -8 12 -8 20 0
17 26 19 36 3z m-1321 -129 c-14 -15 -13 -18 3 -33 22 -20 39 -22 45 -4 4 9 7
9 18 -1 11 -10 6 -19 -26 -52 -39 -40 -69 -42 -44 -2 11 18 10 24 -6 42 -16
18 -20 19 -35 5 -9 -8 -22 -15 -28 -15 -22 0 -12 24 25 62 28 29 40 35 50 26
11 -9 11 -14 -2 -28z m1185 6 c0 -2 -16 -13 -35 -25 -36 -21 -45 -47 -23 -69
17 -17 38 -15 60 5 26 23 22 34 -9 27 l-28 -6 27 28 c23 23 29 25 42 14 23
-18 20 -36 -11 -69 -38 -41 -75 -49 -102 -22 -29 29 -26 57 8 92 24 24 71 40
71 25z m-980 -202 c0 -66 -13 -83 -30 -40 -11 29 -44 49 -68 42 -9 -3 -23 -2
-30 3 -10 6 2 18 44 44 73 46 84 39 84 -49z m814 70 c12 -11 13 -20 6 -34 -8
-16 -5 -19 20 -25 50 -11 23 -27 -32 -20 l-50 7 7 -31 c5 -23 3 -31 -7 -31
-17 0 -61 87 -52 102 5 7 78 46 91 48 1 0 9 -7 17 -16z m-673 -64 c5 0 9 -19
9 -42 l0 -43 26 33 c23 29 52 41 67 26 5 -5 -20 -104 -29 -113 -2 -3 -9 0 -14
5 -6 6 -6 22 0 44 l10 35 -20 -25 c-11 -14 -20 -28 -20 -32 0 -5 -9 -8 -20 -8
-16 0 -20 7 -20 35 0 19 -4 35 -10 35 -5 0 -10 -8 -10 -17 0 -28 -17 -50 -29
-38 -16 16 17 118 36 111 8 -3 19 -6 24 -6z m499 -41 c14 -50 8 -66 -25 -79
-63 -24 -92 -6 -97 60 -4 46 19 50 27 6 9 -44 30 -64 53 -49 18 12 19 20 8 71
-6 25 -4 32 8 32 9 0 19 -16 26 -41z m-207 -6 c5 -3 6 -16 3 -28 -3 -13 -2
-27 4 -30 7 -4 7 -13 0 -26 -9 -15 -22 -19 -70 -19 l-60 0 0 53 c0 30 3 57 7
61 8 7 100 -2 116 -11z"/>
<path d="M937 1874 c-15 -16 -5 -24 29 -24 24 0 34 4 32 13 -5 13 -50 22 -61
11z"/>
<path d="M1151 1836 c-15 -18 -10 -29 12 -24 9 2 12 9 8 21 -6 17 -8 18 -20 3z"/>
<path d="M760 1811 c0 -14 5 -18 20 -14 16 4 18 8 9 19 -16 20 -29 17 -29 -5z"/>
<path d="M566 1765 c-11 -8 -17 -18 -13 -22 9 -8 57 14 57 27 0 14 -22 12 -44
-5z"/>
<path d="M593 1727 c-15 -9 -20 -16 -13 -26 7 -12 12 -12 34 3 45 29 27 50
-21 23z"/>
<path d="M840 1625 c-13 -14 -21 -27 -19 -29 2 -3 43 -21 89 -41 185 -79 322
-158 385 -220 80 -79 107 -136 113 -243 6 -102 -9 -180 -55 -297 -120 -301
-273 -438 -416 -370 -56 26 -168 143 -236 246 -106 160 -150 305 -122 392 16
48 69 93 119 102 51 8 150 -16 210 -51 l44 -26 26 25 25 25 -50 25 c-119 61
-211 69 -295 26 -126 -64 -176 -203 -129 -356 42 -135 149 -291 271 -393 159
-132 250 -126 388 25 193 210 325 527 293 702 -22 118 -121 239 -267 324 -82
48 -318 159 -339 159 -6 0 -22 -11 -35 -25z"/>
<path d="M1043 1388 c-13 -13 -23 -36 -23 -51 0 -23 -4 -27 -28 -27 -16 0 -32
-8 -40 -20 -11 -19 -10 -20 28 -20 l40 0 0 -57 0 -57 30 29 c21 20 29 37 28
54 -2 21 2 26 18 26 23 1 54 21 54 36 0 4 -17 9 -37 11 -37 3 -38 4 -43 51
l-5 49 -22 -24z"/>
<path d="M848 1063 c-16 -8 -28 -21 -28 -29 0 -7 -5 -14 -10 -14 -7 0 -7 6 0
19 14 27 13 31 -9 31 -25 0 -45 -25 -38 -50 4 -14 0 -20 -11 -21 -10 0 -12 -3
-5 -5 7 -3 9 -12 6 -21 -5 -12 -3 -14 8 -8 11 6 11 5 2 -5 -9 -10 -15 -10 -28
4 -9 9 -21 16 -26 16 -13 0 -11 -17 4 -24 6 -3 -10 -5 -38 -3 -52 2 -65 -11
-51 -50 5 -12 9 -13 21 -3 20 16 34 5 54 -44 19 -44 33 -59 66 -69 19 -7 20
-7 1 8 -19 14 -19 15 0 21 10 4 31 20 46 35 24 24 25 30 13 42 -7 8 -12 23 -9
34 3 11 -1 25 -10 32 -15 12 -23 51 -11 51 17 0 45 -39 45 -62 0 -37 13 -42
38 -15 31 33 44 107 22 130 -19 20 -16 19 -52 0z m-54 -147 c-6 -27 -18 -33
-29 -16 -5 9 25 53 32 46 2 -2 1 -15 -3 -30z"/>
<path d="M1130 1031 c0 -6 4 -13 10 -16 6 -3 7 1 4 9 -7 18 -14 21 -14 7z"/>
<path d="M970 1020 c0 -5 5 -10 10 -10 6 0 10 5 10 10 0 6 -4 10 -10 10 -5 0
-10 -4 -10 -10z"/>
<path d="M715 990 c3 -5 8 -10 11 -10 2 0 4 5 4 10 0 6 -5 10 -11 10 -5 0 -7
-4 -4 -10z"/>
<path d="M1115 982 c-16 -9 -32 -20 -35 -23 -12 -15 -52 -20 -66 -8 -12 10
-18 9 -31 -4 -9 -9 -17 -26 -19 -39 -1 -13 -3 -25 -3 -27 -1 -2 -8 3 -17 10
-15 12 -16 11 -10 -8 4 -14 1 -36 -9 -57 -18 -38 -14 -56 15 -56 19 0 30 -19
30 -50 0 -29 21 -35 41 -12 12 15 19 18 22 10 4 -9 6 -10 6 -1 1 6 -3 15 -9
18 -10 6 4 37 29 64 12 13 15 13 26 -2 9 -12 15 -13 23 -5 8 8 15 8 26 -1 13
-11 18 -10 31 2 8 9 15 21 15 27 0 7 11 21 25 31 13 11 22 26 19 33 -3 8 3 16
15 19 15 4 18 1 14 -12 -4 -9 5 -5 21 11 15 15 26 30 25 35 -4 12 -69 32 -84
26 -8 -2 -23 5 -34 16 -25 25 -28 25 -66 3z m-128 -84 c-3 -8 -6 -5 -6 6 -1
11 2 17 5 13 3 -3 4 -12 1 -19z m1 -54 c12 -4 22 -10 22 -15 0 -15 -37 -10
-50 6 -13 16 -8 18 28 9z"/>
<path d="M1055 979 c-4 -6 -5 -12 -2 -15 2 -3 7 2 10 11 7 17 1 20 -8 4z"/>
<path d="M790 756 c0 -14 4 -27 9 -30 5 -3 6 -27 4 -53 l-5 -48 27 40 c15 22
31 42 35 45 19 13 15 36 -9 52 -38 26 -61 23 -61 -6z"/>
<path d="M1165 760 c-3 -5 1 -10 10 -10 9 0 13 5 10 10 -3 6 -8 10 -10 10 -2
0 -7 -4 -10 -10z"/>
<path d="M1217 749 c7 -7 15 -10 18 -7 3 3 -2 9 -12 12 -14 6 -15 5 -6 -5z"/>
<path d="M1187 725 c-26 -19 -21 -32 15 -39 50 -10 64 20 20 43 -11 6 -23 5
-35 -4z"/>
<path d="M136 1174 c-8 -31 -3 -39 19 -30 10 3 15 15 13 28 -4 31 -25 33 -32
2z"/>
<path d="M131 1006 c-20 -24 -10 -70 17 -74 46 -7 69 40 36 72 -19 20 -38 20
-53 2z"/>
<path d="M567 283 c-11 -10 -8 -20 8 -27 10 -4 15 1 15 14 0 20 -11 26 -23 13z"/>
<path d="M1374 287 c-12 -7 -19 -17 -17 -24 6 -16 53 5 53 24 0 16 -8 16 -36
0z"/>
<path d="M970 185 c0 -9 9 -15 24 -15 30 0 42 15 20 24 -27 10 -44 7 -44 -9z"/>
<path d="M970 136 c0 -11 10 -16 31 -16 38 0 35 24 -4 28 -19 2 -27 -1 -27
-12z"/>
</g>
</svg>
