<?xml version="1.0" standalone="no"?>
<!DOCTYPE svg PUBLIC "-//W3C//DTD SVG 20010904//EN"
 "http://www.w3.org/TR/2001/REC-SVG-20010904/DTD/svg10.dtd">
<svg version="1.0" xmlns="http://www.w3.org/2000/svg"
 width="553.000000pt" height="553.000000pt" viewBox="0 0 553.000000 553.000000"
 preserveAspectRatio="xMidYMid meet">

<g transform="translate(0.000000,553.000000) scale(0.100000,-0.100000)"
fill="#ffffff" stroke="none">
<path d="M3300 3544 c-95 -25 -178 -72 -256 -146 -141 -134 -158 -204 -158
-628 0 -423 18 -495 160 -629 82 -79 167 -124 269 -146 303 -64 585 77 682
341 22 60 26 94 34 254 4 102 8 204 9 228 l0 42 -260 0 -260 0 0 -125 0 -125
103 0 c56 0 107 -4 113 -8 8 -5 8 -31 3 -85 -20 -175 -118 -269 -285 -270
-123 -1 -212 59 -253 167 -19 54 -28 528 -12 636 26 163 114 243 269 243 126
-1 225 -70 263 -185 l12 -38 149 0 c174 0 165 -9 117 125 -52 143 -139 240
-278 310 -106 53 -300 71 -421 39z"/>
<path d="M0 3415 l0 -135 200 0 200 0 1 -637 c1 -351 1 -641 0 -645 0 -5 67
-8 149 -8 l150 0 0 645 0 645 205 0 205 0 0 135 0 135 -555 0 -555 0 0 -135z"/>
<path d="M1370 2770 l0 -780 150 0 150 0 2 477 3 477 306 -474 307 -475 136
-3 136 -3 0 781 0 780 -150 0 -150 0 0 -477 c0 -409 -2 -475 -14 -463 -8 8
-143 215 -301 460 -158 245 -292 450 -299 456 -6 7 -67 14 -143 17 l-133 6 0
-779z"/>
<path d="M4500 3480 l0 -70 515 0 515 0 0 70 0 70 -515 0 -515 0 0 -70z"/>
<path d="M4593 3192 l-93 -3 0 -64 0 -65 515 0 515 0 0 70 0 70 -422 -2 c-233
-2 -465 -4 -515 -6z"/>
<path d="M4500 2770 l0 -70 515 0 515 0 0 70 0 70 -515 0 -515 0 0 -70z"/>
<path d="M4500 2415 l0 -65 515 0 515 0 0 65 0 65 -515 0 -515 0 0 -65z"/>
<path d="M4500 2060 l0 -70 515 0 515 0 0 70 0 70 -515 0 -515 0 0 -70z"/>
</g>
</svg>
